<svg width="15" height="21" viewBox="0 0 15 21" fill="none" xmlns="http://www.w3.org/2000/svg">
<path d="M1.69583 11.0147L9.31458 1.3772M5.41875 6.26574L2.35937 3.6147M13.4302 4.86782L4.74687 15.2626M4.89583 7.89595C4.89583 8.58662 5.1702 9.249 5.65857 9.73737C6.14695 10.2257 6.80933 10.5001 7.5 10.5001C8.19067 10.5001 8.85305 10.2257 9.34142 9.73737C9.8298 9.249 10.1042 8.58662 10.1042 7.89595C10.1042 7.20528 9.8298 6.5429 9.34142 6.05452C8.85305 5.56615 8.19067 5.29178 7.5 5.29178C6.80933 5.29178 6.14695 5.56615 5.65857 6.05452C5.1702 6.5429 4.89583 7.20528 4.89583 7.89595Z" stroke="white" stroke-linecap="round" stroke-linejoin="round"/>
<path d="M13.324 4.64169C13.8156 5.58648 14.0688 6.63544 14.0625 7.69898C14.0654 8.84557 13.8091 9.97798 13.3125 11.0115C12.6893 12.1207 11.9606 13.1672 11.1365 14.1365C10.3198 15.1084 9.58439 16.1469 8.93855 17.2407C8.61147 17.8865 8.34689 18.5636 8.15001 19.2594C8.02397 19.6344 7.86147 19.875 7.5021 19.875C7.17397 19.875 7.0198 19.7334 6.85001 19.2573C6.64925 18.5451 6.3774 17.8548 6.03855 17.1969C5.59614 16.437 5.10082 15.7092 4.55626 15.0188C3.64272 13.7854 2.28647 12.3782 1.58439 10.7782C1.14879 9.80652 0.928139 8.75229 0.937512 7.68753C0.930448 6.14134 1.47568 4.64343 2.47501 3.46357C3.08747 2.72981 3.85398 2.1399 4.7201 1.73574C5.58621 1.33157 6.5307 1.12307 7.48647 1.12502C8.16349 1.12319 8.83695 1.22292 9.48439 1.42086C10.3052 1.67796 11.067 2.09491 11.726 2.64768C12.3849 3.20046 12.928 3.87814 13.324 4.64169Z" stroke="white" stroke-linecap="round" stroke-linejoin="round"/>
</svg>
