<svg width="27" height="25" viewBox="0 0 27 25" fill="none" xmlns="http://www.w3.org/2000/svg">
<path fill-rule="evenodd" clip-rule="evenodd" d="M0.633299 2.80742C0 3.93627 0 5.41932 0 8.38542V16.6146C0 19.5807 0 21.0637 0.633299 22.1926C1.16697 23.1438 2.00465 23.9195 3.03202 24.4136C4.25117 25 5.85286 25 9.05625 25H17.9438C21.1471 25 22.7488 25 23.968 24.4136C24.9953 23.9195 25.833 23.1438 26.3667 22.1926C27 21.0637 27 19.5807 27 16.6146V8.38542C27 5.41932 27 3.93627 26.3667 2.80742C25.833 1.85616 24.9953 1.08053 23.968 0.586388C22.7488 0 21.1471 0 17.9438 0H9.05625C5.85286 0 4.25117 0 3.03202 0.586388C2.00465 1.08053 1.16697 1.85616 0.633299 2.80742ZM19.3505 12.5L18.7505 15.9722H15.7505V25H11.2505V15.9722H7.87555V12.5H11.2505V9.72218C11.2505 6.59718 13.4255 4.86107 16.5005 4.86107C17.4755 4.86107 18.5256 4.99996 19.5005 5.13885V8.33329H17.7756C16.1256 8.33329 15.7505 9.09718 15.7505 10.0694V12.5H19.3505Z" fill="white"/>
</svg>
