<svg width="25" height="25" viewBox="0 0 25 25" fill="none" xmlns="http://www.w3.org/2000/svg">
<path fill-rule="evenodd" clip-rule="evenodd" d="M0.586388 2.80742C0 3.93627 0 5.41932 0 8.38542V16.6146C0 19.5807 0 21.0637 0.586388 22.1926C1.08053 23.1438 1.85616 23.9195 2.80742 24.4136C3.93627 25 5.41932 25 8.38542 25H16.6146C19.5807 25 21.0637 25 22.1926 24.4136C23.1438 23.9195 23.9195 23.1438 24.4136 22.1926C25 21.0637 25 19.5807 25 16.6146V8.38542C25 5.41932 25 3.93627 24.4136 2.80742C23.9195 1.85616 23.1438 1.08053 22.1926 0.586388C21.0637 0 19.5807 0 16.6146 0H8.38542C5.41932 0 3.93627 0 2.80742 0.586388C1.85616 1.08053 1.08053 1.85616 0.586388 2.80742ZM8.73804 3.46409C9.70771 3.41996 10.0175 3.40916 12.4864 3.40916H12.4836C14.9532 3.40916 15.2619 3.41996 16.2316 3.46409C17.1993 3.50841 17.8603 3.66163 18.4398 3.88644C19.0383 4.11844 19.544 4.42905 20.0496 4.93473C20.5553 5.44004 20.8659 5.94723 21.0988 6.54515C21.3223 7.12318 21.4757 7.78378 21.5212 8.75159C21.5647 9.72128 21.5761 10.0311 21.5761 12.5001C21.5761 14.969 21.5647 15.2781 21.5212 16.2478C21.4757 17.2152 21.3223 17.876 21.0988 18.4542C20.8659 19.052 20.5553 19.5592 20.0496 20.0645C19.5445 20.5701 19.0381 20.8815 18.4404 21.1137C17.862 21.3385 17.2007 21.4917 16.2329 21.5361C15.2632 21.5802 14.9543 21.591 12.4853 21.591C10.0166 21.591 9.70695 21.5802 8.73728 21.5361C7.7697 21.4917 7.10892 21.3385 6.53053 21.1137C5.93301 20.8815 5.42583 20.5701 4.92073 20.0645C4.41525 19.5592 4.10466 19.052 3.87228 18.454C3.64766 17.876 3.49445 17.2154 3.44994 16.2476C3.406 15.2779 3.39502 14.969 3.39502 12.5001C3.39502 10.0311 3.40638 9.7211 3.44975 8.7514C3.49331 7.78397 3.64672 7.12318 3.87209 6.54496C4.10504 5.94723 4.41563 5.44004 4.9213 4.93473C5.42659 4.42924 5.93377 4.11863 6.53167 3.88644C7.10968 3.66163 7.77027 3.50841 8.73804 3.46409ZM12.1834 5.04733C11.9996 5.04725 11.8293 5.04717 11.6709 5.04742V5.04515C9.97664 5.04704 9.65165 5.05841 8.81304 5.09629C7.9267 5.13701 7.44547 5.28473 7.12502 5.40973C6.70079 5.57488 6.39777 5.77185 6.0796 6.09003C5.76143 6.40822 5.56408 6.71125 5.39931 7.13549C5.27489 7.45594 5.12679 7.93701 5.08626 8.82337C5.0427 9.7817 5.03398 10.0681 5.03398 12.4957C5.03398 14.9234 5.0427 15.2112 5.08626 16.1696C5.1266 17.0559 5.27489 17.537 5.39931 17.8571C5.56446 18.2815 5.76143 18.5838 6.0796 18.902C6.39777 19.2201 6.70079 19.4171 7.12502 19.5819C7.44565 19.7063 7.9267 19.8544 8.81304 19.8953C9.77134 19.9389 10.059 19.9484 12.4864 19.9484C14.9136 19.9484 15.2015 19.9389 16.1598 19.8953C17.0461 19.8548 17.5275 19.7071 17.8476 19.5821C18.272 19.4173 18.5741 19.2203 18.8923 18.9022C19.2104 18.5842 19.4078 18.2821 19.5726 17.8578C19.697 17.5378 19.8451 17.0567 19.8856 16.1703C19.9292 15.212 19.9386 14.9241 19.9386 12.498C19.9386 10.0719 19.9292 9.78397 19.8856 8.82564C19.8453 7.93928 19.697 7.45822 19.5726 7.13814C19.4074 6.7139 19.2104 6.41087 18.8923 6.09269C18.5743 5.7745 18.2718 5.57754 17.8476 5.41276C17.5272 5.28833 17.0461 5.14022 16.1598 5.09969C15.2013 5.05613 14.9136 5.04742 12.4864 5.04742C12.3815 5.04742 12.2806 5.04738 12.1834 5.04733ZM16.248 7.64742C16.248 7.04496 16.7367 6.55689 17.3389 6.55689V6.55651C17.9412 6.55651 18.4298 7.04515 18.4298 7.64742C18.4298 8.24969 17.9412 8.73833 17.3389 8.73833C16.7367 8.73833 16.248 8.24969 16.248 7.64742ZM7.81799 12.5001C7.81799 9.92191 9.90816 7.83161 12.4862 7.83151C15.0644 7.83151 17.1541 9.92185 17.1541 12.5001C17.1541 15.0783 15.0646 17.1677 12.4864 17.1677C9.90827 17.1677 7.81799 15.0783 7.81799 12.5001ZM15.5166 12.5001C15.5166 10.8264 14.1598 9.46977 12.4864 9.46977C10.8128 9.46977 9.4562 10.8264 9.4562 12.5001C9.4562 14.1736 10.8128 15.5304 12.4864 15.5304C14.1598 15.5304 15.5166 14.1736 15.5166 12.5001Z" fill="url(#paint0_radial_431_1477)"/>
<path fill-rule="evenodd" clip-rule="evenodd" d="M0.586388 2.80742C0 3.93627 0 5.41932 0 8.38542V16.6146C0 19.5807 0 21.0637 0.586388 22.1926C1.08053 23.1438 1.85616 23.9195 2.80742 24.4136C3.93627 25 5.41932 25 8.38542 25H16.6146C19.5807 25 21.0637 25 22.1926 24.4136C23.1438 23.9195 23.9195 23.1438 24.4136 22.1926C25 21.0637 25 19.5807 25 16.6146V8.38542C25 5.41932 25 3.93627 24.4136 2.80742C23.9195 1.85616 23.1438 1.08053 22.1926 0.586388C21.0637 0 19.5807 0 16.6146 0H8.38542C5.41932 0 3.93627 0 2.80742 0.586388C1.85616 1.08053 1.08053 1.85616 0.586388 2.80742ZM8.73804 3.46409C9.70771 3.41996 10.0175 3.40916 12.4864 3.40916H12.4836C14.9532 3.40916 15.2619 3.41996 16.2316 3.46409C17.1993 3.50841 17.8603 3.66163 18.4398 3.88644C19.0383 4.11844 19.544 4.42905 20.0496 4.93473C20.5553 5.44004 20.8659 5.94723 21.0988 6.54515C21.3223 7.12318 21.4757 7.78378 21.5212 8.75159C21.5647 9.72128 21.5761 10.0311 21.5761 12.5001C21.5761 14.969 21.5647 15.2781 21.5212 16.2478C21.4757 17.2152 21.3223 17.876 21.0988 18.4542C20.8659 19.052 20.5553 19.5592 20.0496 20.0645C19.5445 20.5701 19.0381 20.8815 18.4404 21.1137C17.862 21.3385 17.2007 21.4917 16.2329 21.5361C15.2632 21.5802 14.9543 21.591 12.4853 21.591C10.0166 21.591 9.70695 21.5802 8.73728 21.5361C7.7697 21.4917 7.10892 21.3385 6.53053 21.1137C5.93301 20.8815 5.42583 20.5701 4.92073 20.0645C4.41525 19.5592 4.10466 19.052 3.87228 18.454C3.64766 17.876 3.49445 17.2154 3.44994 16.2476C3.406 15.2779 3.39502 14.969 3.39502 12.5001C3.39502 10.0311 3.40638 9.7211 3.44975 8.7514C3.49331 7.78397 3.64672 7.12318 3.87209 6.54496C4.10504 5.94723 4.41563 5.44004 4.9213 4.93473C5.42659 4.42924 5.93377 4.11863 6.53167 3.88644C7.10968 3.66163 7.77027 3.50841 8.73804 3.46409ZM12.1834 5.04733C11.9996 5.04725 11.8293 5.04717 11.6709 5.04742V5.04515C9.97664 5.04704 9.65165 5.05841 8.81304 5.09629C7.9267 5.13701 7.44547 5.28473 7.12502 5.40973C6.70079 5.57488 6.39777 5.77185 6.0796 6.09003C5.76143 6.40822 5.56408 6.71125 5.39931 7.13549C5.27489 7.45594 5.12679 7.93701 5.08626 8.82337C5.0427 9.7817 5.03398 10.0681 5.03398 12.4957C5.03398 14.9234 5.0427 15.2112 5.08626 16.1696C5.1266 17.0559 5.27489 17.537 5.39931 17.8571C5.56446 18.2815 5.76143 18.5838 6.0796 18.902C6.39777 19.2201 6.70079 19.4171 7.12502 19.5819C7.44565 19.7063 7.9267 19.8544 8.81304 19.8953C9.77134 19.9389 10.059 19.9484 12.4864 19.9484C14.9136 19.9484 15.2015 19.9389 16.1598 19.8953C17.0461 19.8548 17.5275 19.7071 17.8476 19.5821C18.272 19.4173 18.5741 19.2203 18.8923 18.9022C19.2104 18.5842 19.4078 18.2821 19.5726 17.8578C19.697 17.5378 19.8451 17.0567 19.8856 16.1703C19.9292 15.212 19.9386 14.9241 19.9386 12.498C19.9386 10.0719 19.9292 9.78397 19.8856 8.82564C19.8453 7.93928 19.697 7.45822 19.5726 7.13814C19.4074 6.7139 19.2104 6.41087 18.8923 6.09269C18.5743 5.7745 18.2718 5.57754 17.8476 5.41276C17.5272 5.28833 17.0461 5.14022 16.1598 5.09969C15.2013 5.05613 14.9136 5.04742 12.4864 5.04742C12.3815 5.04742 12.2806 5.04738 12.1834 5.04733ZM16.248 7.64742C16.248 7.04496 16.7367 6.55689 17.3389 6.55689V6.55651C17.9412 6.55651 18.4298 7.04515 18.4298 7.64742C18.4298 8.24969 17.9412 8.73833 17.3389 8.73833C16.7367 8.73833 16.248 8.24969 16.248 7.64742ZM7.81799 12.5001C7.81799 9.92191 9.90816 7.83161 12.4862 7.83151C15.0644 7.83151 17.1541 9.92185 17.1541 12.5001C17.1541 15.0783 15.0646 17.1677 12.4864 17.1677C9.90827 17.1677 7.81799 15.0783 7.81799 12.5001ZM15.5166 12.5001C15.5166 10.8264 14.1598 9.46977 12.4864 9.46977C10.8128 9.46977 9.4562 10.8264 9.4562 12.5001C9.4562 14.1736 10.8128 15.5304 12.4864 15.5304C14.1598 15.5304 15.5166 14.1736 15.5166 12.5001Z" fill="white"/>
<defs>
<radialGradient id="paint0_radial_431_1477" cx="0" cy="0" r="1" gradientUnits="userSpaceOnUse" gradientTransform="translate(6.64066 26.9255) rotate(-90) scale(24.7768 23.0444)">
<stop stop-color="#FFDD55"/>
<stop offset="0.1" stop-color="#FFDD55"/>
<stop offset="0.5" stop-color="#FF543E"/>
<stop offset="1" stop-color="#C837AB"/>
</radialGradient>
</defs>
</svg>
