<svg width="25" height="25" viewBox="0 0 25 25" fill="none" xmlns="http://www.w3.org/2000/svg">
<path fill-rule="evenodd" clip-rule="evenodd" d="M0.586388 2.80742C0 3.93627 0 5.41932 0 8.38542V16.6146C0 19.5807 0 21.0637 0.586388 22.1926C1.08053 23.1438 1.85616 23.9195 2.80742 24.4136C3.93627 25 5.41932 25 8.38542 25H16.6146C19.5807 25 21.0637 25 22.1926 24.4136C23.1438 23.9195 23.9195 23.1438 24.4136 22.1926C25 21.0637 25 19.5807 25 16.6146V8.38542C25 5.41932 25 3.93627 24.4136 2.80742C23.9195 1.85616 23.1438 1.08053 22.1926 0.586388C21.0637 0 19.5807 0 16.6146 0H8.38542C5.41932 0 3.93627 0 2.80742 0.586388C1.85616 1.08053 1.08053 1.85616 0.586388 2.80742ZM19.4471 9.92266C19.4471 9.76651 19.4451 9.61042 19.439 9.45428C20.0857 8.95035 20.6455 8.31876 21.0903 7.6019C20.4975 7.8858 19.8582 8.07729 19.188 8.16246C19.873 7.72241 20.3972 7.01989 20.6455 6.18237C20.0049 6.59404 19.297 6.89211 18.5413 7.04826C17.9377 6.3527 17.0778 5.91968 16.1256 5.91968C14.2967 5.91968 12.8142 7.52377 12.8142 9.50401C12.8142 9.78082 12.8432 10.0576 12.8997 10.3202C10.1482 10.1711 7.70754 8.74447 6.07507 6.5726C5.78841 7.10492 5.62557 7.72244 5.62557 8.37543C5.62557 9.61751 6.21033 10.7176 7.09991 11.3635C6.55688 11.3422 6.04548 11.179 5.59867 10.9164V10.9591C5.59867 12.698 6.74058 14.1458 8.25664 14.4723C7.97671 14.5575 7.68467 14.6 7.38388 14.6C7.17057 14.6 6.96198 14.5787 6.75944 14.5361C7.18135 15.9556 8.40469 16.999 9.85346 17.0203C8.72028 17.9855 7.2917 18.5606 5.74065 18.5606C5.47351 18.5606 5.2104 18.5392 4.95133 18.5108C6.41692 19.5258 8.15638 20.122 10.0271 20.122C16.1169 20.122 19.4471 14.6568 19.4471 9.92266Z" fill="white"/>
</svg>
