<svg width="21" height="21" viewBox="0 0 21 21" fill="none" xmlns="http://www.w3.org/2000/svg">
<path d="M10.5417 0.0833081C4.85416 0.0833081 0.21874 4.71872 0.21874 10.4062C0.21874 12.2291 0.697907 14 1.59374 15.5625L0.135406 20.9166L5.60416 19.4791C7.11457 20.3021 8.81249 20.7396 10.5417 20.7396C16.2292 20.7396 20.8646 16.1041 20.8646 10.4166C20.8646 7.65622 19.7917 5.06247 17.8437 3.11456C16.8886 2.15008 15.7511 1.38536 14.4974 0.864936C13.2437 0.344515 11.899 0.0788112 10.5417 0.0833081ZM10.5521 1.82289C12.8437 1.82289 14.9896 2.71872 16.6146 4.34372C17.4118 5.14114 18.044 6.08801 18.4748 7.1301C18.9055 8.17219 19.1265 9.28903 19.125 10.4166C19.125 15.1458 15.2708 18.9896 10.5417 18.9896C8.99999 18.9896 7.48957 18.5833 6.17707 17.7916L5.86457 17.6146L2.61457 18.4687L3.47916 15.3021L3.27082 14.9687C2.41098 13.6025 1.9559 12.0205 1.95832 10.4062C1.96874 5.67706 5.81249 1.82289 10.5521 1.82289ZM6.88541 5.63539C6.71874 5.63539 6.43749 5.69789 6.19791 5.95831C5.96874 6.21872 5.29166 6.85414 5.29166 8.11456C5.29166 9.38539 6.21874 10.6041 6.33332 10.7812C6.47916 10.9583 8.16666 13.5625 10.7604 14.6666C11.375 14.9479 11.8542 15.1041 12.2292 15.2187C12.8437 15.4166 13.4062 15.3854 13.8542 15.3229C14.3542 15.25 15.375 14.6979 15.5937 14.0937C15.8125 13.4896 15.8125 12.9791 15.75 12.8646C15.6771 12.7604 15.5104 12.6979 15.25 12.5833C14.9896 12.4375 13.7187 11.8125 13.4896 11.7291C13.25 11.6458 13.1042 11.6041 12.9062 11.8541C12.7396 12.1146 12.2396 12.6979 12.0937 12.8646C11.9375 13.0416 11.7917 13.0625 11.5417 12.9375C11.2708 12.8021 10.4375 12.5312 9.45832 11.6562C8.68749 10.9687 8.17707 10.125 8.02082 9.86456C7.89582 9.61456 8.01041 9.45831 8.13541 9.34373C8.24999 9.22914 8.41666 9.04164 8.52082 8.88539C8.65624 8.73956 8.69791 8.62498 8.78124 8.45831C8.86457 8.28123 8.82291 8.13539 8.76041 8.01039C8.69791 7.89581 8.17707 6.60414 7.95832 6.09372C7.74999 5.59372 7.54166 5.65622 7.37499 5.64581C7.22916 5.64581 7.06249 5.63539 6.88541 5.63539Z" fill="white"/>
</svg>
