<svg width="20" height="21" viewBox="0 0 20 21" fill="none" xmlns="http://www.w3.org/2000/svg">
<path d="M19.875 8.37508V17.7501C19.875 18.5789 19.5458 19.3737 18.9597 19.9598C18.3737 20.5458 17.5788 20.8751 16.75 20.8751H3.20834C2.37954 20.8751 1.58469 20.5458 0.998635 19.9598C0.412584 19.3737 0.0833435 18.5789 0.0833435 17.7501V8.37508C0.0833435 7.21883 0.708344 6.20841 1.64584 5.66675L9.97918 0.854248L18.3125 5.66675C19.25 6.20841 19.875 7.21883 19.875 8.37508ZM1.87501 6.78133L9.97918 12.0209L18.0833 6.78133L9.97918 2.05216L1.87501 6.78133ZM9.97918 13.2813L1.26043 7.62508C1.17709 7.85425 1.12501 8.11466 1.12501 8.37508V17.7501C1.12501 18.3026 1.3445 18.8325 1.7352 19.2232C2.12591 19.6139 2.65581 19.8334 3.20834 19.8334H16.75C17.3025 19.8334 17.8324 19.6139 18.2231 19.2232C18.6138 18.8325 18.8333 18.3026 18.8333 17.7501V8.37508C18.8333 8.11466 18.7813 7.85425 18.6979 7.62508L9.97918 13.2813Z" fill="white"/>
</svg>
