<svg width="16" height="17" viewBox="0 0 16 17" fill="none" xmlns="http://www.w3.org/2000/svg">
<path d="M13.3331 8.33339H2.66643C2.5131 8.33339 2.3731 8.26672 2.27976 8.14672C2.18643 8.03339 2.14643 7.87339 2.17976 7.72672L2.9331 4.12672C3.17976 2.96005 3.67976 1.88672 5.65976 1.88672H10.3464C12.3264 1.88672 12.8264 2.96672 13.0731 4.12672L13.8264 7.73339C13.8598 7.88005 13.8198 8.03339 13.7264 8.15339C13.6264 8.26672 13.4864 8.33339 13.3331 8.33339ZM3.27976 7.33339H12.7131L12.0864 4.33339C11.8998 3.46005 11.6798 2.88672 10.3398 2.88672H5.65976C4.31976 2.88672 4.09976 3.46005 3.9131 4.33339L3.27976 7.33339Z" fill="#575757"/>
<path d="M13.3064 15.6667H12.0531C10.9731 15.6667 10.7664 15.0467 10.6331 14.64L10.4997 14.24C10.3264 13.7334 10.3064 13.6667 9.7064 13.6667H6.29306C5.69306 13.6667 5.65306 13.78 5.49973 14.24L5.3664 14.64C5.2264 15.0534 5.0264 15.6667 3.9464 15.6667H2.69306C2.1664 15.6667 1.65973 15.4467 1.3064 15.06C0.959732 14.68 0.793065 14.1734 0.839732 13.6667L1.21307 9.60671C1.31307 8.50671 1.6064 7.33337 3.7464 7.33337H12.2531C14.3931 7.33337 14.6797 8.50671 14.7864 9.60671L15.1597 13.6667C15.2064 14.1734 15.0397 14.68 14.6931 15.06C14.3397 15.4467 13.8331 15.6667 13.3064 15.6667ZM6.29306 12.6667H9.7064C10.9197 12.6667 11.2064 13.2067 11.4464 13.9134L11.5864 14.3267C11.6997 14.6667 11.6997 14.6734 12.0597 14.6734H13.3131C13.5597 14.6734 13.7931 14.5734 13.9597 14.3934C14.1197 14.22 14.1931 14 14.1731 13.7667L13.7997 9.70671C13.7131 8.80671 13.6064 8.34004 12.2664 8.34004H3.7464C2.39973 8.34004 2.29306 8.80671 2.21306 9.70671L1.83973 13.7667C1.81973 14 1.89306 14.22 2.05306 14.3934C2.21306 14.5734 2.45307 14.6734 2.69973 14.6734H3.95306C4.31306 14.6734 4.31306 14.6667 4.4264 14.3334L4.55973 13.9267C4.7264 13.3934 4.97306 12.6667 6.29306 12.6667Z" fill="#575757"/>
<path d="M2.66642 6.33337H1.99976C1.72642 6.33337 1.49976 6.10671 1.49976 5.83337C1.49976 5.56004 1.72642 5.33337 1.99976 5.33337H2.66642C2.93976 5.33337 3.16642 5.56004 3.16642 5.83337C3.16642 6.10671 2.93976 6.33337 2.66642 6.33337Z" fill="#575757"/>
<path d="M13.9997 6.33337H13.3331C13.0597 6.33337 12.8331 6.10671 12.8331 5.83337C12.8331 5.56004 13.0597 5.33337 13.3331 5.33337H13.9997C14.2731 5.33337 14.4997 5.56004 14.4997 5.83337C14.4997 6.10671 14.2731 6.33337 13.9997 6.33337Z" fill="#575757"/>
<path d="M7.99976 4.33339C7.72642 4.33339 7.49976 4.10673 7.49976 3.83339V2.50006C7.49976 2.22673 7.72642 2.00006 7.99976 2.00006C8.27309 2.00006 8.49976 2.22673 8.49976 2.50006V3.83339C8.49976 4.10673 8.27309 4.33339 7.99976 4.33339Z" fill="#575757"/>
<path d="M8.99976 4.33337H6.99976C6.72642 4.33337 6.49976 4.10671 6.49976 3.83337C6.49976 3.56004 6.72642 3.33337 6.99976 3.33337H8.99976C9.27309 3.33337 9.49976 3.56004 9.49976 3.83337C9.49976 4.10671 9.27309 4.33337 8.99976 4.33337Z" fill="#575757"/>
<path d="M5.99976 11.0001H3.99976C3.72642 11.0001 3.49976 10.7734 3.49976 10.5001C3.49976 10.2267 3.72642 10.0001 3.99976 10.0001H5.99976C6.27309 10.0001 6.49976 10.2267 6.49976 10.5001C6.49976 10.7734 6.27309 11.0001 5.99976 11.0001Z" fill="#575757"/>
<path d="M11.9998 11.0001H9.99976C9.72642 11.0001 9.49976 10.7734 9.49976 10.5001C9.49976 10.2267 9.72642 10.0001 9.99976 10.0001H11.9998C12.2731 10.0001 12.4998 10.2267 12.4998 10.5001C12.4998 10.7734 12.2731 11.0001 11.9998 11.0001Z" fill="#575757"/>
</svg>
