<svg width="24" height="24" viewBox="0 0 24 24" fill="none" xmlns="http://www.w3.org/2000/svg">
<g filter="url(#filter0_d_431_1886)">
<path d="M15.6666 15.6666H6.33331C6.05998 15.6666 5.83331 15.44 5.83331 15.1666V3.83331C5.83331 2.33998 6.83998 1.33331 8.33331 1.33331H13.6666C15.16 1.33331 16.1666 2.33998 16.1666 3.83331V15.1666C16.1666 15.44 15.94 15.6666 15.6666 15.6666ZM6.83331 14.6666H15.1666V3.83331C15.1666 2.89331 14.6066 2.33331 13.6666 2.33331H8.33331C7.39331 2.33331 6.83331 2.89331 6.83331 3.83331V14.6666Z" fill="#575757"/>
<path d="M16.6666 15.6667H5.33331C5.05998 15.6667 4.83331 15.44 4.83331 15.1667C4.83331 14.8934 5.05998 14.6667 5.33331 14.6667H16.6666C16.94 14.6667 17.1666 14.8934 17.1666 15.1667C17.1666 15.44 16.94 15.6667 16.6666 15.6667Z" fill="#575757"/>
<path d="M12.4068 7.66666H9.58684C8.50018 7.66666 7.82684 6.99332 7.82684 5.90666V5.08666C7.82684 3.99999 8.50018 3.32666 9.58684 3.32666H12.4068C13.4935 3.32666 14.1668 3.99999 14.1668 5.08666V5.90666C14.1668 6.99332 13.4935 7.66666 12.4068 7.66666ZM9.59351 4.33332C9.05351 4.33332 8.83351 4.55332 8.83351 5.09332V5.91332C8.83351 6.45332 9.05351 6.67332 9.59351 6.67332H12.4135C12.9535 6.67332 13.1735 6.45332 13.1735 5.91332V5.09332C13.1735 4.55332 12.9535 4.33332 12.4135 4.33332H9.59351Z" fill="#575757"/>
<path d="M10.3333 9.66669H8.33331C8.05998 9.66669 7.83331 9.44002 7.83331 9.16669C7.83331 8.89335 8.05998 8.66669 8.33331 8.66669H10.3333C10.6066 8.66669 10.8333 8.89335 10.8333 9.16669C10.8333 9.44002 10.6066 9.66669 10.3333 9.66669Z" fill="#575757"/>
<path d="M15.6667 11.6733C15.3934 11.6733 15.1667 11.4533 15.1667 11.1733C15.1667 10.9 15.3867 10.6733 15.6667 10.6733L18.1667 10.6667V7.47333L17.1067 6.94666C16.86 6.81999 16.76 6.51999 16.88 6.27333C17.0067 6.02666 17.3067 5.92666 17.5534 6.04666L18.8867 6.71333C19.0534 6.8 19.16 6.97333 19.16 7.15999V11.16C19.16 11.4333 18.94 11.66 18.66 11.66L15.6667 11.6733Z" fill="#575757"/>
</g>
<defs>
<filter id="filter0_d_431_1886" x="0.833313" y="1.33331" width="22.3267" height="22.3334" filterUnits="userSpaceOnUse" color-interpolation-filters="sRGB">
<feFlood flood-opacity="0" result="BackgroundImageFix"/>
<feColorMatrix in="SourceAlpha" type="matrix" values="0 0 0 0 0 0 0 0 0 0 0 0 0 0 0 0 0 0 127 0" result="hardAlpha"/>
<feOffset dy="4"/>
<feGaussianBlur stdDeviation="2"/>
<feComposite in2="hardAlpha" operator="out"/>
<feColorMatrix type="matrix" values="0 0 0 0 0 0 0 0 0 0 0 0 0 0 0 0 0 0 0.25 0"/>
<feBlend mode="normal" in2="BackgroundImageFix" result="effect1_dropShadow_431_1886"/>
<feBlend mode="normal" in="SourceGraphic" in2="effect1_dropShadow_431_1886" result="shape"/>
</filter>
</defs>
</svg>
