<svg width="16" height="17" viewBox="0 0 16 17" fill="none" xmlns="http://www.w3.org/2000/svg">
<path d="M11.6663 15.6667H2.33301C2.05967 15.6667 1.83301 15.44 1.83301 15.1667V3.83334C1.83301 2.34001 2.83967 1.33334 4.33301 1.33334H9.66634C11.1597 1.33334 12.1663 2.34001 12.1663 3.83334V15.1667C12.1663 15.44 11.9397 15.6667 11.6663 15.6667ZM2.83301 14.6667H11.1663V3.83334C11.1663 2.89334 10.6063 2.33334 9.66634 2.33334H4.33301C3.39301 2.33334 2.83301 2.89334 2.83301 3.83334V14.6667Z" fill="#7D7D7D"/>
<path d="M12.6663 15.6667H1.33301C1.05967 15.6667 0.833008 15.44 0.833008 15.1667C0.833008 14.8933 1.05967 14.6667 1.33301 14.6667H12.6663C12.9397 14.6667 13.1663 14.8933 13.1663 15.1667C13.1663 15.44 12.9397 15.6667 12.6663 15.6667Z" fill="#7D7D7D"/>
<path d="M8.40715 7.66666H5.58715C4.50048 7.66666 3.82715 6.99332 3.82715 5.90666V5.08666C3.82715 3.99999 4.50048 3.32666 5.58715 3.32666H8.40715C9.49381 3.32666 10.1671 3.99999 10.1671 5.08666V5.90666C10.1671 6.99332 9.49381 7.66666 8.40715 7.66666ZM5.59381 4.33332C5.05381 4.33332 4.83381 4.55332 4.83381 5.09332V5.91332C4.83381 6.45332 5.05381 6.67332 5.59381 6.67332H8.41381C8.95381 6.67332 9.17381 6.45332 9.17381 5.91332V5.09332C9.17381 4.55332 8.95381 4.33332 8.41381 4.33332H5.59381Z" fill="#7D7D7D"/>
<path d="M6.33301 9.66666H4.33301C4.05967 9.66666 3.83301 9.43999 3.83301 9.16666C3.83301 8.89332 4.05967 8.66666 4.33301 8.66666H6.33301C6.60634 8.66666 6.83301 8.89332 6.83301 9.16666C6.83301 9.43999 6.60634 9.66666 6.33301 9.66666Z" fill="#7D7D7D"/>
<path d="M11.667 11.6733C11.3937 11.6733 11.167 11.4533 11.167 11.1733C11.167 10.9 11.387 10.6733 11.667 10.6733L14.167 10.6667V7.47333L13.107 6.94666C12.8603 6.81999 12.7603 6.51999 12.8803 6.27333C13.007 6.02666 13.307 5.92666 13.5537 6.04666L14.887 6.71333C15.0537 6.8 15.1603 6.97333 15.1603 7.15999V11.16C15.1603 11.4333 14.9403 11.66 14.6603 11.66L11.667 11.6733Z" fill="#7D7D7D"/>
</svg>
