<svg width="55" height="55" viewBox="0 0 55 55" fill="none" xmlns="http://www.w3.org/2000/svg">
<path fill-rule="evenodd" clip-rule="evenodd" d="M36.6654 20.625C36.6654 23.0562 35.6996 25.3878 33.9805 27.1069C32.2614 28.8259 29.9298 29.7917 27.4987 29.7917C25.0675 29.7917 22.736 28.8259 21.0169 27.1069C19.2978 25.3878 18.332 23.0562 18.332 20.625C18.332 18.1939 19.2978 15.8623 21.0169 14.1432C22.736 12.4241 25.0675 11.4584 27.4987 11.4584C29.9298 11.4584 32.2614 12.4241 33.9805 14.1432C35.6996 15.8623 36.6654 18.1939 36.6654 20.625ZM32.082 20.625C32.082 21.8406 31.5991 23.0064 30.7396 23.8659C29.8801 24.7255 28.7143 25.2084 27.4987 25.2084C26.2831 25.2084 25.1173 24.7255 24.2578 23.8659C23.3983 23.0064 22.9154 21.8406 22.9154 20.625C22.9154 19.4095 23.3983 18.2437 24.2578 17.3841C25.1173 16.5246 26.2831 16.0417 27.4987 16.0417C28.7143 16.0417 29.8801 16.5246 30.7396 17.3841C31.5991 18.2437 32.082 19.4095 32.082 20.625Z" fill="#F26240"/>
<path fill-rule="evenodd" clip-rule="evenodd" d="M27.4993 2.29169C13.5775 2.29169 2.29102 13.5781 2.29102 27.5C2.29102 41.4219 13.5775 52.7084 27.4993 52.7084C41.4212 52.7084 52.7077 41.4219 52.7077 27.5C52.7077 13.5781 41.4212 2.29169 27.4993 2.29169ZM6.87435 27.5C6.87435 32.2896 8.50831 36.6988 11.2468 40.2004C13.1701 37.6748 15.6512 35.628 18.4964 34.2199C21.3416 32.8118 24.4738 32.0806 27.6483 32.0834C30.7818 32.0804 33.8746 32.7927 36.6911 34.166C39.5076 35.5393 41.9734 37.5373 43.9008 40.0079C45.8864 37.4037 47.2233 34.3641 47.801 31.1405C48.3786 27.917 48.1803 24.6023 47.2226 21.4706C46.2648 18.3389 44.5751 15.4803 42.2932 13.1314C40.0113 10.7824 37.2028 9.01053 34.1002 7.96244C30.9976 6.91434 27.69 6.62012 24.4511 7.10413C21.2122 7.58813 18.1351 8.83644 15.4744 10.7458C12.8138 12.6551 10.646 15.1706 9.1505 18.084C7.655 20.9975 6.87476 24.2252 6.87435 27.5ZM27.4993 48.125C22.7646 48.1321 18.1729 46.5033 14.501 43.5142C15.979 41.3984 17.9462 39.6709 20.2352 38.4787C22.5242 37.2865 25.0674 36.6649 27.6483 36.6667C30.197 36.6646 32.7094 37.2707 34.9769 38.4345C37.2444 39.5984 39.2014 41.2864 40.6856 43.3584C36.9852 46.4445 32.3178 48.1318 27.4993 48.125Z" fill="#F26240"/>
</svg>
