<svg width="19" height="17" viewBox="0 0 19 17" fill="none" xmlns="http://www.w3.org/2000/svg">
<path d="M16.2715 1.73958C16.0632 1.125 15.6569 0.6875 14.9694 0.6875H4.0319C3.3444 0.6875 2.94857 1.125 2.72982 1.73958L0.646484 7.71875V15.5312C0.646484 16.1042 0.854818 16.3125 1.42773 16.3125H1.94857C2.52148 16.3125 2.72982 16.1042 2.72982 15.5312V14.2292H16.2715V15.5312C16.2715 16.1042 16.4798 16.3125 17.0527 16.3125H17.5736C18.1465 16.3125 18.3548 16.1042 18.3548 15.5312V7.71875L16.2715 1.73958Z" stroke="white" stroke-width="1.04167"/>
<path d="M3.77214 11.1042C3.49587 11.1042 3.23092 10.9945 3.03557 10.7991C2.84022 10.6038 2.73047 10.3388 2.73047 10.0625C2.73047 9.78627 2.84022 9.52132 3.03557 9.32597C3.23092 9.13062 3.49587 9.02087 3.77214 9.02087C4.0484 9.02087 4.31335 9.13062 4.5087 9.32597C4.70406 9.52132 4.8138 9.78627 4.8138 10.0625C4.8138 10.3388 4.70406 10.6038 4.5087 10.7991C4.31335 10.9945 4.0484 11.1042 3.77214 11.1042ZM15.2305 11.1042C14.9542 11.1042 14.6892 10.9945 14.4939 10.7991C14.2985 10.6038 14.1888 10.3388 14.1888 10.0625C14.1888 9.78627 14.2985 9.52132 14.4939 9.32597C14.6892 9.13062 14.9542 9.02087 15.2305 9.02087C15.5067 9.02087 15.7717 9.13062 15.967 9.32597C16.1624 9.52132 16.2721 9.78627 16.2721 10.0625C16.2721 10.3388 16.1624 10.6038 15.967 10.7991C15.7717 10.9945 15.5067 11.1042 15.2305 11.1042Z" stroke="white" stroke-width="1.04167"/>
<path d="M2.99023 5.89583L4.29232 2.25H14.709L16.0111 5.89583H2.99023Z" stroke="white" stroke-width="1.04167" stroke-linejoin="round"/>
</svg>
