<svg width="25" height="26" viewBox="0 0 25 26" fill="none" xmlns="http://www.w3.org/2000/svg">
<path d="M18.0951 21.0743L21.0534 18.1618L20.4014 17.5087L18.0951 19.7827L17.1003 18.7671L16.4472 19.4254L18.0951 21.0743ZM7.05241 9.51602H17.9503V8.47435H7.05137L7.05241 9.51602ZM18.7503 23.4587C17.5899 23.4587 16.6055 23.0542 15.7972 22.2452C14.9882 21.4368 14.5837 20.4525 14.5837 19.2921C14.5837 18.1316 14.9882 17.1469 15.7972 16.3379C16.6062 15.5289 17.5906 15.1247 18.7503 15.1254C19.91 15.1261 20.8948 15.5303 21.7045 16.3379C22.5142 17.1455 22.9184 18.1302 22.917 19.2921C22.917 20.4518 22.5128 21.4362 21.7045 22.2452C20.8948 23.0542 19.91 23.4587 18.7503 23.4587ZM4.16699 22.0556V6.27122C4.16699 5.80456 4.33088 5.40734 4.65866 5.07956C4.98644 4.75178 5.38366 4.58789 5.85033 4.58789H19.1514C19.6166 4.58789 20.0135 4.75178 20.342 5.07956C20.6698 5.40734 20.8337 5.80456 20.8337 6.27122V12.4629C20.6642 12.4004 20.4962 12.3469 20.3295 12.3025C20.1621 12.258 19.983 12.2233 19.792 12.1983V6.27122C19.792 6.11081 19.7253 5.96358 19.592 5.82956C19.4587 5.69553 19.3114 5.62886 19.1503 5.62956H5.85033C5.68991 5.62956 5.54269 5.69622 5.40866 5.82956C5.27463 5.96289 5.20796 6.11011 5.20866 6.27122V20.265H11.817C11.8642 20.5497 11.9253 20.8282 12.0003 21.1004C12.076 21.3726 12.1812 21.6323 12.316 21.8796L12.2805 21.915L11.0982 21.0546L9.69616 22.0556L8.29408 21.0546L6.89199 22.0556L5.48887 21.0546L4.16699 22.0556ZM7.05241 17.3681H11.9576C11.9965 17.1771 12.0444 16.9983 12.1014 16.8316C12.1583 16.665 12.225 16.4966 12.3014 16.3264H7.05241V17.3681ZM7.05241 13.4421H14.667C15.0073 13.1733 15.3719 12.9493 15.7607 12.7702C16.1496 12.5903 16.5653 12.4671 17.0076 12.4004H7.05137L7.05241 13.4421Z" fill="white"/>
</svg>
