<svg width="25" height="19" viewBox="0 0 25 19" fill="none" xmlns="http://www.w3.org/2000/svg">
<path d="M22.9167 0.125H2.08333C0.947917 0.166667 0.0416667 1.07292 0 2.20833V16.7917C0.0416667 17.9271 0.947917 18.8333 2.08333 18.875H22.9167C24.0521 18.8333 24.9583 17.9271 25 16.7917V2.20833C24.9808 1.6619 24.7552 1.14307 24.3686 0.756443C23.9819 0.36982 23.4631 0.144172 22.9167 0.125ZM22.9167 16.7917H2.08333V2.20833H22.9167V16.7917ZM14.5833 14.7083V13.4062C14.5833 11.6771 11.1042 10.8021 9.375 10.8021C7.64583 10.8021 4.16667 11.6771 4.16667 13.4062V14.7083H14.5833ZM9.375 4.29167C8.68433 4.29167 8.02195 4.56603 7.53358 5.05441C7.0452 5.54279 6.77083 6.20517 6.77083 6.89583C6.77083 7.23782 6.83819 7.57645 6.96906 7.89241C7.09994 8.20836 7.29176 8.49544 7.53358 8.73726C8.02195 9.22563 8.68433 9.5 9.375 9.5C9.71698 9.5 10.0556 9.43264 10.3716 9.30177C10.6875 9.1709 10.9746 8.97908 11.2164 8.73726C11.4582 8.49544 11.6501 8.20836 11.7809 7.89241C11.9118 7.57645 11.9792 7.23782 11.9792 6.89583C11.9792 6.55385 11.9118 6.21521 11.7809 5.89926C11.6501 5.58331 11.4582 5.29623 11.2164 5.05441C10.9746 4.81259 10.6875 4.62077 10.3716 4.4899C10.0556 4.35903 9.71698 4.29167 9.375 4.29167ZM14.5833 4.29167V5.33333H20.8333V4.29167H14.5833ZM14.5833 6.375V7.41667H20.8333V6.375H14.5833ZM14.5833 8.45833V9.5H18.75V8.45833H14.5833Z" fill="white"/>
</svg>
