<svg width="24" height="25" viewBox="0 0 24 25" fill="none" xmlns="http://www.w3.org/2000/svg">
<path d="M20.875 12.1216C21.3633 12.4552 21.7987 12.8337 22.1812 13.2568C22.5636 13.68 22.8932 14.1439 23.1699 14.6484C23.4466 15.153 23.6501 15.686 23.7803 16.2476C23.9105 16.8091 23.9837 17.3828 24 17.9688C24 18.9372 23.8169 19.8486 23.4507 20.7031C23.0845 21.5576 22.5799 22.3022 21.937 22.937C21.2941 23.5718 20.5495 24.0723 19.7031 24.4385C18.8568 24.8047 17.9453 24.9919 16.9688 25C16.2282 25 15.512 24.8901 14.8203 24.6704C14.1286 24.4507 13.4938 24.1333 12.916 23.7183C12.3382 23.3032 11.8255 22.8068 11.3779 22.229C10.9303 21.6512 10.5845 21.0124 10.3403 20.3125H0.5625V1.5625H3.6875V0H5.25V1.5625H16.1875V0H17.75V1.5625H20.875V12.1216ZM2.125 3.125V6.25H19.3125V3.125H17.75V4.6875H16.1875V3.125H5.25V4.6875H3.6875V3.125H2.125ZM9.97412 18.75C9.94971 18.4977 9.9375 18.2373 9.9375 17.9688C9.9375 17.2689 10.0352 16.5894 10.2305 15.9302C10.4258 15.271 10.7228 14.6484 11.1216 14.0625H9.9375V12.5H11.5V13.5498C11.8337 13.1348 12.2039 12.7686 12.6108 12.4512C13.0177 12.1338 13.4572 11.8612 13.9292 11.6333C14.4012 11.4054 14.8936 11.2345 15.4062 11.1206C15.9189 11.0067 16.4398 10.9456 16.9688 10.9375C17.7826 10.9375 18.5638 11.0718 19.3125 11.3403V7.8125H2.125V18.75H9.97412ZM16.9688 23.4375C17.7256 23.4375 18.4336 23.2951 19.0928 23.0103C19.752 22.7254 20.3298 22.3348 20.8262 21.8384C21.3226 21.342 21.7132 20.7642 21.998 20.105C22.2829 19.4458 22.4294 18.7337 22.4375 17.9688C22.4375 17.2119 22.2951 16.5039 22.0103 15.8447C21.7254 15.1855 21.3348 14.6077 20.8384 14.1113C20.342 13.6149 19.7642 13.2243 19.105 12.9395C18.4458 12.6546 17.7337 12.5081 16.9688 12.5C16.2119 12.5 15.5039 12.6424 14.8447 12.9272C14.1855 13.2121 13.6077 13.6027 13.1113 14.0991C12.6149 14.5955 12.2243 15.1733 11.9395 15.8325C11.6546 16.4917 11.5081 17.2038 11.5 17.9688C11.5 18.7256 11.6424 19.4336 11.9272 20.0928C12.2121 20.752 12.6027 21.3298 13.0991 21.8262C13.5955 22.3226 14.1733 22.7132 14.8325 22.998C15.4917 23.2829 16.2038 23.4294 16.9688 23.4375ZM17.75 17.1875H20.0938V18.75H16.1875V14.0625H17.75V17.1875ZM3.6875 12.5H5.25V14.0625H3.6875V12.5ZM6.8125 12.5H8.375V14.0625H6.8125V12.5ZM6.8125 9.375H8.375V10.9375H6.8125V9.375ZM3.6875 15.625H5.25V17.1875H3.6875V15.625ZM6.8125 15.625H8.375V17.1875H6.8125V15.625ZM11.5 10.9375H9.9375V9.375H11.5V10.9375ZM14.625 10.9375H13.0625V9.375H14.625V10.9375ZM17.75 10.9375H16.1875V9.375H17.75V10.9375Z" fill="white"/>
</svg>
