<svg width="19" height="23" viewBox="0 0 19 23" fill="none" xmlns="http://www.w3.org/2000/svg">
<path d="M16.5312 2.90625H14.1875V2.125C14.1875 1.7106 14.0229 1.31317 13.7299 1.02015C13.4368 0.72712 13.0394 0.5625 12.625 0.5625H6.375C5.9606 0.5625 5.56317 0.72712 5.27015 1.02015C4.97712 1.31317 4.8125 1.7106 4.8125 2.125V2.90625H2.46875C2.05435 2.90625 1.65692 3.07087 1.3639 3.3639C1.07087 3.65692 0.90625 4.05435 0.90625 4.46875V20.875C0.90625 21.2894 1.07087 21.6868 1.3639 21.9799C1.65692 22.2729 2.05435 22.4375 2.46875 22.4375H16.5312C16.9457 22.4375 17.3431 22.2729 17.6361 21.9799C17.9291 21.6868 18.0938 21.2894 18.0938 20.875V4.46875C18.0938 4.05435 17.9291 3.65692 17.6361 3.3639C17.3431 3.07087 16.9457 2.90625 16.5312 2.90625ZM6.375 2.125H12.625V5.25H6.375V2.125ZM16.5312 20.875H2.46875V4.46875H4.8125V6.8125H14.1875V4.46875H16.5312V20.875Z" fill="white"/>
</svg>
