<svg width="23" height="18" viewBox="0 0 23 18" fill="none" xmlns="http://www.w3.org/2000/svg">
<path d="M7.48158 0.464233C6.95395 0.464233 6.43149 0.568158 5.94402 0.770075C5.45655 0.971991 5.01362 1.26794 4.64053 1.64104C4.26744 2.01413 3.97149 2.45705 3.76957 2.94452C3.56765 3.43199 3.46373 3.95446 3.46373 4.48209C3.46373 5.00972 3.56765 5.53219 3.76957 6.01966C3.97149 6.50713 4.26744 6.95005 4.64053 7.32314C5.01362 7.69624 5.45655 7.99219 5.94402 8.19411C6.43149 8.39602 6.95395 8.49995 7.48158 8.49995C8.54719 8.49995 9.56914 8.07664 10.3226 7.32314C11.0761 6.56965 11.4994 5.54769 11.4994 4.48209C11.4994 3.41649 11.0761 2.39453 10.3226 1.64104C9.56914 0.887542 8.54719 0.464233 7.48158 0.464233ZM4.80301 4.48209C4.80301 4.13034 4.8723 3.78202 5.00691 3.45705C5.14152 3.13207 5.33882 2.83678 5.58755 2.58805C5.83628 2.33933 6.13156 2.14202 6.45654 2.00741C6.78152 1.8728 7.12983 1.80352 7.48158 1.80352C7.83334 1.80352 8.18165 1.8728 8.50663 2.00741C8.83161 2.14202 9.12689 2.33933 9.37562 2.58805C9.62435 2.83678 9.82165 3.13207 9.95626 3.45705C10.0909 3.78202 10.1602 4.13034 10.1602 4.48209C10.1602 5.19249 9.87795 5.8738 9.37562 6.37613C8.87329 6.87846 8.19199 7.16066 7.48158 7.16066C6.77118 7.16066 6.08988 6.87846 5.58755 6.37613C5.08522 5.8738 4.80301 5.19249 4.80301 4.48209ZM16.8566 2.24995C16.0278 2.24995 15.2329 2.57919 14.6469 3.16524C14.0608 3.75129 13.7316 4.54615 13.7316 5.37495C13.7316 6.20375 14.0608 6.9986 14.6469 7.58466C15.2329 8.17071 16.0278 8.49995 16.8566 8.49995C17.6854 8.49995 18.4802 8.17071 19.0663 7.58466C19.6523 6.9986 19.9816 6.20375 19.9816 5.37495C19.9816 4.54615 19.6523 3.75129 19.0663 3.16524C18.4802 2.57919 17.6854 2.24995 16.8566 2.24995ZM15.0709 5.37495C15.0709 4.90135 15.259 4.44714 15.5939 4.11226C15.9288 3.77737 16.383 3.58923 16.8566 3.58923C17.3302 3.58923 17.7844 3.77737 18.1193 4.11226C18.4542 4.44714 18.6423 4.90135 18.6423 5.37495C18.6423 5.84855 18.4542 6.30275 18.1193 6.63764C17.7844 6.97252 17.3302 7.16066 16.8566 7.16066C16.383 7.16066 15.9288 6.97252 15.5939 6.63764C15.259 6.30275 15.0709 5.84855 15.0709 5.37495ZM0.785156 12.2946C0.785156 11.7618 0.996811 11.2508 1.37356 10.8741C1.7503 10.4973 2.26128 10.2857 2.79408 10.2857H12.1691C12.7019 10.2857 13.2129 10.4973 13.5896 10.8741C13.9664 11.2508 14.178 11.7618 14.178 12.2946V12.7687C14.1773 12.841 14.1723 12.9131 14.1628 12.9848C14.1427 13.169 14.1099 13.3515 14.0646 13.5312C13.9167 14.1174 13.6536 14.6683 13.2905 15.1517C12.3852 16.3598 10.6584 17.4285 7.48158 17.4285C4.3048 17.4285 2.57801 16.3598 1.67266 15.1517C1.30992 14.6682 1.04707 14.1173 0.899442 13.5312C0.841009 13.2978 0.803657 13.0597 0.787835 12.8196L0.785156 12.7687V12.2946ZM2.12444 12.7366V12.7526L2.13248 12.8419C2.14141 12.9258 2.15926 13.0517 2.19855 13.2062C2.30265 13.6192 2.48778 14.0073 2.74319 14.3482C3.34498 15.1491 4.63158 16.0892 7.48158 16.0892C10.3316 16.0892 11.6182 15.1491 12.2191 14.3482C12.5316 13.9321 12.6869 13.516 12.7637 13.2062C12.8014 13.0574 12.8262 12.9057 12.8378 12.7526L12.8387 12.7366V12.2946C12.8387 12.117 12.7682 11.9467 12.6426 11.8211C12.517 11.6955 12.3467 11.6249 12.1691 11.6249H2.79408C2.61648 11.6249 2.44616 11.6955 2.32058 11.8211C2.19499 11.9467 2.12444 12.117 2.12444 12.2946V12.7366ZM14.2673 15.3035C14.9575 15.5151 15.8093 15.6428 16.8548 15.6428C19.328 15.6428 20.7102 14.9321 21.461 14.0749C21.7608 13.7354 21.9832 13.3348 22.1128 12.9008C22.1635 12.7255 22.1961 12.5454 22.2102 12.3633L22.2119 12.3214V12.2946C22.2119 11.7618 22.0003 11.2508 21.6235 10.8741C21.2468 10.4973 20.7358 10.2857 20.203 10.2857H14.2619C14.6137 10.6526 14.8709 11.1124 14.9923 11.6249H20.2039C20.38 11.6249 20.549 11.6943 20.6743 11.8179C20.7996 11.9416 20.8712 12.1096 20.8735 12.2857L20.8691 12.3267C20.8602 12.3941 20.8461 12.4606 20.8271 12.5258C20.7518 12.7726 20.6238 13.0002 20.4521 13.1928C20.0316 13.6749 19.0709 14.3035 16.8548 14.3035C16.0146 14.3035 15.3548 14.2133 14.836 14.0741C14.6993 14.5063 14.5081 14.9194 14.2673 15.3035Z" fill="white"/>
</svg>
