<svg width="25" height="25" viewBox="0 0 25 25" fill="none" xmlns="http://www.w3.org/2000/svg">
<g clip-path="url(#clip0_335_2390)">
<path d="M1.47919 5.77777L5.55558 1.68055C5.82495 1.41254 6.18948 1.26208 6.56947 1.26208C6.94945 1.26208 7.31398 1.41254 7.58335 1.68055L22.0347 16.1111L23.3542 21.8055C23.3997 22.0137 23.3981 22.2294 23.3496 22.4369C23.3011 22.6444 23.2068 22.8384 23.0737 23.0048C22.9406 23.1712 22.772 23.3057 22.5802 23.3986C22.3885 23.4915 22.1784 23.5404 21.9653 23.5417C21.866 23.5517 21.766 23.5517 21.6667 23.5417L15.9097 22.2222L1.47919 7.80555C1.21118 7.53618 1.06073 7.17165 1.06073 6.79166C1.06073 6.41167 1.21118 6.04714 1.47919 5.77777ZM16.6042 20.9722L22 22.1042L20.7709 16.8125L9.95835 6.04166L5.79169 10.2083L16.6042 20.9722ZM4.86113 9.20138L9.0278 5.03471L6.61113 2.63194L2.51391 6.7986L4.86113 9.20138Z" fill="#333333"/>
</g>
<defs>
<clipPath id="clip0_335_2390">
<rect width="25" height="25" fill="white" transform="matrix(-1 0 0 1 25 0)"/>
</clipPath>
</defs>
</svg>
