<svg width="25" height="25" viewBox="0 0 25 25" fill="none" xmlns="http://www.w3.org/2000/svg">
<path d="M21.875 12.1216C22.3633 12.4552 22.7987 12.8337 23.1812 13.2568C23.5636 13.68 23.8932 14.1439 24.1699 14.6484C24.4466 15.153 24.6501 15.686 24.7803 16.2476C24.9105 16.8091 24.9837 17.3828 25 17.9688C25 18.9372 24.8169 19.8486 24.4507 20.7031C24.0845 21.5576 23.5799 22.3022 22.937 22.937C22.2941 23.5718 21.5495 24.0723 20.7031 24.4385C19.8568 24.8047 18.9453 24.9919 17.9688 25C17.2282 25 16.512 24.8901 15.8203 24.6704C15.1286 24.4507 14.4938 24.1333 13.916 23.7183C13.3382 23.3032 12.8255 22.8068 12.3779 22.229C11.9303 21.6512 11.5845 21.0124 11.3403 20.3125H1.5625V1.5625H4.6875V0H6.25V1.5625H17.1875V0H18.75V1.5625H21.875V12.1216ZM3.125 3.125V6.25H20.3125V3.125H18.75V4.6875H17.1875V3.125H6.25V4.6875H4.6875V3.125H3.125ZM10.9741 18.75C10.9497 18.4977 10.9375 18.2373 10.9375 17.9688C10.9375 17.2689 11.0352 16.5894 11.2305 15.9302C11.4258 15.271 11.7228 14.6484 12.1216 14.0625H10.9375V12.5H12.5V13.5498C12.8337 13.1348 13.2039 12.7686 13.6108 12.4512C14.0177 12.1338 14.4572 11.8612 14.9292 11.6333C15.4012 11.4054 15.8936 11.2345 16.4062 11.1206C16.9189 11.0067 17.4398 10.9456 17.9688 10.9375C18.7826 10.9375 19.5638 11.0718 20.3125 11.3403V7.8125H3.125V18.75H10.9741ZM17.9688 23.4375C18.7256 23.4375 19.4336 23.2951 20.0928 23.0103C20.752 22.7254 21.3298 22.3348 21.8262 21.8384C22.3226 21.342 22.7132 20.7642 22.998 20.105C23.2829 19.4458 23.4294 18.7337 23.4375 17.9688C23.4375 17.2119 23.2951 16.5039 23.0103 15.8447C22.7254 15.1855 22.3348 14.6077 21.8384 14.1113C21.342 13.6149 20.7642 13.2243 20.105 12.9395C19.4458 12.6546 18.7337 12.5081 17.9688 12.5C17.2119 12.5 16.5039 12.6424 15.8447 12.9272C15.1855 13.2121 14.6077 13.6027 14.1113 14.0991C13.6149 14.5955 13.2243 15.1733 12.9395 15.8325C12.6546 16.4917 12.5081 17.2038 12.5 17.9688C12.5 18.7256 12.6424 19.4336 12.9272 20.0928C13.2121 20.752 13.6027 21.3298 14.0991 21.8262C14.5955 22.3226 15.1733 22.7132 15.8325 22.998C16.4917 23.2829 17.2038 23.4294 17.9688 23.4375ZM18.75 17.1875H21.0938V18.75H17.1875V14.0625H18.75V17.1875ZM4.6875 12.5H6.25V14.0625H4.6875V12.5ZM7.8125 12.5H9.375V14.0625H7.8125V12.5ZM7.8125 9.375H9.375V10.9375H7.8125V9.375ZM4.6875 15.625H6.25V17.1875H4.6875V15.625ZM7.8125 15.625H9.375V17.1875H7.8125V15.625ZM12.5 10.9375H10.9375V9.375H12.5V10.9375ZM15.625 10.9375H14.0625V9.375H15.625V10.9375ZM18.75 10.9375H17.1875V9.375H18.75V10.9375Z" fill="white"/>
</svg>
