<svg width="19" height="20" viewBox="0 0 19 20" fill="none" xmlns="http://www.w3.org/2000/svg">
<path d="M14.0946 17.0743L17.053 14.1618L16.4009 13.5087L14.0946 15.7827L13.0998 14.7671L12.4467 15.4254L14.0946 17.0743ZM3.05192 5.51602H13.9498V4.47435H3.05088L3.05192 5.51602ZM14.7498 19.4587C13.5894 19.4587 12.605 19.0542 11.7967 18.2452C10.9877 17.4368 10.5832 16.4525 10.5832 15.2921C10.5832 14.1316 10.9877 13.1469 11.7967 12.3379C12.6057 11.5289 13.5901 11.1247 14.7498 11.1254C15.9096 11.1261 16.8943 11.5303 17.704 12.3379C18.5137 13.1455 18.9179 14.1302 18.9165 15.2921C18.9165 16.4518 18.5123 17.4362 17.704 18.2452C16.8943 19.0542 15.9096 19.4587 14.7498 19.4587ZM0.166504 18.0556V2.27122C0.166504 1.80456 0.330393 1.40734 0.658171 1.07956C0.985948 0.75178 1.38317 0.587891 1.84984 0.587891H15.1509C15.6162 0.587891 16.013 0.75178 16.3415 1.07956C16.6693 1.40734 16.8332 1.80456 16.8332 2.27122V8.46289C16.6637 8.40039 16.4957 8.34692 16.329 8.30247C16.1616 8.25803 15.9825 8.22331 15.7915 8.19831V2.27122C15.7915 2.11081 15.7248 1.96358 15.5915 1.82956C15.4582 1.69553 15.3109 1.62886 15.1498 1.62956H1.84984C1.68942 1.62956 1.5422 1.69622 1.40817 1.82956C1.27414 1.96289 1.20748 2.11011 1.20817 2.27122V16.265H7.8165C7.86373 16.5497 7.92484 16.8282 7.99984 17.1004C8.07553 17.3726 8.18074 17.6323 8.31546 17.8796L8.28004 17.915L7.09775 17.0546L5.69567 18.0556L4.29359 17.0546L2.8915 18.0556L1.48838 17.0546L0.166504 18.0556ZM3.05192 13.3681H7.95713C7.99602 13.1771 8.04393 12.9983 8.10088 12.8316C8.15782 12.665 8.22449 12.4966 8.30088 12.3264H3.05192V13.3681ZM3.05192 9.44206H10.6665C11.0068 9.17331 11.3714 8.94935 11.7603 8.77018C12.1491 8.59032 12.5648 8.46706 13.0071 8.40039H3.05088L3.05192 9.44206Z" fill="black"/>
</svg>
