<svg width="23" height="24" viewBox="0 0 23 24" fill="none" xmlns="http://www.w3.org/2000/svg">
<path fill-rule="evenodd" clip-rule="evenodd" d="M15.6663 9.18211C15.6663 10.2872 15.2274 11.347 14.446 12.1284C13.6646 12.9098 12.6047 13.3488 11.4997 13.3488C10.3946 13.3488 9.3348 12.9098 8.5534 12.1284C7.77199 11.347 7.33301 10.2872 7.33301 9.18211C7.33301 8.07704 7.77199 7.01723 8.5534 6.23583C9.3348 5.45443 10.3946 5.01544 11.4997 5.01544C12.6047 5.01544 13.6646 5.45443 14.446 6.23583C15.2274 7.01723 15.6663 8.07704 15.6663 9.18211ZM13.583 9.18211C13.583 9.73464 13.3635 10.2645 12.9728 10.6552C12.5821 11.0459 12.0522 11.2654 11.4997 11.2654C10.9471 11.2654 10.4172 11.0459 10.0265 10.6552C9.63583 10.2645 9.41634 9.73464 9.41634 9.18211C9.41634 8.62957 9.63583 8.09967 10.0265 7.70897C10.4172 7.31827 10.9471 7.09878 11.4997 7.09878C12.0522 7.09878 12.5821 7.31827 12.9728 7.70897C13.3635 8.09967 13.583 8.62957 13.583 9.18211Z" fill="white"/>
<path fill-rule="evenodd" clip-rule="evenodd" d="M11.4998 0.848755C5.17171 0.848755 0.0415039 5.97896 0.0415039 12.3071C0.0415039 18.6352 5.17171 23.7654 11.4998 23.7654C17.828 23.7654 22.9582 18.6352 22.9582 12.3071C22.9582 5.97896 17.828 0.848755 11.4998 0.848755ZM2.12484 12.3071C2.12484 14.4842 2.86755 16.4883 4.11234 18.08C4.98654 16.932 6.11432 16.0016 7.40758 15.3616C8.70084 14.7215 10.1246 14.3892 11.5675 14.3904C12.9918 14.3891 14.3977 14.7128 15.6779 15.3371C16.9581 15.9613 18.079 16.8695 18.955 17.9925C19.8576 16.8088 20.4653 15.4271 20.7279 13.9619C20.9904 12.4966 20.9003 10.9899 20.4649 9.56645C20.0296 8.14296 19.2615 6.8436 18.2243 5.77588C17.1871 4.70816 15.9105 3.90278 14.5002 3.42637C13.09 2.94996 11.5865 2.81623 10.1143 3.03623C8.64205 3.25623 7.24337 3.82364 6.03397 4.69152C4.82457 5.5594 3.83922 6.70279 3.15945 8.02708C2.47968 9.35138 2.12503 10.8185 2.12484 12.3071ZM11.4998 21.6821C9.3477 21.6853 7.26053 20.9449 5.5915 19.5863C6.26331 18.6245 7.15748 17.8393 8.19795 17.2974C9.23843 16.7555 10.3944 16.4729 11.5675 16.4738C12.726 16.4728 13.8681 16.7483 14.8987 17.2773C15.9294 17.8063 16.819 18.5736 17.4936 19.5154C15.8116 20.9182 13.69 21.6852 11.4998 21.6821Z" fill="white"/>
</svg>
