<svg width="1194" height="576" viewBox="0 0 1194 576" fill="none" xmlns="http://www.w3.org/2000/svg">
<g filter="url(#filter0_d_169_2970)">
<path fill-rule="evenodd" clip-rule="evenodd" d="M48 62C48 54.268 54.268 48 62 48H1133C1140.73 48 1147 54.268 1147 62V502C1147 509.732 1140.73 516 1133 516H62C54.268 516 48 509.732 48 502V62Z" fill="white"/>
</g>
<path d="M735.188 453.378V451.662H731.384V450.738L735.404 444.918H736.424V450.618H737.66V451.662H736.424V453.378H735.188ZM735.188 450.618V446.862L732.62 450.618H735.188ZM741.615 453.486C740.631 453.486 739.879 453.114 739.359 452.37C738.847 451.618 738.591 450.542 738.591 449.142C738.591 447.718 738.847 446.642 739.359 445.914C739.879 445.178 740.631 444.81 741.615 444.81C742.607 444.81 743.359 445.178 743.871 445.914C744.383 446.642 744.639 447.714 744.639 449.13C744.639 450.538 744.379 451.618 743.859 452.37C743.347 453.114 742.599 453.486 741.615 453.486ZM741.615 452.454C742.223 452.454 742.675 452.186 742.971 451.65C743.267 451.114 743.415 450.274 743.415 449.13C743.415 447.986 743.267 447.154 742.971 446.634C742.683 446.106 742.231 445.842 741.615 445.842C741.007 445.842 740.555 446.106 740.259 446.634C739.963 447.162 739.815 447.994 739.815 449.13C739.815 450.274 739.963 451.114 740.259 451.65C740.555 452.186 741.007 452.454 741.615 452.454ZM735.773 462.378V453.918H736.985V459.078H737.009L739.553 456.522H741.053L738.245 459.342L741.269 462.378H739.757L737.009 459.702H736.985V462.378H735.773Z" fill="#2B3034" fill-opacity="0.4"/>
<path d="M818.241 453.378V451.662H814.437V450.738L818.457 444.918H819.477V450.618H820.713V451.662H819.477V453.378H818.241ZM818.241 450.618V446.862L815.673 450.618H818.241ZM824.8 453.486C824.256 453.486 823.728 453.402 823.216 453.234C822.712 453.058 822.292 452.814 821.956 452.502L822.376 451.542C823.112 452.134 823.912 452.43 824.776 452.43C825.328 452.43 825.76 452.282 826.072 451.986C826.384 451.682 826.54 451.286 826.54 450.798C826.54 450.294 826.392 449.882 826.096 449.562C825.8 449.242 825.388 449.082 824.86 449.082C824.116 449.082 823.52 449.39 823.072 450.006H822.208V444.918H827.248V445.962H823.42V448.638C823.868 448.246 824.436 448.05 825.124 448.05C825.66 448.05 826.124 448.162 826.516 448.386C826.908 448.61 827.212 448.926 827.428 449.334C827.644 449.734 827.752 450.202 827.752 450.738C827.752 451.282 827.632 451.762 827.392 452.178C827.152 452.586 826.812 452.906 826.372 453.138C825.932 453.37 825.408 453.486 824.8 453.486ZM818.826 462.378V453.918H820.038V459.078H820.062L822.606 456.522H824.106L821.298 459.342L824.322 462.378H822.81L820.062 459.702H820.038V462.378H818.826Z" fill="#2B3034" fill-opacity="0.4"/>
<path d="M900.657 453.486C900.113 453.486 899.585 453.402 899.073 453.234C898.569 453.058 898.149 452.814 897.813 452.502L898.233 451.542C898.969 452.134 899.769 452.43 900.633 452.43C901.185 452.43 901.617 452.282 901.929 451.986C902.241 451.682 902.397 451.286 902.397 450.798C902.397 450.294 902.249 449.882 901.953 449.562C901.657 449.242 901.245 449.082 900.717 449.082C899.973 449.082 899.377 449.39 898.929 450.006H898.065V444.918H903.105V445.962H899.277V448.638C899.725 448.246 900.293 448.05 900.981 448.05C901.517 448.05 901.981 448.162 902.373 448.386C902.765 448.61 903.069 448.926 903.285 449.334C903.501 449.734 903.609 450.202 903.609 450.738C903.609 451.282 903.489 451.762 903.249 452.178C903.009 452.586 902.669 452.906 902.229 453.138C901.789 453.37 901.265 453.486 900.657 453.486ZM907.721 453.486C906.737 453.486 905.985 453.114 905.465 452.37C904.953 451.618 904.697 450.542 904.697 449.142C904.697 447.718 904.953 446.642 905.465 445.914C905.985 445.178 906.737 444.81 907.721 444.81C908.713 444.81 909.465 445.178 909.977 445.914C910.489 446.642 910.745 447.714 910.745 449.13C910.745 450.538 910.485 451.618 909.965 452.37C909.453 453.114 908.705 453.486 907.721 453.486ZM907.721 452.454C908.329 452.454 908.781 452.186 909.077 451.65C909.373 451.114 909.521 450.274 909.521 449.13C909.521 447.986 909.373 447.154 909.077 446.634C908.789 446.106 908.337 445.842 907.721 445.842C907.113 445.842 906.661 446.106 906.365 446.634C906.069 447.162 905.921 447.994 905.921 449.13C905.921 450.274 906.069 451.114 906.365 451.65C906.661 452.186 907.113 452.454 907.721 452.454ZM901.879 462.378V453.918H903.091V459.078H903.115L905.659 456.522H907.159L904.351 459.342L907.375 462.378H905.863L903.115 459.702H903.091V462.378H901.879Z" fill="#2B3034" fill-opacity="0.4"/>
<path d="M983.709 453.486C983.165 453.486 982.637 453.402 982.125 453.234C981.621 453.058 981.201 452.814 980.865 452.502L981.285 451.542C982.021 452.134 982.821 452.43 983.685 452.43C984.237 452.43 984.669 452.282 984.981 451.986C985.293 451.682 985.449 451.286 985.449 450.798C985.449 450.294 985.301 449.882 985.005 449.562C984.709 449.242 984.297 449.082 983.769 449.082C983.025 449.082 982.429 449.39 981.981 450.006H981.117V444.918H986.157V445.962H982.329V448.638C982.777 448.246 983.345 448.05 984.033 448.05C984.569 448.05 985.033 448.162 985.425 448.386C985.817 448.61 986.121 448.926 986.337 449.334C986.553 449.734 986.661 450.202 986.661 450.738C986.661 451.282 986.541 451.762 986.301 452.178C986.061 452.586 985.721 452.906 985.281 453.138C984.841 453.37 984.317 453.486 983.709 453.486ZM990.904 453.486C990.36 453.486 989.832 453.402 989.32 453.234C988.816 453.058 988.396 452.814 988.06 452.502L988.48 451.542C989.216 452.134 990.016 452.43 990.88 452.43C991.432 452.43 991.864 452.282 992.176 451.986C992.488 451.682 992.644 451.286 992.644 450.798C992.644 450.294 992.496 449.882 992.2 449.562C991.904 449.242 991.492 449.082 990.964 449.082C990.22 449.082 989.624 449.39 989.176 450.006H988.312V444.918H993.352V445.962H989.524V448.638C989.972 448.246 990.54 448.05 991.228 448.05C991.764 448.05 992.228 448.162 992.62 448.386C993.012 448.61 993.316 448.926 993.532 449.334C993.748 449.734 993.856 450.202 993.856 450.738C993.856 451.282 993.736 451.762 993.496 452.178C993.256 452.586 992.916 452.906 992.476 453.138C992.036 453.37 991.512 453.486 990.904 453.486ZM984.931 462.378V453.918H986.143V459.078H986.167L988.711 456.522H990.211L987.403 459.342L990.427 462.378H988.915L986.167 459.702H986.143V462.378H984.931Z" fill="#2B3034" fill-opacity="0.4"/>
<path d="M1066.93 453.486C1065.91 453.486 1065.11 453.122 1064.55 452.394C1064 451.666 1063.73 450.646 1063.73 449.334C1063.73 447.886 1064.04 446.77 1064.66 445.986C1065.29 445.202 1066.15 444.81 1067.25 444.81C1067.69 444.81 1068.12 444.898 1068.56 445.074C1069 445.242 1069.37 445.482 1069.67 445.794L1069.23 446.73C1068.95 446.442 1068.63 446.226 1068.27 446.082C1067.93 445.938 1067.58 445.866 1067.23 445.866C1066.49 445.866 1065.91 446.138 1065.51 446.682C1065.12 447.218 1064.93 448.022 1064.93 449.094V449.574C1065.09 449.086 1065.36 448.706 1065.75 448.434C1066.15 448.154 1066.61 448.014 1067.13 448.014C1067.63 448.014 1068.07 448.13 1068.44 448.362C1068.83 448.594 1069.13 448.914 1069.34 449.322C1069.56 449.722 1069.67 450.182 1069.67 450.702C1069.67 451.246 1069.55 451.73 1069.32 452.154C1069.09 452.57 1068.76 452.898 1068.35 453.138C1067.94 453.37 1067.47 453.486 1066.93 453.486ZM1066.86 452.478C1067.35 452.478 1067.74 452.318 1068.05 451.998C1068.35 451.678 1068.5 451.262 1068.5 450.75C1068.5 450.238 1068.35 449.822 1068.05 449.502C1067.74 449.182 1067.35 449.022 1066.86 449.022C1066.37 449.022 1065.97 449.182 1065.67 449.502C1065.37 449.822 1065.21 450.238 1065.21 450.75C1065.21 451.262 1065.37 451.678 1065.67 451.998C1065.97 452.318 1066.37 452.478 1066.86 452.478ZM1073.83 453.486C1072.84 453.486 1072.09 453.114 1071.57 452.37C1071.06 451.618 1070.8 450.542 1070.8 449.142C1070.8 447.718 1071.06 446.642 1071.57 445.914C1072.09 445.178 1072.84 444.81 1073.83 444.81C1074.82 444.81 1075.57 445.178 1076.08 445.914C1076.59 446.642 1076.85 447.714 1076.85 449.13C1076.85 450.538 1076.59 451.618 1076.07 452.37C1075.56 453.114 1074.81 453.486 1073.83 453.486ZM1073.83 452.454C1074.43 452.454 1074.89 452.186 1075.18 451.65C1075.48 451.114 1075.63 450.274 1075.63 449.13C1075.63 447.986 1075.48 447.154 1075.18 446.634C1074.89 446.106 1074.44 445.842 1073.83 445.842C1073.22 445.842 1072.77 446.106 1072.47 446.634C1072.17 447.162 1072.03 447.994 1072.03 449.13C1072.03 450.274 1072.17 451.114 1072.47 451.65C1072.77 452.186 1073.22 452.454 1073.83 452.454ZM1067.98 462.378V453.918H1069.2V459.078H1069.22L1071.76 456.522H1073.26L1070.46 459.342L1073.48 462.378H1071.97L1069.22 459.702H1069.2V462.378H1067.98Z" fill="#2B3034" fill-opacity="0.4"/>
<path d="M156.101 453.486C155.557 453.486 155.029 453.402 154.517 453.234C154.013 453.058 153.593 452.814 153.257 452.502L153.677 451.542C154.413 452.134 155.213 452.43 156.077 452.43C156.629 452.43 157.061 452.282 157.373 451.986C157.685 451.682 157.841 451.286 157.841 450.798C157.841 450.294 157.693 449.882 157.397 449.562C157.101 449.242 156.689 449.082 156.161 449.082C155.417 449.082 154.821 449.39 154.373 450.006H153.509V444.918H158.549V445.962H154.721V448.638C155.169 448.246 155.737 448.05 156.425 448.05C156.961 448.05 157.425 448.162 157.817 448.386C158.209 448.61 158.513 448.926 158.729 449.334C158.945 449.734 159.053 450.202 159.053 450.738C159.053 451.282 158.933 451.762 158.693 452.178C158.453 452.586 158.113 452.906 157.673 453.138C157.233 453.37 156.709 453.486 156.101 453.486ZM160.417 453.378V444.918H161.629V450.078H161.653L164.197 447.522H165.697L162.889 450.342L165.913 453.378H164.401L161.653 450.702H161.629V453.378H160.417Z" fill="#2B3034" fill-opacity="0.4"/>
<path d="M233.425 453.378V452.334H235.345V446.358L233.845 447.294L233.341 446.37L235.705 444.918H236.581V452.334H238.381V453.378H233.425ZM242.816 453.486C241.832 453.486 241.08 453.114 240.56 452.37C240.048 451.618 239.792 450.542 239.792 449.142C239.792 447.718 240.048 446.642 240.56 445.914C241.08 445.178 241.832 444.81 242.816 444.81C243.808 444.81 244.56 445.178 245.072 445.914C245.584 446.642 245.84 447.714 245.84 449.13C245.84 450.538 245.58 451.618 245.06 452.37C244.548 453.114 243.8 453.486 242.816 453.486ZM242.816 452.454C243.424 452.454 243.876 452.186 244.172 451.65C244.468 451.114 244.616 450.274 244.616 449.13C244.616 447.986 244.468 447.154 244.172 446.634C243.884 446.106 243.432 445.842 242.816 445.842C242.208 445.842 241.756 446.106 241.46 446.634C241.164 447.162 241.016 447.994 241.016 449.13C241.016 450.274 241.164 451.114 241.46 451.65C241.756 452.186 242.208 452.454 242.816 452.454ZM236.975 462.378V453.918H238.187V459.078H238.211L240.755 456.522H242.255L239.447 459.342L242.471 462.378H240.959L238.211 459.702H238.187V462.378H236.975Z" fill="#2B3034" fill-opacity="0.4"/>
<path d="M316.478 453.378V452.334H318.398V446.358L316.898 447.294L316.394 446.37L318.758 444.918H319.634V452.334H321.434V453.378H316.478ZM326.001 453.486C325.457 453.486 324.929 453.402 324.417 453.234C323.913 453.058 323.493 452.814 323.157 452.502L323.577 451.542C324.313 452.134 325.113 452.43 325.977 452.43C326.529 452.43 326.961 452.282 327.273 451.986C327.585 451.682 327.741 451.286 327.741 450.798C327.741 450.294 327.593 449.882 327.297 449.562C327.001 449.242 326.589 449.082 326.061 449.082C325.317 449.082 324.721 449.39 324.273 450.006H323.409V444.918H328.449V445.962H324.621V448.638C325.069 448.246 325.637 448.05 326.325 448.05C326.861 448.05 327.325 448.162 327.717 448.386C328.109 448.61 328.413 448.926 328.629 449.334C328.845 449.734 328.953 450.202 328.953 450.738C328.953 451.282 328.833 451.762 328.593 452.178C328.353 452.586 328.013 452.906 327.573 453.138C327.133 453.37 326.609 453.486 326.001 453.486ZM320.027 462.378V453.918H321.239V459.078H321.263L323.807 456.522H325.307L322.499 459.342L325.523 462.378H324.011L321.263 459.702H321.239V462.378H320.027Z" fill="#2B3034" fill-opacity="0.4"/>
<path d="M399.145 453.378V452.454L401.965 449.43C402.357 449.006 402.637 448.622 402.805 448.278C402.981 447.934 403.069 447.586 403.069 447.234C403.069 446.322 402.533 445.866 401.461 445.866C400.645 445.866 399.913 446.174 399.265 446.79L398.821 445.842C399.141 445.53 399.549 445.282 400.045 445.098C400.541 444.906 401.057 444.81 401.593 444.81C402.465 444.81 403.133 445.01 403.597 445.41C404.069 445.81 404.305 446.382 404.305 447.126C404.305 447.63 404.181 448.122 403.933 448.602C403.693 449.082 403.313 449.594 402.793 450.138L400.705 452.334H404.641V453.378H399.145ZM408.92 453.486C407.936 453.486 407.184 453.114 406.664 452.37C406.152 451.618 405.896 450.542 405.896 449.142C405.896 447.718 406.152 446.642 406.664 445.914C407.184 445.178 407.936 444.81 408.92 444.81C409.912 444.81 410.664 445.178 411.176 445.914C411.688 446.642 411.944 447.714 411.944 449.13C411.944 450.538 411.684 451.618 411.164 452.37C410.652 453.114 409.904 453.486 408.92 453.486ZM408.92 452.454C409.528 452.454 409.98 452.186 410.276 451.65C410.572 451.114 410.72 450.274 410.72 449.13C410.72 447.986 410.572 447.154 410.276 446.634C409.988 446.106 409.536 445.842 408.92 445.842C408.312 445.842 407.86 446.106 407.564 446.634C407.268 447.162 407.12 447.994 407.12 449.13C407.12 450.274 407.268 451.114 407.564 451.65C407.86 452.186 408.312 452.454 408.92 452.454ZM403.078 462.378V453.918H404.29V459.078H404.314L406.858 456.522H408.358L405.55 459.342L408.574 462.378H407.062L404.314 459.702H404.29V462.378H403.078Z" fill="#2B3034" fill-opacity="0.4"/>
<path d="M482.197 453.378V452.454L485.017 449.43C485.409 449.006 485.689 448.622 485.857 448.278C486.033 447.934 486.121 447.586 486.121 447.234C486.121 446.322 485.585 445.866 484.513 445.866C483.697 445.866 482.965 446.174 482.317 446.79L481.873 445.842C482.193 445.53 482.601 445.282 483.097 445.098C483.593 444.906 484.109 444.81 484.645 444.81C485.517 444.81 486.185 445.01 486.649 445.41C487.121 445.81 487.357 446.382 487.357 447.126C487.357 447.63 487.233 448.122 486.985 448.602C486.745 449.082 486.365 449.594 485.845 450.138L483.757 452.334H487.693V453.378H482.197ZM492.105 453.486C491.561 453.486 491.033 453.402 490.521 453.234C490.017 453.058 489.597 452.814 489.261 452.502L489.681 451.542C490.417 452.134 491.217 452.43 492.081 452.43C492.633 452.43 493.065 452.282 493.377 451.986C493.689 451.682 493.845 451.286 493.845 450.798C493.845 450.294 493.697 449.882 493.401 449.562C493.105 449.242 492.693 449.082 492.165 449.082C491.421 449.082 490.825 449.39 490.377 450.006H489.513V444.918H494.553V445.962H490.725V448.638C491.173 448.246 491.741 448.05 492.429 448.05C492.965 448.05 493.429 448.162 493.821 448.386C494.213 448.61 494.517 448.926 494.733 449.334C494.949 449.734 495.057 450.202 495.057 450.738C495.057 451.282 494.937 451.762 494.697 452.178C494.457 452.586 494.117 452.906 493.677 453.138C493.237 453.37 492.713 453.486 492.105 453.486ZM486.131 462.378V453.918H487.343V459.078H487.367L489.911 456.522H491.411L488.603 459.342L491.627 462.378H490.115L487.367 459.702H487.343V462.378H486.131Z" fill="#2B3034" fill-opacity="0.4"/>
<path d="M651.234 453.486C650.666 453.486 650.126 453.402 649.614 453.234C649.102 453.058 648.674 452.814 648.33 452.502L648.762 451.542C649.138 451.846 649.526 452.07 649.926 452.214C650.326 452.358 650.75 452.43 651.198 452.43C651.774 452.43 652.21 452.306 652.506 452.058C652.81 451.81 652.962 451.454 652.962 450.99C652.962 450.526 652.81 450.182 652.506 449.958C652.21 449.734 651.778 449.622 651.21 449.622H649.902V448.578H651.09C651.594 448.578 651.99 448.45 652.278 448.194C652.574 447.938 652.722 447.586 652.722 447.138C652.722 446.73 652.586 446.418 652.314 446.202C652.042 445.978 651.654 445.866 651.15 445.866C650.294 445.866 649.546 446.174 648.906 446.79L648.474 445.842C648.802 445.514 649.21 445.262 649.698 445.086C650.194 444.902 650.71 444.81 651.246 444.81C652.094 444.81 652.754 445.006 653.226 445.398C653.698 445.782 653.934 446.318 653.934 447.006C653.934 447.47 653.814 447.878 653.574 448.23C653.342 448.582 653.018 448.838 652.602 448.998C653.106 449.126 653.494 449.374 653.766 449.742C654.038 450.102 654.174 450.546 654.174 451.074C654.174 451.818 653.91 452.406 653.382 452.838C652.862 453.27 652.146 453.486 651.234 453.486ZM658.693 453.486C658.149 453.486 657.621 453.402 657.109 453.234C656.605 453.058 656.185 452.814 655.849 452.502L656.269 451.542C657.005 452.134 657.805 452.43 658.669 452.43C659.221 452.43 659.653 452.282 659.965 451.986C660.277 451.682 660.433 451.286 660.433 450.798C660.433 450.294 660.285 449.882 659.989 449.562C659.693 449.242 659.281 449.082 658.753 449.082C658.009 449.082 657.413 449.39 656.965 450.006H656.101V444.918H661.141V445.962H657.313V448.638C657.761 448.246 658.329 448.05 659.017 448.05C659.553 448.05 660.017 448.162 660.409 448.386C660.801 448.61 661.105 448.926 661.321 449.334C661.537 449.734 661.645 450.202 661.645 450.738C661.645 451.282 661.525 451.762 661.285 452.178C661.045 452.586 660.705 452.906 660.265 453.138C659.825 453.37 659.301 453.486 658.693 453.486ZM652.72 462.378V453.918H653.932V459.078H653.956L656.5 456.522H658L655.192 459.342L658.216 462.378H656.704L653.956 459.702H653.932V462.378H652.72Z" fill="#2B3034" fill-opacity="0.4"/>
<path d="M567.698 453.486C567.13 453.486 566.59 453.402 566.078 453.234C565.566 453.058 565.138 452.814 564.794 452.502L565.226 451.542C565.602 451.846 565.99 452.07 566.39 452.214C566.79 452.358 567.214 452.43 567.662 452.43C568.238 452.43 568.674 452.306 568.97 452.058C569.274 451.81 569.426 451.454 569.426 450.99C569.426 450.526 569.274 450.182 568.97 449.958C568.674 449.734 568.242 449.622 567.674 449.622H566.366V448.578H567.554C568.058 448.578 568.454 448.45 568.742 448.194C569.038 447.938 569.186 447.586 569.186 447.138C569.186 446.73 569.05 446.418 568.778 446.202C568.506 445.978 568.118 445.866 567.614 445.866C566.758 445.866 566.01 446.174 565.37 446.79L564.938 445.842C565.266 445.514 565.674 445.262 566.162 445.086C566.658 444.902 567.174 444.81 567.71 444.81C568.558 444.81 569.218 445.006 569.69 445.398C570.162 445.782 570.398 446.318 570.398 447.006C570.398 447.47 570.278 447.878 570.038 448.23C569.806 448.582 569.482 448.838 569.066 448.998C569.57 449.126 569.958 449.374 570.23 449.742C570.502 450.102 570.638 450.546 570.638 451.074C570.638 451.818 570.374 452.406 569.846 452.838C569.326 453.27 568.61 453.486 567.698 453.486ZM575.025 453.486C574.041 453.486 573.289 453.114 572.769 452.37C572.257 451.618 572.001 450.542 572.001 449.142C572.001 447.718 572.257 446.642 572.769 445.914C573.289 445.178 574.041 444.81 575.025 444.81C576.017 444.81 576.769 445.178 577.281 445.914C577.793 446.642 578.049 447.714 578.049 449.13C578.049 450.538 577.789 451.618 577.269 452.37C576.757 453.114 576.009 453.486 575.025 453.486ZM575.025 452.454C575.633 452.454 576.085 452.186 576.381 451.65C576.677 451.114 576.825 450.274 576.825 449.13C576.825 447.986 576.677 447.154 576.381 446.634C576.093 446.106 575.641 445.842 575.025 445.842C574.417 445.842 573.965 446.106 573.669 446.634C573.373 447.162 573.225 447.994 573.225 449.13C573.225 450.274 573.373 451.114 573.669 451.65C573.965 452.186 574.417 452.454 575.025 452.454ZM569.184 462.378V453.918H570.396V459.078H570.42L572.964 456.522H574.464L571.656 459.342L574.68 462.378H573.168L570.42 459.702H570.396V462.378H569.184Z" fill="#2B3034" fill-opacity="0.4"/>
<path d="M79.9243 418.595V417.671L82.7443 414.647C83.1363 414.223 83.4163 413.839 83.5843 413.495C83.7603 413.151 83.8483 412.803 83.8483 412.451C83.8483 411.539 83.3123 411.083 82.2403 411.083C81.4243 411.083 80.6923 411.391 80.0443 412.007L79.6003 411.059C79.9203 410.747 80.3283 410.499 80.8243 410.315C81.3203 410.123 81.8363 410.027 82.3723 410.027C83.2443 410.027 83.9123 410.227 84.3763 410.627C84.8483 411.027 85.0843 411.599 85.0843 412.343C85.0843 412.847 84.9603 413.339 84.7123 413.819C84.4723 414.299 84.0923 414.811 83.5723 415.355L81.4843 417.551H85.4203V418.595H79.9243ZM89.6996 418.703C88.7156 418.703 87.9636 418.331 87.4436 417.587C86.9316 416.835 86.6756 415.759 86.6756 414.359C86.6756 412.935 86.9316 411.859 87.4436 411.131C87.9636 410.395 88.7156 410.027 89.6996 410.027C90.6916 410.027 91.4436 410.395 91.9556 411.131C92.4676 411.859 92.7236 412.931 92.7236 414.347C92.7236 415.755 92.4636 416.835 91.9436 417.587C91.4316 418.331 90.6836 418.703 89.6996 418.703ZM89.6996 417.671C90.3076 417.671 90.7596 417.403 91.0556 416.867C91.3516 416.331 91.4996 415.491 91.4996 414.347C91.4996 413.203 91.3516 412.371 91.0556 411.851C90.7676 411.323 90.3156 411.059 89.6996 411.059C89.0916 411.059 88.6396 411.323 88.3436 411.851C88.0476 412.379 87.8996 413.211 87.8996 414.347C87.8996 415.491 88.0476 416.331 88.3436 416.867C88.6396 417.403 89.0916 417.671 89.6996 417.671ZM82.4563 427.907L81.6403 427.427L86.5963 418.823L87.4123 419.303L82.4563 427.907ZM81.5923 424.199C80.9363 424.199 80.4243 423.971 80.0563 423.515C79.6883 423.051 79.5043 422.415 79.5043 421.607C79.5043 420.799 79.6883 420.167 80.0563 419.711C80.4323 419.255 80.9443 419.027 81.5923 419.027C82.2403 419.027 82.7483 419.255 83.1163 419.711C83.4923 420.167 83.6803 420.799 83.6803 421.607C83.6803 422.415 83.4963 423.051 83.1283 423.515C82.7603 423.971 82.2483 424.199 81.5923 424.199ZM81.5923 423.347C81.9283 423.347 82.1883 423.203 82.3723 422.915C82.5643 422.627 82.6603 422.191 82.6603 421.607C82.6603 421.023 82.5643 420.587 82.3723 420.299C82.1883 420.011 81.9283 419.867 81.5923 419.867C81.2563 419.867 80.9923 420.011 80.8003 420.299C80.6163 420.587 80.5243 421.023 80.5243 421.607C80.5243 422.199 80.6163 422.639 80.8003 422.927C80.9923 423.207 81.2563 423.347 81.5923 423.347ZM87.4603 427.703C86.8123 427.703 86.3043 427.475 85.9363 427.019C85.5683 426.563 85.3843 425.927 85.3843 425.111C85.3843 424.311 85.5683 423.683 85.9363 423.227C86.3043 422.763 86.8123 422.531 87.4603 422.531C88.1163 422.531 88.6283 422.763 88.9963 423.227C89.3643 423.683 89.5483 424.311 89.5483 425.111C89.5483 425.927 89.3643 426.563 88.9963 427.019C88.6283 427.475 88.1163 427.703 87.4603 427.703ZM87.4603 426.863C87.7963 426.863 88.0563 426.719 88.2403 426.431C88.4323 426.143 88.5283 425.703 88.5283 425.111C88.5283 424.535 88.4323 424.103 88.2403 423.815C88.0563 423.527 87.7963 423.383 87.4603 423.383C87.1243 423.383 86.8603 423.527 86.6683 423.815C86.4843 424.095 86.3923 424.527 86.3923 425.111C86.3923 425.703 86.4843 426.143 86.6683 426.431C86.8603 426.719 87.1243 426.863 87.4603 426.863Z" fill="#2B3034" fill-opacity="0.4"/>
<g opacity="0.7">
<path fill-rule="evenodd" clip-rule="evenodd" d="M152.301 415.338H1115.29H152.301Z" fill="white"/>
<path d="M152.301 415.338H1115.29" stroke="#EAEAEA" stroke-linecap="square"/>
<path fill-rule="evenodd" clip-rule="evenodd" d="M152.301 353.149H1115.29H152.301Z" fill="white"/>
<path d="M152.301 353.149H1115.29" stroke="#EAEAEA" stroke-linecap="square"/>
<path fill-rule="evenodd" clip-rule="evenodd" d="M152.301 290.96H1115.29H152.301Z" fill="white"/>
<path d="M152.301 290.96H1115.29" stroke="#EAEAEA" stroke-linecap="square"/>
<path fill-rule="evenodd" clip-rule="evenodd" d="M152.301 228.77H1115.29H152.301Z" fill="white"/>
<path d="M152.301 228.77H1115.29" stroke="#EAEAEA" stroke-linecap="square"/>
<path fill-rule="evenodd" clip-rule="evenodd" d="M152.301 166.581H1115.29H152.301Z" fill="white"/>
<path d="M152.301 166.581H1115.29" stroke="#EAEAEA" stroke-linecap="square"/>
</g>
<path d="M83.2723 356.406V354.69H79.4683V353.766L83.4883 347.946H84.5083V353.646H85.7443V354.69H84.5083V356.406H83.2723ZM83.2723 353.646V349.89L80.7043 353.646H83.2723ZM89.6996 356.514C88.7156 356.514 87.9636 356.142 87.4436 355.398C86.9316 354.646 86.6756 353.57 86.6756 352.17C86.6756 350.746 86.9316 349.67 87.4436 348.942C87.9636 348.206 88.7156 347.838 89.6996 347.838C90.6916 347.838 91.4436 348.206 91.9556 348.942C92.4676 349.67 92.7236 350.742 92.7236 352.158C92.7236 353.566 92.4636 354.646 91.9436 355.398C91.4316 356.142 90.6836 356.514 89.6996 356.514ZM89.6996 355.482C90.3076 355.482 90.7596 355.214 91.0556 354.678C91.3516 354.142 91.4996 353.302 91.4996 352.158C91.4996 351.014 91.3516 350.182 91.0556 349.662C90.7676 349.134 90.3156 348.87 89.6996 348.87C89.0916 348.87 88.6396 349.134 88.3436 349.662C88.0476 350.19 87.8996 351.022 87.8996 352.158C87.8996 353.302 88.0476 354.142 88.3436 354.678C88.6396 355.214 89.0916 355.482 89.6996 355.482ZM82.4563 365.718L81.6403 365.238L86.5963 356.634L87.4123 357.114L82.4563 365.718ZM81.5923 362.01C80.9363 362.01 80.4243 361.782 80.0563 361.326C79.6883 360.862 79.5043 360.226 79.5043 359.418C79.5043 358.61 79.6883 357.978 80.0563 357.522C80.4323 357.066 80.9443 356.838 81.5923 356.838C82.2403 356.838 82.7483 357.066 83.1163 357.522C83.4923 357.978 83.6803 358.61 83.6803 359.418C83.6803 360.226 83.4963 360.862 83.1283 361.326C82.7603 361.782 82.2483 362.01 81.5923 362.01ZM81.5923 361.158C81.9283 361.158 82.1883 361.014 82.3723 360.726C82.5643 360.438 82.6603 360.002 82.6603 359.418C82.6603 358.834 82.5643 358.398 82.3723 358.11C82.1883 357.822 81.9283 357.678 81.5923 357.678C81.2563 357.678 80.9923 357.822 80.8003 358.11C80.6163 358.398 80.5243 358.834 80.5243 359.418C80.5243 360.01 80.6163 360.45 80.8003 360.738C80.9923 361.018 81.2563 361.158 81.5923 361.158ZM87.4603 365.514C86.8123 365.514 86.3043 365.286 85.9363 364.83C85.5683 364.374 85.3843 363.738 85.3843 362.922C85.3843 362.122 85.5683 361.494 85.9363 361.038C86.3043 360.574 86.8123 360.342 87.4603 360.342C88.1163 360.342 88.6283 360.574 88.9963 361.038C89.3643 361.494 89.5483 362.122 89.5483 362.922C89.5483 363.738 89.3643 364.374 88.9963 364.83C88.6283 365.286 88.1163 365.514 87.4603 365.514ZM87.4603 364.674C87.7963 364.674 88.0563 364.53 88.2403 364.242C88.4323 363.954 88.5283 363.514 88.5283 362.922C88.5283 362.346 88.4323 361.914 88.2403 361.626C88.0563 361.338 87.7963 361.194 87.4603 361.194C87.1243 361.194 86.8603 361.338 86.6683 361.626C86.4843 361.906 86.3923 362.338 86.3923 362.922C86.3923 363.514 86.4843 363.954 86.6683 364.242C86.8603 364.53 87.1243 364.674 87.4603 364.674Z" fill="#2B3034" fill-opacity="0.4"/>
<path d="M82.8043 294.324C81.7803 294.324 80.9883 293.96 80.4283 293.232C79.8763 292.504 79.6003 291.484 79.6003 290.172C79.6003 288.724 79.9123 287.608 80.5363 286.824C81.1603 286.04 82.0243 285.648 83.1283 285.648C83.5603 285.648 83.9963 285.736 84.4363 285.912C84.8763 286.08 85.2443 286.32 85.5403 286.632L85.1083 287.568C84.8203 287.28 84.5003 287.064 84.1483 286.92C83.8043 286.776 83.4563 286.704 83.1043 286.704C82.3603 286.704 81.7883 286.976 81.3883 287.52C80.9963 288.056 80.8003 288.86 80.8003 289.932V290.412C80.9603 289.924 81.2363 289.544 81.6283 289.272C82.0283 288.992 82.4883 288.852 83.0083 288.852C83.5043 288.852 83.9403 288.968 84.3163 289.2C84.7003 289.432 85.0003 289.752 85.2163 290.16C85.4323 290.56 85.5403 291.02 85.5403 291.54C85.5403 292.084 85.4243 292.568 85.1923 292.992C84.9603 293.408 84.6363 293.736 84.2203 293.976C83.8123 294.208 83.3403 294.324 82.8043 294.324ZM82.7323 293.316C83.2203 293.316 83.6163 293.156 83.9203 292.836C84.2243 292.516 84.3763 292.1 84.3763 291.588C84.3763 291.076 84.2243 290.66 83.9203 290.34C83.6163 290.02 83.2203 289.86 82.7323 289.86C82.2443 289.86 81.8483 290.02 81.5443 290.34C81.2403 290.66 81.0883 291.076 81.0883 291.588C81.0883 292.1 81.2403 292.516 81.5443 292.836C81.8483 293.156 82.2443 293.316 82.7323 293.316ZM89.6996 294.324C88.7156 294.324 87.9636 293.952 87.4436 293.208C86.9316 292.456 86.6756 291.38 86.6756 289.98C86.6756 288.556 86.9316 287.48 87.4436 286.752C87.9636 286.016 88.7156 285.648 89.6996 285.648C90.6916 285.648 91.4436 286.016 91.9556 286.752C92.4676 287.48 92.7236 288.552 92.7236 289.968C92.7236 291.376 92.4636 292.456 91.9436 293.208C91.4316 293.952 90.6836 294.324 89.6996 294.324ZM89.6996 293.292C90.3076 293.292 90.7596 293.024 91.0556 292.488C91.3516 291.952 91.4996 291.112 91.4996 289.968C91.4996 288.824 91.3516 287.992 91.0556 287.472C90.7676 286.944 90.3156 286.68 89.6996 286.68C89.0916 286.68 88.6396 286.944 88.3436 287.472C88.0476 288 87.8996 288.832 87.8996 289.968C87.8996 291.112 88.0476 291.952 88.3436 292.488C88.6396 293.024 89.0916 293.292 89.6996 293.292ZM82.4563 303.528L81.6403 303.048L86.5963 294.444L87.4123 294.924L82.4563 303.528ZM81.5923 299.82C80.9363 299.82 80.4243 299.592 80.0563 299.136C79.6883 298.672 79.5043 298.036 79.5043 297.228C79.5043 296.42 79.6883 295.788 80.0563 295.332C80.4323 294.876 80.9443 294.648 81.5923 294.648C82.2403 294.648 82.7483 294.876 83.1163 295.332C83.4923 295.788 83.6803 296.42 83.6803 297.228C83.6803 298.036 83.4963 298.672 83.1283 299.136C82.7603 299.592 82.2483 299.82 81.5923 299.82ZM81.5923 298.968C81.9283 298.968 82.1883 298.824 82.3723 298.536C82.5643 298.248 82.6603 297.812 82.6603 297.228C82.6603 296.644 82.5643 296.208 82.3723 295.92C82.1883 295.632 81.9283 295.488 81.5923 295.488C81.2563 295.488 80.9923 295.632 80.8003 295.92C80.6163 296.208 80.5243 296.644 80.5243 297.228C80.5243 297.82 80.6163 298.26 80.8003 298.548C80.9923 298.828 81.2563 298.968 81.5923 298.968ZM87.4603 303.324C86.8123 303.324 86.3043 303.096 85.9363 302.64C85.5683 302.184 85.3843 301.548 85.3843 300.732C85.3843 299.932 85.5683 299.304 85.9363 298.848C86.3043 298.384 86.8123 298.152 87.4603 298.152C88.1163 298.152 88.6283 298.384 88.9963 298.848C89.3643 299.304 89.5483 299.932 89.5483 300.732C89.5483 301.548 89.3643 302.184 88.9963 302.64C88.6283 303.096 88.1163 303.324 87.4603 303.324ZM87.4603 302.484C87.7963 302.484 88.0563 302.34 88.2403 302.052C88.4323 301.764 88.5283 301.324 88.5283 300.732C88.5283 300.156 88.4323 299.724 88.2403 299.436C88.0563 299.148 87.7963 299.004 87.4603 299.004C87.1243 299.004 86.8603 299.148 86.6683 299.436C86.4843 299.716 86.3923 300.148 86.3923 300.732C86.3923 301.324 86.4843 301.764 86.6683 302.052C86.8603 302.34 87.1243 302.484 87.4603 302.484Z" fill="#2B3034" fill-opacity="0.4"/>
<path d="M82.5043 232.135C81.5363 232.135 80.7803 231.927 80.2363 231.511C79.7003 231.095 79.4323 230.515 79.4323 229.771C79.4323 229.251 79.5683 228.811 79.8403 228.451C80.1203 228.083 80.4843 227.831 80.9323 227.695C80.5323 227.527 80.2163 227.271 79.9843 226.927C79.7523 226.575 79.6363 226.171 79.6363 225.715C79.6363 225.011 79.8963 224.459 80.4163 224.059C80.9363 223.659 81.6323 223.459 82.5043 223.459C83.3843 223.459 84.0843 223.659 84.6043 224.059C85.1243 224.459 85.3843 225.011 85.3843 225.715C85.3843 226.171 85.2643 226.575 85.0243 226.927C84.7923 227.279 84.4763 227.535 84.0763 227.695C84.5323 227.831 84.8963 228.083 85.1683 228.451C85.4403 228.811 85.5763 229.251 85.5763 229.771C85.5763 230.515 85.3043 231.095 84.7603 231.511C84.2243 231.927 83.4723 232.135 82.5043 232.135ZM82.5043 227.251C83.0403 227.251 83.4563 227.127 83.7523 226.879C84.0563 226.623 84.2083 226.275 84.2083 225.835C84.2083 225.403 84.0563 225.063 83.7523 224.815C83.4563 224.567 83.0403 224.443 82.5043 224.443C81.9683 224.443 81.5523 224.567 81.2563 224.815C80.9603 225.063 80.8123 225.403 80.8123 225.835C80.8123 226.275 80.9603 226.623 81.2563 226.879C81.5523 227.127 81.9683 227.251 82.5043 227.251ZM82.5043 231.151C83.7763 231.151 84.4123 230.663 84.4123 229.687C84.4123 228.719 83.7763 228.235 82.5043 228.235C81.8803 228.235 81.4043 228.355 81.0763 228.595C80.7563 228.835 80.5963 229.199 80.5963 229.687C80.5963 230.663 81.2323 231.151 82.5043 231.151ZM89.6996 232.135C88.7156 232.135 87.9636 231.763 87.4436 231.019C86.9316 230.267 86.6756 229.191 86.6756 227.791C86.6756 226.367 86.9316 225.291 87.4436 224.563C87.9636 223.827 88.7156 223.459 89.6996 223.459C90.6916 223.459 91.4436 223.827 91.9556 224.563C92.4676 225.291 92.7236 226.363 92.7236 227.779C92.7236 229.187 92.4636 230.267 91.9436 231.019C91.4316 231.763 90.6836 232.135 89.6996 232.135ZM89.6996 231.103C90.3076 231.103 90.7596 230.835 91.0556 230.299C91.3516 229.763 91.4996 228.923 91.4996 227.779C91.4996 226.635 91.3516 225.803 91.0556 225.283C90.7676 224.755 90.3156 224.491 89.6996 224.491C89.0916 224.491 88.6396 224.755 88.3436 225.283C88.0476 225.811 87.8996 226.643 87.8996 227.779C87.8996 228.923 88.0476 229.763 88.3436 230.299C88.6396 230.835 89.0916 231.103 89.6996 231.103ZM82.4563 241.339L81.6403 240.859L86.5963 232.255L87.4123 232.735L82.4563 241.339ZM81.5923 237.631C80.9363 237.631 80.4243 237.403 80.0563 236.947C79.6883 236.483 79.5043 235.847 79.5043 235.039C79.5043 234.231 79.6883 233.599 80.0563 233.143C80.4323 232.687 80.9443 232.459 81.5923 232.459C82.2403 232.459 82.7483 232.687 83.1163 233.143C83.4923 233.599 83.6803 234.231 83.6803 235.039C83.6803 235.847 83.4963 236.483 83.1283 236.947C82.7603 237.403 82.2483 237.631 81.5923 237.631ZM81.5923 236.779C81.9283 236.779 82.1883 236.635 82.3723 236.347C82.5643 236.059 82.6603 235.623 82.6603 235.039C82.6603 234.455 82.5643 234.019 82.3723 233.731C82.1883 233.443 81.9283 233.299 81.5923 233.299C81.2563 233.299 80.9923 233.443 80.8003 233.731C80.6163 234.019 80.5243 234.455 80.5243 235.039C80.5243 235.631 80.6163 236.071 80.8003 236.359C80.9923 236.639 81.2563 236.779 81.5923 236.779ZM87.4603 241.135C86.8123 241.135 86.3043 240.907 85.9363 240.451C85.5683 239.995 85.3843 239.359 85.3843 238.543C85.3843 237.743 85.5683 237.115 85.9363 236.659C86.3043 236.195 86.8123 235.963 87.4603 235.963C88.1163 235.963 88.6283 236.195 88.9963 236.659C89.3643 237.115 89.5483 237.743 89.5483 238.543C89.5483 239.359 89.3643 239.995 88.9963 240.451C88.6283 240.907 88.1163 241.135 87.4603 241.135ZM87.4603 240.295C87.7963 240.295 88.0563 240.151 88.2403 239.863C88.4323 239.575 88.5283 239.135 88.5283 238.543C88.5283 237.967 88.4323 237.535 88.2403 237.247C88.0563 236.959 87.7963 236.815 87.4603 236.815C87.1243 236.815 86.8603 236.959 86.6683 237.247C86.4843 237.527 86.3923 237.959 86.3923 238.543C86.3923 239.135 86.4843 239.575 86.6683 239.863C86.8603 240.151 87.1243 240.295 87.4603 240.295Z" fill="#2B3034" fill-opacity="0.4"/>
<path d="M80.3083 169.838V168.794H82.2283V162.818L80.7283 163.754L80.2243 162.83L82.5883 161.378H83.4643V168.794H85.2643V169.838H80.3083ZM89.6996 169.946C88.7156 169.946 87.9636 169.574 87.4436 168.83C86.9316 168.078 86.6756 167.002 86.6756 165.602C86.6756 164.178 86.9316 163.102 87.4436 162.374C87.9636 161.638 88.7156 161.27 89.6996 161.27C90.6916 161.27 91.4436 161.638 91.9556 162.374C92.4676 163.102 92.7236 164.174 92.7236 165.59C92.7236 166.998 92.4636 168.078 91.9436 168.83C91.4316 169.574 90.6836 169.946 89.6996 169.946ZM89.6996 168.914C90.3076 168.914 90.7596 168.646 91.0556 168.11C91.3516 167.574 91.4996 166.734 91.4996 165.59C91.4996 164.446 91.3516 163.614 91.0556 163.094C90.7676 162.566 90.3156 162.302 89.6996 162.302C89.0916 162.302 88.6396 162.566 88.3436 163.094C88.0476 163.622 87.8996 164.454 87.8996 165.59C87.8996 166.734 88.0476 167.574 88.3436 168.11C88.6396 168.646 89.0916 168.914 89.6996 168.914ZM96.8949 169.946C95.9109 169.946 95.1589 169.574 94.6389 168.83C94.1269 168.078 93.8709 167.002 93.8709 165.602C93.8709 164.178 94.1269 163.102 94.6389 162.374C95.1589 161.638 95.9109 161.27 96.8949 161.27C97.8869 161.27 98.6389 161.638 99.1509 162.374C99.6629 163.102 99.9189 164.174 99.9189 165.59C99.9189 166.998 99.6589 168.078 99.1389 168.83C98.6269 169.574 97.8789 169.946 96.8949 169.946ZM96.8949 168.914C97.5029 168.914 97.9549 168.646 98.2509 168.11C98.5469 167.574 98.6949 166.734 98.6949 165.59C98.6949 164.446 98.5469 163.614 98.2509 163.094C97.9629 162.566 97.5109 162.302 96.8949 162.302C96.2869 162.302 95.8349 162.566 95.5389 163.094C95.2429 163.622 95.0949 164.454 95.0949 165.59C95.0949 166.734 95.2429 167.574 95.5389 168.11C95.8349 168.646 96.2869 168.914 96.8949 168.914ZM82.4563 179.15L81.6403 178.67L86.5963 170.066L87.4123 170.546L82.4563 179.15ZM81.5923 175.442C80.9363 175.442 80.4243 175.214 80.0563 174.758C79.6883 174.294 79.5043 173.658 79.5043 172.85C79.5043 172.042 79.6883 171.41 80.0563 170.954C80.4323 170.498 80.9443 170.27 81.5923 170.27C82.2403 170.27 82.7483 170.498 83.1163 170.954C83.4923 171.41 83.6803 172.042 83.6803 172.85C83.6803 173.658 83.4963 174.294 83.1283 174.758C82.7603 175.214 82.2483 175.442 81.5923 175.442ZM81.5923 174.59C81.9283 174.59 82.1883 174.446 82.3723 174.158C82.5643 173.87 82.6603 173.434 82.6603 172.85C82.6603 172.266 82.5643 171.83 82.3723 171.542C82.1883 171.254 81.9283 171.11 81.5923 171.11C81.2563 171.11 80.9923 171.254 80.8003 171.542C80.6163 171.83 80.5243 172.266 80.5243 172.85C80.5243 173.442 80.6163 173.882 80.8003 174.17C80.9923 174.45 81.2563 174.59 81.5923 174.59ZM87.4603 178.946C86.8123 178.946 86.3043 178.718 85.9363 178.262C85.5683 177.806 85.3843 177.17 85.3843 176.354C85.3843 175.554 85.5683 174.926 85.9363 174.47C86.3043 174.006 86.8123 173.774 87.4603 173.774C88.1163 173.774 88.6283 174.006 88.9963 174.47C89.3643 174.926 89.5483 175.554 89.5483 176.354C89.5483 177.17 89.3643 177.806 88.9963 178.262C88.6283 178.718 88.1163 178.946 87.4603 178.946ZM87.4603 178.106C87.7963 178.106 88.0563 177.962 88.2403 177.674C88.4323 177.386 88.5283 176.946 88.5283 176.354C88.5283 175.778 88.4323 175.346 88.2403 175.058C88.0563 174.77 87.7963 174.626 87.4603 174.626C87.1243 174.626 86.8603 174.77 86.6683 175.058C86.4843 175.338 86.3923 175.77 86.3923 176.354C86.3923 176.946 86.4843 177.386 86.6683 177.674C86.8603 177.962 87.1243 178.106 87.4603 178.106Z" fill="#2B3034" fill-opacity="0.4"/>
<path fill-rule="evenodd" clip-rule="evenodd" d="M152.299 419.027L158.399 396.245L179.786 395.266L194.736 386.721L210.365 386.251L221.754 373.686L231.771 341.021L238.193 329.333L255.343 353.712L269.291 357.422L279.497 350.344L291.811 319.146L327.119 382.403L341.655 355.158L358.321 368.833L367.305 347.983L369.057 337.98L382.586 327.764L389.573 313.882L397.295 333.274L396.017 346.006L403.141 347.89L408.668 342.222L423.093 214.165L436.522 370.157L448.48 353.384V343.805L458.702 333.906L463.488 326.318L472.296 314.907L493.234 326.806L503.658 333.274L512.072 329.087L526.748 347.904L548.096 310.921L554.342 331.089L567.728 345.04L580.704 340.572L586.764 331.086L596.466 326.801L597.688 318.656L608.759 298.63L625.012 304.318L629.968 286.518L652.255 403.28L668.144 379.931L689.082 378.298L714.172 394.87L723.92 330.227L736.148 333.866L741.903 326.268L745.144 328.695L751.227 327.954L754.703 331.223L764.359 333.356L764.532 340.589L776.074 345.174L790.497 344.159L791.254 332.052L780.386 252.816L805.713 285.301L818.386 296.216L850.096 273.895L867.99 289.767H873.716H880.174L888.03 299.721L897.572 310.921L948.544 314.907L956.736 298.63L991.089 345.034L1010.86 304.318L1031.18 318.607L1050.36 300.637L1071.58 314.907L1087.61 324.218L1096.61 321.372L1106.55 313.882L1116.1 304.318V419.027H232.074H152.299Z" fill="url(#paint0_linear_169_2970)"/>
<path d="M152.299 420.081L158.463 396.442L179.847 395.462L194.794 386.905L210.42 386.435L221.807 373.853L231.823 341.142L238.376 329.438L255.391 353.851L269.337 357.566L279.541 350.479L291.664 318.747L327.155 382.581L341.689 355.298L358.353 368.992L367.334 348.114L369.087 338.097L382.613 327.867L389.599 313.966L397.319 333.384L396.042 346.135L403.164 348.021L408.691 342.345L423.093 214.165L436.54 370.319L448.496 353.522V343.93L458.717 334.018L463.502 326.42L472.308 314.993L493.243 326.908L503.665 333.384L512.078 329.192L526.752 348.034L548.096 311.001L554.341 331.196L567.724 345.167L580.698 340.693L586.758 331.194L596.458 326.903L597.68 318.747L608.749 298.693L625 304.389L630.047 288.499L652.238 403.487L668.124 380.106L689.059 378.471L714.145 395.065L723.891 330.333L736.117 333.977L741.871 326.37L745.112 328.8L751.194 328.058L754.669 331.331L764.324 333.466L764.496 340.709L776.037 345.301L790.457 344.285L791.214 332.161L780.386 252.816L805.67 285.346L818.342 296.276L850.047 273.925L867.678 289.818H879.856L897.495 311.001L921.423 314.993H948.196L956.385 298.693L975.146 324.19L990.724 346.135L1010.96 304.389C1010.96 304.389 1029.47 319.834 1031.6 318.747C1033.73 317.659 1051.42 300.603 1051.42 300.603L1068.59 313.966L1089.1 326.42L1106.14 314.993L1114.17 304.389H1111.86H1113.1" stroke="#4379EE" stroke-width="1.5"/>
<path fill-rule="evenodd" clip-rule="evenodd" d="M384.073 175.432C384.073 174.328 384.969 173.432 386.073 173.432H459.332C460.436 173.432 461.332 174.328 461.332 175.432V194.622C461.332 195.726 460.436 196.622 459.332 196.622H428.497L422.702 202.922L416.908 196.622H386.073C384.969 196.622 384.073 195.726 384.073 194.622V175.432Z" fill="#4880FF"/>
<path d="M397.642 187.661C396.594 187.661 395.782 187.293 395.206 186.557C394.638 185.821 394.354 184.789 394.354 183.461C394.354 182.029 394.674 180.921 395.314 180.137C395.962 179.353 396.854 178.961 397.99 178.961C398.438 178.961 398.882 179.045 399.322 179.213C399.762 179.373 400.138 179.605 400.45 179.909L399.946 181.061C399.65 180.789 399.334 180.589 398.998 180.461C398.662 180.325 398.318 180.257 397.966 180.257C397.27 180.257 396.738 180.501 396.37 180.989C396.002 181.477 395.818 182.205 395.818 183.173V183.521C395.986 183.081 396.258 182.737 396.634 182.489C397.01 182.241 397.442 182.117 397.93 182.117C398.418 182.117 398.85 182.233 399.226 182.465C399.602 182.697 399.898 183.017 400.114 183.425C400.33 183.833 400.438 184.301 400.438 184.829C400.438 185.373 400.318 185.861 400.078 186.293C399.846 186.717 399.518 187.053 399.094 187.301C398.678 187.541 398.194 187.661 397.642 187.661ZM397.558 186.437C397.99 186.437 398.338 186.297 398.602 186.017C398.874 185.729 399.01 185.353 399.01 184.889C399.01 184.425 398.874 184.049 398.602 183.761C398.338 183.473 397.99 183.329 397.558 183.329C397.126 183.329 396.774 183.473 396.502 183.761C396.238 184.049 396.106 184.425 396.106 184.889C396.106 185.353 396.238 185.729 396.502 186.017C396.774 186.297 397.126 186.437 397.558 186.437ZM405.114 187.541V185.933H401.43V184.805L405.378 179.081H406.65V184.661H407.838V185.933H406.65V187.541H405.114ZM405.114 184.661V181.433L402.906 184.661H405.114ZM409.501 189.137L408.889 188.657C409.089 188.457 409.237 188.265 409.333 188.081C409.437 187.905 409.509 187.725 409.549 187.541H408.769V185.873H410.449V186.977C410.449 187.385 410.377 187.757 410.233 188.093C410.097 188.437 409.853 188.785 409.501 189.137ZM414.53 187.661C413.954 187.661 413.402 187.577 412.874 187.409C412.354 187.233 411.922 186.997 411.578 186.701L412.082 185.525C412.802 186.085 413.602 186.365 414.482 186.365C415.562 186.365 416.102 185.941 416.102 185.093C416.102 184.693 415.966 184.397 415.694 184.205C415.43 184.005 415.042 183.905 414.53 183.905H413.174V182.633H414.386C414.834 182.633 415.19 182.525 415.454 182.309C415.718 182.085 415.85 181.777 415.85 181.385C415.85 181.017 415.726 180.737 415.478 180.545C415.238 180.353 414.886 180.257 414.422 180.257C413.59 180.257 412.858 180.545 412.226 181.121L411.722 179.969C412.058 179.649 412.478 179.401 412.982 179.225C413.486 179.049 414.01 178.961 414.554 178.961C415.434 178.961 416.118 179.161 416.606 179.561C417.094 179.953 417.338 180.501 417.338 181.205C417.338 181.661 417.222 182.061 416.99 182.405C416.758 182.749 416.442 182.997 416.042 183.149C416.53 183.285 416.91 183.537 417.182 183.905C417.454 184.265 417.59 184.705 417.59 185.225C417.59 185.977 417.318 186.573 416.774 187.013C416.23 187.445 415.482 187.661 414.53 187.661ZM422.205 187.661C421.157 187.661 420.345 187.293 419.769 186.557C419.201 185.821 418.917 184.789 418.917 183.461C418.917 182.029 419.237 180.921 419.877 180.137C420.525 179.353 421.417 178.961 422.553 178.961C423.001 178.961 423.445 179.045 423.885 179.213C424.325 179.373 424.701 179.605 425.013 179.909L424.509 181.061C424.213 180.789 423.897 180.589 423.561 180.461C423.225 180.325 422.881 180.257 422.529 180.257C421.833 180.257 421.301 180.501 420.933 180.989C420.565 181.477 420.381 182.205 420.381 183.173V183.521C420.549 183.081 420.821 182.737 421.197 182.489C421.573 182.241 422.005 182.117 422.493 182.117C422.981 182.117 423.413 182.233 423.789 182.465C424.165 182.697 424.461 183.017 424.677 183.425C424.893 183.833 425.001 184.301 425.001 184.829C425.001 185.373 424.881 185.861 424.641 186.293C424.409 186.717 424.081 187.053 423.657 187.301C423.241 187.541 422.757 187.661 422.205 187.661ZM422.121 186.437C422.553 186.437 422.901 186.297 423.165 186.017C423.437 185.729 423.573 185.353 423.573 184.889C423.573 184.425 423.437 184.049 423.165 183.761C422.901 183.473 422.553 183.329 422.121 183.329C421.689 183.329 421.337 183.473 421.065 183.761C420.801 184.049 420.669 184.425 420.669 184.889C420.669 185.353 420.801 185.729 421.065 186.017C421.337 186.297 421.689 186.437 422.121 186.437ZM429.4 187.661C428.352 187.661 427.54 187.293 426.964 186.557C426.396 185.821 426.112 184.789 426.112 183.461C426.112 182.029 426.432 180.921 427.072 180.137C427.72 179.353 428.612 178.961 429.748 178.961C430.196 178.961 430.64 179.045 431.08 179.213C431.52 179.373 431.896 179.605 432.208 179.909L431.704 181.061C431.408 180.789 431.092 180.589 430.756 180.461C430.42 180.325 430.076 180.257 429.724 180.257C429.028 180.257 428.496 180.501 428.128 180.989C427.76 181.477 427.576 182.205 427.576 183.173V183.521C427.744 183.081 428.016 182.737 428.392 182.489C428.768 182.241 429.2 182.117 429.688 182.117C430.176 182.117 430.608 182.233 430.984 182.465C431.36 182.697 431.656 183.017 431.872 183.425C432.088 183.833 432.196 184.301 432.196 184.829C432.196 185.373 432.076 185.861 431.836 186.293C431.604 186.717 431.276 187.053 430.852 187.301C430.436 187.541 429.952 187.661 429.4 187.661ZM429.316 186.437C429.748 186.437 430.096 186.297 430.36 186.017C430.632 185.729 430.768 185.353 430.768 184.889C430.768 184.425 430.632 184.049 430.36 183.761C430.096 183.473 429.748 183.329 429.316 183.329C428.884 183.329 428.532 183.473 428.26 183.761C427.996 184.049 427.864 184.425 427.864 184.889C427.864 185.353 427.996 185.729 428.26 186.017C428.532 186.297 428.884 186.437 429.316 186.437ZM436.872 187.541V185.933H433.188V184.805L437.136 179.081H438.408V184.661H439.596V185.933H438.408V187.541H436.872ZM436.872 184.661V181.433L434.664 184.661H436.872ZM394.378 203.541V201.873H396.058V203.541H394.378ZM397.739 203.541L401.555 196.365H397.367V195.081H403.259V196.233L399.431 203.541H397.739ZM404.934 203.541L408.75 196.365H404.562V195.081H410.454V196.233L406.626 203.541H404.934Z" fill="white"/>
<path fill-rule="evenodd" clip-rule="evenodd" d="M422.704 213.486C424.837 213.486 426.567 211.599 426.567 209.27C426.567 206.942 424.837 205.054 422.704 205.054C420.57 205.054 418.841 206.942 418.841 209.27C418.841 211.599 420.57 213.486 422.704 213.486Z" fill="#4880FF"/>
<path fill-rule="evenodd" clip-rule="evenodd" d="M389.869 317.838C392.002 317.838 393.732 315.95 393.732 313.621C393.732 311.293 392.002 309.405 389.869 309.405C387.735 309.405 386.006 311.293 386.006 313.621C386.006 315.95 387.735 317.838 389.869 317.838Z" fill="#4379EE"/>
<path fill-rule="evenodd" clip-rule="evenodd" d="M327.095 385.297C329.229 385.297 330.958 383.41 330.958 381.081C330.958 378.752 329.229 376.865 327.095 376.865C324.962 376.865 323.232 378.752 323.232 381.081C323.232 383.41 324.962 385.297 327.095 385.297Z" fill="#4379EE"/>
<path fill-rule="evenodd" clip-rule="evenodd" d="M292.33 322.054C294.463 322.054 296.193 320.166 296.193 317.838C296.193 315.509 294.463 313.622 292.33 313.622C290.196 313.622 288.467 315.509 288.467 317.838C288.467 320.166 290.196 322.054 292.33 322.054Z" fill="#4379EE"/>
<path fill-rule="evenodd" clip-rule="evenodd" d="M238.25 331.541C240.383 331.541 242.113 329.653 242.113 327.324C242.113 324.996 240.383 323.108 238.25 323.108C236.116 323.108 234.387 324.996 234.387 327.324C234.387 329.653 236.116 331.541 238.25 331.541Z" fill="#4379EE"/>
<path fill-rule="evenodd" clip-rule="evenodd" d="M209.277 389.513C211.41 389.513 213.14 387.626 213.14 385.297C213.14 382.969 211.41 381.081 209.277 381.081C207.144 381.081 205.414 382.969 205.414 385.297C205.414 387.626 207.144 389.513 209.277 389.513Z" fill="#4379EE"/>
<path fill-rule="evenodd" clip-rule="evenodd" d="M153.265 421.135C155.399 421.135 157.128 419.247 157.128 416.919C157.128 414.59 155.399 412.703 153.265 412.703C151.132 412.703 149.402 414.59 149.402 416.919C149.402 419.247 151.132 421.135 153.265 421.135Z" fill="#4379EE"/>
<path fill-rule="evenodd" clip-rule="evenodd" d="M471.956 318.892C474.089 318.892 475.819 317.004 475.819 314.676C475.819 312.347 474.089 310.459 471.956 310.459C469.822 310.459 468.093 312.347 468.093 314.676C468.093 317.004 469.822 318.892 471.956 318.892Z" fill="#4379EE"/>
<path fill-rule="evenodd" clip-rule="evenodd" d="M548.249 312.567C550.382 312.567 552.112 310.68 552.112 308.351C552.112 306.023 550.382 304.135 548.249 304.135C546.115 304.135 544.386 306.023 544.386 308.351C544.386 310.68 546.115 312.567 548.249 312.567Z" fill="#4379EE"/>
<path fill-rule="evenodd" clip-rule="evenodd" d="M630.336 290.432C632.469 290.432 634.198 288.545 634.198 286.216C634.198 283.888 632.469 282 630.336 282C628.202 282 626.473 283.888 626.473 286.216C626.473 288.545 628.202 290.432 630.336 290.432Z" fill="#4379EE"/>
<path fill-rule="evenodd" clip-rule="evenodd" d="M651.582 406.378C653.715 406.378 655.445 404.491 655.445 402.162C655.445 399.833 653.715 397.946 651.582 397.946C649.448 397.946 647.719 399.833 647.719 402.162C647.719 404.491 649.448 406.378 651.582 406.378Z" fill="#4379EE"/>
<path fill-rule="evenodd" clip-rule="evenodd" d="M714.354 397.946C716.488 397.946 718.217 396.058 718.217 393.73C718.217 391.401 716.488 389.513 714.354 389.513C712.221 389.513 710.491 391.401 710.491 393.73C710.491 396.058 712.221 397.946 714.354 397.946Z" fill="#4379EE"/>
<path fill-rule="evenodd" clip-rule="evenodd" d="M780.99 256.703C783.123 256.703 784.853 254.815 784.853 252.486C784.853 250.158 783.123 248.27 780.99 248.27C778.856 248.27 777.127 250.158 777.127 252.486C777.127 254.815 778.856 256.703 780.99 256.703Z" fill="#4379EE"/>
<path fill-rule="evenodd" clip-rule="evenodd" d="M789.681 346.297C791.815 346.297 793.544 344.41 793.544 342.081C793.544 339.752 791.815 337.865 789.681 337.865C787.548 337.865 785.818 339.752 785.818 342.081C785.818 344.41 787.548 346.297 789.681 346.297Z" fill="#4379EE"/>
<path fill-rule="evenodd" clip-rule="evenodd" d="M817.687 298.865C819.821 298.865 821.55 296.977 821.55 294.649C821.55 292.32 819.821 290.432 817.687 290.432C815.554 290.432 813.824 292.32 813.824 294.649C813.824 296.977 815.554 298.865 817.687 298.865Z" fill="#4379EE"/>
<path fill-rule="evenodd" clip-rule="evenodd" d="M848.589 277.784C850.723 277.784 852.452 275.896 852.452 273.568C852.452 271.239 850.723 269.351 848.589 269.351C846.456 269.351 844.727 271.239 844.727 273.568C844.727 275.896 846.456 277.784 848.589 277.784Z" fill="#4379EE"/>
<path fill-rule="evenodd" clip-rule="evenodd" d="M956.752 302.027C958.885 302.027 960.615 300.139 960.615 297.811C960.615 295.482 958.885 293.594 956.752 293.594C954.618 293.594 952.889 295.482 952.889 297.811C952.889 300.139 954.618 302.027 956.752 302.027Z" fill="#4379EE"/>
<path fill-rule="evenodd" clip-rule="evenodd" d="M990.552 350.513C992.686 350.513 994.415 348.626 994.415 346.297C994.415 343.969 992.686 342.081 990.552 342.081C988.419 342.081 986.689 343.969 986.689 346.297C986.689 348.626 988.419 350.513 990.552 350.513Z" fill="#4379EE"/>
<path fill-rule="evenodd" clip-rule="evenodd" d="M1010.83 307.297C1012.97 307.297 1014.7 305.41 1014.7 303.081C1014.7 300.752 1012.97 298.865 1010.83 298.865C1008.7 298.865 1006.97 300.752 1006.97 303.081C1006.97 305.41 1008.7 307.297 1010.83 307.297Z" fill="#4379EE"/>
<path fill-rule="evenodd" clip-rule="evenodd" d="M1051.39 305.189C1053.53 305.189 1055.26 303.302 1055.26 300.973C1055.26 298.645 1053.53 296.757 1051.39 296.757C1049.26 296.757 1047.53 298.645 1047.53 300.973C1047.53 303.302 1049.26 305.189 1051.39 305.189Z" fill="#4379EE"/>
<rect x="1015.96" y="82.0297" width="99.8358" height="28.9135" rx="3.7" fill="#FCFDFD" stroke="#D5D5D5" stroke-width="0.6"/>
<path d="M1099.54 93.6071L1095.81 97.8501L1092.09 93.6071C1091.79 93.2381 1091.5 93.2304 1091.21 93.584C1090.91 93.9376 1090.91 94.2835 1091.21 94.6217L1095.37 99.4182C1095.48 99.5719 1095.63 99.6488 1095.81 99.6488C1096 99.6488 1096.15 99.5719 1096.25 99.4182L1100.42 94.6217C1100.72 94.2835 1100.72 93.9376 1100.42 93.584C1100.13 93.2304 1099.83 93.2381 1099.54 93.6071Z" fill="#2B3034" fill-opacity="0.4"/>
<path d="M1055.13 100.324C1054.32 100.324 1053.62 100.148 1053.03 99.7963C1052.44 99.4363 1051.98 98.9323 1051.65 98.2843C1051.33 97.6283 1051.17 96.8603 1051.17 95.9803C1051.17 95.0923 1051.33 94.3243 1051.65 93.6763C1051.98 93.0283 1052.44 92.5283 1053.03 92.1763C1053.62 91.8243 1054.32 91.6483 1055.13 91.6483C1055.93 91.6483 1056.62 91.8243 1057.22 92.1763C1057.82 92.5283 1058.28 93.0283 1058.6 93.6763C1058.92 94.3243 1059.09 95.0883 1059.09 95.9683C1059.09 96.8563 1058.92 97.6283 1058.6 98.2843C1058.28 98.9323 1057.82 99.4363 1057.22 99.7963C1056.62 100.148 1055.93 100.324 1055.13 100.324ZM1055.13 99.2443C1055.97 99.2443 1056.62 98.9603 1057.08 98.3923C1057.56 97.8163 1057.79 97.0123 1057.79 95.9803C1057.79 94.9483 1057.56 94.1483 1057.1 93.5803C1056.63 93.0123 1055.98 92.7283 1055.13 92.7283C1054.29 92.7283 1053.63 93.0123 1053.16 93.5803C1052.7 94.1483 1052.46 94.9483 1052.46 95.9803C1052.46 97.0123 1052.7 97.8163 1053.16 98.3923C1053.63 98.9603 1054.29 99.2443 1055.13 99.2443ZM1063.21 100.324C1062.61 100.324 1062.09 100.2 1061.65 99.9523C1061.22 99.6963 1060.88 99.3403 1060.64 98.8843C1060.4 98.4203 1060.28 97.8763 1060.28 97.2523C1060.28 96.3243 1060.55 95.5923 1061.07 95.0563C1061.6 94.5203 1062.31 94.2523 1063.21 94.2523C1063.58 94.2523 1063.94 94.3163 1064.3 94.4443C1064.66 94.5723 1064.96 94.7483 1065.19 94.9723L1064.81 95.8243C1064.58 95.6163 1064.33 95.4643 1064.06 95.3683C1063.8 95.2643 1063.55 95.2123 1063.31 95.2123C1062.74 95.2123 1062.3 95.3923 1061.99 95.7523C1061.68 96.1043 1061.53 96.6083 1061.53 97.2643C1061.53 97.9203 1061.68 98.4363 1061.99 98.8123C1062.3 99.1803 1062.74 99.3643 1063.31 99.3643C1063.55 99.3643 1063.8 99.3163 1064.06 99.2203C1064.33 99.1163 1064.58 98.9603 1064.81 98.7523L1065.19 99.6163C1064.96 99.8323 1064.66 100.004 1064.29 100.132C1063.93 100.26 1063.57 100.324 1063.21 100.324ZM1068.74 100.324C1068 100.324 1067.45 100.136 1067.09 99.7603C1066.73 99.3843 1066.55 98.8403 1066.55 98.1283V95.2963H1065.41V94.3603H1066.55V92.5963H1067.77V94.3603H1069.58V95.2963H1067.77V98.0323C1067.77 98.4563 1067.85 98.7763 1068.03 98.9923C1068.21 99.2083 1068.51 99.3163 1068.92 99.3163C1069.05 99.3163 1069.17 99.3043 1069.29 99.2803C1069.41 99.2483 1069.53 99.2123 1069.65 99.1723L1069.84 100.084C1069.72 100.156 1069.55 100.212 1069.34 100.252C1069.13 100.3 1068.93 100.324 1068.74 100.324ZM1073.11 100.324C1072.52 100.324 1072.01 100.2 1071.57 99.9523C1071.14 99.7043 1070.81 99.3563 1070.57 98.9083C1070.33 98.4523 1070.22 97.9123 1070.22 97.2883C1070.22 96.6643 1070.33 96.1283 1070.57 95.6803C1070.81 95.2243 1071.14 94.8723 1071.57 94.6243C1072.01 94.3763 1072.52 94.2523 1073.11 94.2523C1073.69 94.2523 1074.19 94.3763 1074.62 94.6243C1075.05 94.8723 1075.39 95.2243 1075.63 95.6803C1075.87 96.1283 1075.99 96.6643 1075.99 97.2883C1075.99 97.9123 1075.87 98.4523 1075.63 98.9083C1075.39 99.3563 1075.05 99.7043 1074.62 99.9523C1074.19 100.2 1073.69 100.324 1073.11 100.324ZM1073.11 99.3883C1073.61 99.3883 1074.01 99.2083 1074.31 98.8483C1074.61 98.4883 1074.77 97.9683 1074.77 97.2883C1074.77 96.6083 1074.61 96.0923 1074.31 95.7403C1074.01 95.3803 1073.61 95.2003 1073.11 95.2003C1072.61 95.2003 1072.2 95.3803 1071.9 95.7403C1071.59 96.0923 1071.44 96.6083 1071.44 97.2883C1071.44 97.9683 1071.59 98.4883 1071.9 98.8483C1072.2 99.2083 1072.61 99.3883 1073.11 99.3883ZM1062.48 110.324C1062.04 110.324 1061.64 110.224 1061.3 110.024C1060.95 109.824 1060.7 109.556 1060.53 109.22V110.216H1059.34V101.756H1060.55V105.308C1060.73 104.988 1060.98 104.732 1061.32 104.54C1061.66 104.348 1062.05 104.252 1062.48 104.252C1063 104.252 1063.46 104.376 1063.84 104.624C1064.23 104.872 1064.53 105.224 1064.74 105.68C1064.96 106.128 1065.06 106.664 1065.06 107.288C1065.06 107.912 1064.96 108.452 1064.74 108.908C1064.53 109.364 1064.23 109.716 1063.84 109.964C1063.46 110.204 1063 110.324 1062.48 110.324ZM1062.18 109.388C1062.69 109.388 1063.09 109.208 1063.38 108.848C1063.69 108.488 1063.84 107.968 1063.84 107.288C1063.84 106.608 1063.69 106.092 1063.38 105.74C1063.09 105.38 1062.69 105.2 1062.18 105.2C1061.68 105.2 1061.28 105.38 1060.97 105.74C1060.68 106.092 1060.53 106.608 1060.53 107.288C1060.53 107.968 1060.68 108.488 1060.97 108.848C1061.28 109.208 1061.68 109.388 1062.18 109.388ZM1069.18 110.324C1068.22 110.324 1067.46 110.056 1066.91 109.52C1066.36 108.976 1066.08 108.236 1066.08 107.3C1066.08 106.7 1066.2 106.172 1066.44 105.716C1066.69 105.252 1067.03 104.892 1067.46 104.636C1067.89 104.38 1068.39 104.252 1068.95 104.252C1069.76 104.252 1070.39 104.512 1070.86 105.032C1071.32 105.544 1071.55 106.252 1071.55 107.156V107.564H1067.26C1067.35 108.78 1067.99 109.388 1069.19 109.388C1069.53 109.388 1069.85 109.336 1070.17 109.232C1070.5 109.128 1070.81 108.956 1071.1 108.716L1071.46 109.556C1071.19 109.796 1070.85 109.984 1070.44 110.12C1070.02 110.256 1069.6 110.324 1069.18 110.324ZM1069 105.104C1068.49 105.104 1068.09 105.26 1067.8 105.572C1067.5 105.884 1067.32 106.3 1067.26 106.82H1070.53C1070.51 106.276 1070.37 105.856 1070.1 105.56C1069.84 105.256 1069.47 105.104 1069 105.104ZM1072.88 110.216V104.36H1074.05V105.404C1074.36 104.708 1074.99 104.32 1075.95 104.24L1076.34 104.216L1076.43 105.248L1075.7 105.32C1074.63 105.424 1074.1 105.972 1074.1 106.964V110.216H1072.88Z" fill="#2B3034" fill-opacity="0.4"/>
<path d="M80.848 105V88.08H87.136C89.968 88.08 92.152 88.808 93.688 90.264C95.24 91.72 96.016 93.808 96.016 96.528C96.016 99.232 95.24 101.32 93.688 102.792C92.152 104.264 89.968 105 87.136 105H80.848ZM83.92 102.456H86.944C90.848 102.456 92.8 100.48 92.8 96.528C92.8 92.592 90.848 90.624 86.944 90.624H83.92V102.456ZM104.625 105.24C103.297 105.24 102.153 104.992 101.193 104.496C100.233 104 99.4893 103.296 98.9613 102.384C98.4493 101.472 98.1933 100.392 98.1933 99.144C98.1933 97.928 98.4413 96.864 98.9373 95.952C99.4493 95.04 100.145 94.328 101.025 93.816C101.921 93.288 102.937 93.024 104.073 93.024C105.737 93.024 107.049 93.552 108.009 94.608C108.985 95.664 109.473 97.104 109.473 98.928V99.816H101.073C101.297 101.912 102.497 102.96 104.673 102.96C105.329 102.96 105.985 102.864 106.641 102.672C107.297 102.464 107.897 102.144 108.441 101.712L109.281 103.728C108.721 104.192 108.017 104.56 107.169 104.832C106.321 105.104 105.473 105.24 104.625 105.24ZM104.193 95.064C103.313 95.064 102.601 95.336 102.057 95.88C101.513 96.424 101.185 97.16 101.073 98.088H106.977C106.913 97.112 106.641 96.368 106.161 95.856C105.697 95.328 105.041 95.064 104.193 95.064ZM117.178 105.24C114.074 105.24 112.522 103.704 112.522 100.632V95.52H110.266V93.264H112.522V89.76H115.522V93.264H119.074V95.52H115.522V100.464C115.522 101.232 115.69 101.808 116.026 102.192C116.362 102.576 116.906 102.768 117.658 102.768C117.882 102.768 118.114 102.744 118.354 102.696C118.594 102.632 118.842 102.568 119.098 102.504L119.554 104.712C119.266 104.872 118.898 105 118.45 105.096C118.018 105.192 117.594 105.24 117.178 105.24ZM124.877 105.24C124.029 105.24 123.269 105.08 122.597 104.76C121.941 104.424 121.421 103.976 121.037 103.416C120.669 102.856 120.485 102.224 120.485 101.52C120.485 100.656 120.709 99.976 121.157 99.48C121.605 98.968 122.333 98.6 123.341 98.376C124.349 98.152 125.701 98.04 127.397 98.04H128.237V97.536C128.237 96.736 128.061 96.16 127.709 95.808C127.357 95.456 126.765 95.28 125.933 95.28C125.277 95.28 124.605 95.384 123.917 95.592C123.229 95.784 122.533 96.088 121.829 96.504L120.965 94.464C121.381 94.176 121.869 93.928 122.429 93.72C123.005 93.496 123.605 93.328 124.229 93.216C124.869 93.088 125.469 93.024 126.029 93.024C127.741 93.024 129.013 93.424 129.845 94.224C130.677 95.008 131.093 96.232 131.093 97.896V105H128.285V103.128C128.013 103.784 127.581 104.304 126.989 104.688C126.397 105.056 125.693 105.24 124.877 105.24ZM125.501 103.176C126.285 103.176 126.933 102.904 127.445 102.36C127.973 101.816 128.237 101.128 128.237 100.296V99.768H127.421C125.917 99.768 124.869 99.888 124.277 100.128C123.701 100.352 123.413 100.768 123.413 101.376C123.413 101.904 123.597 102.336 123.965 102.672C124.333 103.008 124.845 103.176 125.501 103.176ZM133.946 90.744V87.816H137.306V90.744H133.946ZM134.138 105V93.264H137.138V105H134.138ZM144.335 105.24C142.943 105.24 141.911 104.864 141.239 104.112C140.583 103.344 140.255 102.224 140.255 100.752V88.08H143.255V100.608C143.255 102.048 143.863 102.768 145.079 102.768C145.255 102.768 145.431 102.76 145.607 102.744C145.783 102.728 145.951 102.696 146.111 102.648L146.063 105.024C145.487 105.168 144.911 105.24 144.335 105.24ZM154.676 105V88.08H162.02C163.876 88.08 165.308 88.544 166.316 89.472C167.324 90.4 167.828 91.696 167.828 93.36C167.828 95.024 167.324 96.328 166.316 97.272C165.308 98.2 163.876 98.664 162.02 98.664H157.748V105H154.676ZM157.748 96.24H161.54C163.748 96.24 164.852 95.28 164.852 93.36C164.852 91.456 163.748 90.504 161.54 90.504H157.748V96.24ZM175.219 105.24C173.891 105.24 172.747 104.992 171.787 104.496C170.827 104 170.083 103.296 169.555 102.384C169.043 101.472 168.787 100.392 168.787 99.144C168.787 97.928 169.035 96.864 169.531 95.952C170.043 95.04 170.739 94.328 171.619 93.816C172.515 93.288 173.531 93.024 174.667 93.024C176.331 93.024 177.643 93.552 178.603 94.608C179.579 95.664 180.067 97.104 180.067 98.928V99.816H171.667C171.891 101.912 173.091 102.96 175.267 102.96C175.923 102.96 176.579 102.864 177.235 102.672C177.891 102.464 178.491 102.144 179.035 101.712L179.875 103.728C179.315 104.192 178.611 104.56 177.763 104.832C176.915 105.104 176.067 105.24 175.219 105.24ZM174.787 95.064C173.907 95.064 173.195 95.336 172.651 95.88C172.107 96.424 171.779 97.16 171.667 98.088H177.571C177.507 97.112 177.235 96.368 176.755 95.856C176.291 95.328 175.635 95.064 174.787 95.064ZM182.491 105V93.264H185.419V95.064C185.771 94.424 186.259 93.928 186.883 93.576C187.507 93.208 188.227 93.024 189.043 93.024C190.803 93.024 191.955 93.792 192.499 95.328C192.867 94.608 193.395 94.048 194.083 93.648C194.771 93.232 195.555 93.024 196.435 93.024C199.075 93.024 200.395 94.632 200.395 97.848V105H197.395V97.968C197.395 97.072 197.243 96.416 196.939 96C196.651 95.584 196.155 95.376 195.451 95.376C194.667 95.376 194.051 95.656 193.603 96.216C193.155 96.76 192.931 97.52 192.931 98.496V105H189.931V97.968C189.931 97.072 189.779 96.416 189.475 96C189.187 95.584 188.699 95.376 188.011 95.376C187.227 95.376 186.611 95.656 186.163 96.216C185.715 96.76 185.491 97.52 185.491 98.496V105H182.491ZM207.354 105.24C206.506 105.24 205.746 105.08 205.074 104.76C204.418 104.424 203.898 103.976 203.514 103.416C203.146 102.856 202.962 102.224 202.962 101.52C202.962 100.656 203.186 99.976 203.634 99.48C204.082 98.968 204.81 98.6 205.818 98.376C206.826 98.152 208.178 98.04 209.874 98.04H210.714V97.536C210.714 96.736 210.538 96.16 210.186 95.808C209.834 95.456 209.242 95.28 208.41 95.28C207.754 95.28 207.082 95.384 206.394 95.592C205.706 95.784 205.01 96.088 204.306 96.504L203.442 94.464C203.858 94.176 204.346 93.928 204.906 93.72C205.482 93.496 206.082 93.328 206.706 93.216C207.346 93.088 207.946 93.024 208.506 93.024C210.218 93.024 211.49 93.424 212.322 94.224C213.154 95.008 213.57 96.232 213.57 97.896V105H210.762V103.128C210.49 103.784 210.058 104.304 209.466 104.688C208.874 105.056 208.17 105.24 207.354 105.24ZM207.978 103.176C208.762 103.176 209.41 102.904 209.922 102.36C210.45 101.816 210.714 101.128 210.714 100.296V99.768H209.898C208.394 99.768 207.346 99.888 206.754 100.128C206.178 100.352 205.89 100.768 205.89 101.376C205.89 101.904 206.074 102.336 206.442 102.672C206.81 103.008 207.322 103.176 207.978 103.176ZM220.911 105.24C219.919 105.24 218.991 105.12 218.127 104.88C217.263 104.64 216.543 104.296 215.967 103.848L216.735 101.88C217.327 102.28 217.991 102.592 218.727 102.816C219.463 103.024 220.199 103.128 220.935 103.128C221.703 103.128 222.271 103 222.639 102.744C223.023 102.472 223.215 102.12 223.215 101.688C223.215 101.016 222.719 100.584 221.727 100.392L219.327 99.936C217.295 99.552 216.279 98.496 216.279 96.768C216.279 96 216.487 95.336 216.903 94.776C217.335 94.216 217.927 93.784 218.679 93.48C219.431 93.176 220.295 93.024 221.271 93.024C222.103 93.024 222.903 93.144 223.671 93.384C224.439 93.608 225.095 93.952 225.639 94.416L224.823 96.384C224.359 96 223.799 95.696 223.143 95.472C222.503 95.248 221.887 95.136 221.295 95.136C220.511 95.136 219.927 95.272 219.543 95.544C219.175 95.816 218.991 96.176 218.991 96.624C218.991 97.328 219.447 97.76 220.359 97.92L222.759 98.376C223.799 98.568 224.583 98.92 225.111 99.432C225.655 99.944 225.927 100.632 225.927 101.496C225.927 102.664 225.471 103.584 224.559 104.256C223.647 104.912 222.431 105.24 220.911 105.24ZM232.581 105.24C229.701 105.24 228.261 103.624 228.261 100.392V93.264H231.261V100.44C231.261 101.272 231.429 101.888 231.765 102.288C232.101 102.688 232.637 102.888 233.373 102.888C234.173 102.888 234.829 102.616 235.341 102.072C235.853 101.512 236.109 100.776 236.109 99.864V93.264H239.109V105H236.181V103.248C235.397 104.576 234.197 105.24 232.581 105.24ZM242.232 105V88.08H245.232V98.256H245.28L250.008 93.264H253.632L248.304 98.88L253.968 105H250.296L245.28 99.768H245.232V105H242.232ZM258.846 105.24C257.998 105.24 257.238 105.08 256.566 104.76C255.91 104.424 255.39 103.976 255.006 103.416C254.638 102.856 254.454 102.224 254.454 101.52C254.454 100.656 254.678 99.976 255.126 99.48C255.574 98.968 256.302 98.6 257.31 98.376C258.318 98.152 259.67 98.04 261.366 98.04H262.206V97.536C262.206 96.736 262.03 96.16 261.678 95.808C261.326 95.456 260.734 95.28 259.902 95.28C259.246 95.28 258.574 95.384 257.886 95.592C257.198 95.784 256.502 96.088 255.798 96.504L254.934 94.464C255.35 94.176 255.838 93.928 256.398 93.72C256.974 93.496 257.574 93.328 258.198 93.216C258.838 93.088 259.438 93.024 259.998 93.024C261.71 93.024 262.982 93.424 263.814 94.224C264.646 95.008 265.062 96.232 265.062 97.896V105H262.254V103.128C261.982 103.784 261.55 104.304 260.958 104.688C260.366 105.056 259.662 105.24 258.846 105.24ZM259.47 103.176C260.254 103.176 260.902 102.904 261.414 102.36C261.942 101.816 262.206 101.128 262.206 100.296V99.768H261.39C259.886 99.768 258.838 99.888 258.246 100.128C257.67 100.352 257.382 100.768 257.382 101.376C257.382 101.904 257.566 102.336 257.934 102.672C258.302 103.008 258.814 103.176 259.47 103.176ZM268.107 105V93.264H271.035V95.088C271.435 94.416 271.971 93.904 272.643 93.552C273.331 93.2 274.099 93.024 274.947 93.024C277.715 93.024 279.099 94.632 279.099 97.848V105H276.099V97.992C276.099 97.08 275.923 96.416 275.571 96C275.235 95.584 274.707 95.376 273.987 95.376C273.107 95.376 272.403 95.656 271.875 96.216C271.363 96.76 271.107 97.488 271.107 98.4V105H268.107Z" fill="#202224"/>
<defs>
<filter id="filter0_d_169_2970" x="0" y="0" width="1207" height="576" filterUnits="userSpaceOnUse" color-interpolation-filters="sRGB">
<feFlood flood-opacity="0" result="BackgroundImageFix"/>
<feColorMatrix in="SourceAlpha" type="matrix" values="0 0 0 0 0 0 0 0 0 0 0 0 0 0 0 0 0 0 127 0" result="hardAlpha"/>
<feOffset dx="6" dy="6"/>
<feGaussianBlur stdDeviation="27"/>
<feColorMatrix type="matrix" values="0 0 0 0 0 0 0 0 0 0 0 0 0 0 0 0 0 0 0.05 0"/>
<feBlend mode="normal" in2="BackgroundImageFix" result="effect1_dropShadow_169_2970"/>
<feBlend mode="normal" in="SourceGraphic" in2="effect1_dropShadow_169_2970" result="shape"/>
</filter>
<linearGradient id="paint0_linear_169_2970" x1="393.248" y1="316.596" x2="393.248" y2="419.027" gradientUnits="userSpaceOnUse">
<stop stop-color="#4379EE" stop-opacity="0.16"/>
<stop offset="1" stop-color="white" stop-opacity="0.176942"/>
</linearGradient>
</defs>
</svg>
