<svg width="16" height="17" viewBox="0 0 16 17" fill="none" xmlns="http://www.w3.org/2000/svg">
<g clip-path="url(#clip0_322_1942)">
<path d="M0.571289 8.50001C0.571289 10.4702 1.35394 12.3597 2.74707 13.7528C4.14019 15.1459 6.02968 15.9286 7.99986 15.9286C9.97004 15.9286 11.8595 15.1459 13.2527 13.7528C14.6458 12.3597 15.4284 10.4702 15.4284 8.50001C15.4284 6.52983 14.6458 4.64035 13.2527 3.24722C11.8595 1.85409 9.97004 1.07144 7.99986 1.07144C6.02968 1.07144 4.14019 1.85409 2.74707 3.24722C1.35394 4.64035 0.571289 6.52983 0.571289 8.50001Z" stroke="#7D7D7D" stroke-width="1.14286" stroke-linecap="round" stroke-linejoin="round"/>
<path d="M2.98314 7.35715H13.0174M2.85742 8.5C2.85742 9.17537 2.99045 9.84413 3.2489 10.4681C3.50735 11.0921 3.88617 11.659 4.36373 12.1366C4.84129 12.6141 5.40823 12.9929 6.03219 13.2514C6.65615 13.5098 7.32491 13.6429 8.00028 13.6429C8.67565 13.6429 9.34441 13.5098 9.96837 13.2514C10.5923 12.9929 11.1593 12.6141 11.6368 12.1366C12.1144 11.659 12.4932 11.0921 12.7517 10.4681C13.0101 9.84413 13.1431 9.17537 13.1431 8.5C13.1431 7.82463 13.0101 7.15588 12.7517 6.53192C12.4932 5.90796 12.1144 5.34101 11.6368 4.86346C11.1593 4.3859 10.5923 4.00708 9.96837 3.74862C9.34441 3.49017 8.67565 3.35715 8.00028 3.35715C7.32491 3.35715 6.65615 3.49017 6.03219 3.74862C5.40823 4.00708 4.84129 4.3859 4.36373 4.86346C3.88617 5.34101 3.50735 5.90796 3.2489 6.53192C2.99045 7.15588 2.85742 7.82463 2.85742 8.5Z" stroke="#7D7D7D" stroke-width="1.14286" stroke-linecap="round" stroke-linejoin="round"/>
<path d="M7.99972 10.7857L5.14258 7.35715H10.8569L7.99972 10.7857ZM7.99972 10.7857V13.6429" stroke="#7D7D7D" stroke-width="1.14286" stroke-linecap="round" stroke-linejoin="round"/>
</g>
<defs>
<clipPath id="clip0_322_1942">
<rect width="16" height="16" fill="white" transform="translate(0 0.5)"/>
</clipPath>
</defs>
</svg>
