<svg width="23" height="23" viewBox="0 0 23 23" fill="none" xmlns="http://www.w3.org/2000/svg">
<path fill-rule="evenodd" clip-rule="evenodd" d="M3.66602 0.666687H3.58268C3.20102 0.666687 2.87268 0.666687 2.58268 0.73502C2.13374 0.842295 1.72327 1.07176 1.39673 1.398C1.0702 1.72424 0.840362 2.13451 0.732682 2.58335C0.666016 2.87335 0.666016 3.20002 0.666016 3.58335V7.75002C0.666016 8.13169 0.666016 8.46002 0.734349 8.75002C0.841624 9.19896 1.07109 9.60944 1.39733 9.93597C1.72357 10.2625 2.13384 10.4923 2.58268 10.6C2.87268 10.6667 3.19935 10.6667 3.58268 10.6667H7.74935C8.13102 10.6667 8.45935 10.6667 8.74935 10.5984C9.19829 10.4911 9.60876 10.2616 9.9353 9.93537C10.2618 9.60913 10.4917 9.19886 10.5993 8.75002C10.666 8.46002 10.666 8.13335 10.666 7.75002V3.58335C10.666 3.20169 10.666 2.87335 10.5977 2.58335C10.4904 2.13441 10.2609 1.72394 9.9347 1.3974C9.60846 1.07087 9.19819 0.841033 8.74935 0.733354C8.45935 0.666687 8.13268 0.666687 7.74935 0.666687H7.66602H3.66602ZM2.97102 2.35669C3.04268 2.34002 3.15435 2.33335 3.66602 2.33335H7.66602C8.17935 2.33335 8.28935 2.33835 8.36102 2.35669C8.51073 2.39249 8.64761 2.46906 8.75646 2.57791C8.86531 2.68676 8.94188 2.82364 8.97768 2.97335C8.99435 3.04335 8.99935 3.15335 8.99935 3.66669V7.66669C8.99935 8.18002 8.99435 8.29002 8.97602 8.36169C8.94021 8.5114 8.86364 8.64828 8.75479 8.75713C8.64594 8.86598 8.50907 8.94255 8.35935 8.97835C8.29102 8.99335 8.18102 9.00002 7.66602 9.00002H3.66602C3.15268 9.00002 3.04268 8.99502 2.97102 8.97669C2.8213 8.94088 2.68443 8.86431 2.57557 8.75546C2.46672 8.64661 2.39015 8.50974 2.35435 8.36002C2.33935 8.29169 2.33268 8.18169 2.33268 7.66669V3.66669C2.33268 3.15335 2.33768 3.04335 2.35602 2.97169C2.39182 2.82197 2.46839 2.6851 2.57724 2.57625C2.68609 2.4674 2.82297 2.39082 2.97268 2.35502M15.3327 0.666687H15.2493C14.8677 0.666687 14.5393 0.666687 14.2493 0.73502C13.8004 0.842295 13.3899 1.07176 13.0634 1.398C12.7369 1.72424 12.507 2.13451 12.3993 2.58335C12.3327 2.87335 12.3327 3.20002 12.3327 3.58335V7.75002C12.3327 8.13169 12.3327 8.46002 12.401 8.75002C12.5083 9.19896 12.7378 9.60944 13.064 9.93597C13.3902 10.2625 13.8005 10.4923 14.2493 10.6C14.5393 10.6667 14.866 10.6667 15.2493 10.6667H19.416C19.7977 10.6667 20.126 10.6667 20.416 10.5984C20.865 10.4911 21.2754 10.2616 21.602 9.93537C21.9285 9.60913 22.1583 9.19886 22.266 8.75002C22.3327 8.46002 22.3327 8.13335 22.3327 7.75002V3.58335C22.3327 3.20169 22.3327 2.87335 22.2643 2.58335C22.1571 2.13441 21.9276 1.72394 21.6014 1.3974C21.2751 1.07087 20.8649 0.841033 20.416 0.733354C20.126 0.666687 19.7993 0.666687 19.416 0.666687H19.3327H15.3327ZM14.6377 2.35669C14.7093 2.34002 14.821 2.33335 15.3327 2.33335H19.3327C19.846 2.33335 19.956 2.33835 20.0277 2.35669C20.1774 2.39249 20.3143 2.46906 20.4231 2.57791C20.532 2.68676 20.6085 2.82364 20.6444 2.97335C20.661 3.04335 20.666 3.15335 20.666 3.66669V7.66669C20.666 8.18002 20.6593 8.29002 20.6427 8.36169C20.6069 8.5114 20.5303 8.64828 20.4215 8.75713C20.3126 8.86598 20.1757 8.94255 20.026 8.97835C19.956 8.99502 19.846 9.00002 19.3327 9.00002H15.3327C14.8193 9.00002 14.7093 8.99502 14.6377 8.97669C14.488 8.94088 14.3511 8.86431 14.2422 8.75546C14.1334 8.64661 14.0568 8.50974 14.021 8.36002C14.006 8.29169 13.9993 8.18169 13.9993 7.66669V3.66669C13.9993 3.15335 14.0043 3.04335 14.0227 2.97169C14.0585 2.82197 14.1351 2.6851 14.2439 2.57625C14.3528 2.4674 14.4896 2.39082 14.6393 2.35502M3.58268 12.3334H7.74935C8.13102 12.3334 8.45935 12.3334 8.74935 12.4017C9.19829 12.509 9.60876 12.7384 9.9353 13.0647C10.2618 13.3909 10.4917 13.8012 10.5993 14.25C10.666 14.54 10.666 14.8667 10.666 15.25V19.4167C10.666 19.7984 10.666 20.1267 10.5977 20.4167C10.4904 20.8656 10.2609 21.2761 9.9347 21.6026C9.60846 21.9292 9.19819 22.159 8.74935 22.2667C8.45935 22.3334 8.13268 22.3334 7.74935 22.3334H3.58268C3.20102 22.3334 2.87268 22.3334 2.58268 22.265C2.13374 22.1577 1.72327 21.9283 1.39673 21.602C1.0702 21.2758 0.840362 20.8655 0.732682 20.4167C0.666016 20.1267 0.666016 19.8 0.666016 19.4167V15.25C0.666016 14.8684 0.666016 14.54 0.734349 14.25C0.841624 13.8011 1.07109 13.3906 1.39733 13.0641C1.72357 12.7375 2.13384 12.5077 2.58268 12.4C2.87268 12.3334 3.19935 12.3334 3.58268 12.3334ZM3.66602 14C3.15268 14 3.04268 14.005 2.97102 14.0234C2.8213 14.0592 2.68443 14.1357 2.57557 14.2446C2.46672 14.3534 2.39015 14.4903 2.35435 14.64C2.33935 14.7084 2.33268 14.8184 2.33268 15.3334V19.3334C2.33268 19.8467 2.33768 19.9567 2.35602 20.0284C2.39182 20.1781 2.46839 20.3149 2.57724 20.4238C2.68609 20.5326 2.82297 20.6092 2.97268 20.645C3.04268 20.6617 3.15268 20.6667 3.66602 20.6667H7.66602C8.17935 20.6667 8.28935 20.66 8.36102 20.6434C8.51073 20.6076 8.64761 20.531 8.75646 20.4221C8.86531 20.3133 8.94188 20.1764 8.97768 20.0267C8.99435 19.9567 8.99935 19.8467 8.99935 19.3334V15.3334C8.99935 14.82 8.99435 14.71 8.97602 14.6384C8.94021 14.4886 8.86364 14.3518 8.75479 14.2429C8.64594 14.1341 8.50907 14.0575 8.35935 14.0217C8.29102 14.0067 8.18102 14 7.66602 14H3.66602ZM15.3327 12.3334H15.2493C14.8677 12.3334 14.5393 12.3334 14.2493 12.4017C13.8004 12.509 13.3899 12.7384 13.0634 13.0647C12.7369 13.3909 12.507 13.8012 12.3993 14.25C12.3327 14.54 12.3327 14.8667 12.3327 15.25V19.4167C12.3327 19.7984 12.3327 20.1267 12.401 20.4167C12.5083 20.8656 12.7378 21.2761 13.064 21.6026C13.3902 21.9292 13.8005 22.159 14.2493 22.2667C14.5393 22.335 14.8677 22.335 15.2493 22.335H19.416C19.7977 22.335 20.126 22.335 20.416 22.2667C20.8646 22.1591 21.2748 21.9296 21.601 21.6033C21.9272 21.2771 22.1568 20.867 22.2643 20.4184C22.3327 20.1284 22.3327 19.8 22.3327 19.4184V15.25C22.3327 14.8684 22.3327 14.54 22.2643 14.25C22.1571 13.8011 21.9276 13.3906 21.6014 13.0641C21.2751 12.7375 20.8649 12.5077 20.416 12.4C20.126 12.3334 19.7993 12.3334 19.416 12.3334H19.3327H15.3327ZM14.6377 14.0234C14.7093 14.0067 14.821 14 15.3327 14H19.3327C19.846 14 19.956 14.005 20.0277 14.0234C20.1774 14.0592 20.3143 14.1357 20.4231 14.2446C20.532 14.3534 20.6085 14.4903 20.6444 14.64C20.661 14.71 20.666 14.82 20.666 15.3334V19.3334C20.666 19.8467 20.6593 19.9567 20.6427 20.0284C20.6069 20.1781 20.5303 20.3149 20.4215 20.4238C20.3126 20.5326 20.1757 20.6092 20.026 20.645C19.956 20.6617 19.846 20.6667 19.3327 20.6667H15.3327C14.8193 20.6667 14.7093 20.66 14.6377 20.6434C14.488 20.6076 14.3511 20.531 14.2422 20.4221C14.1334 20.3133 14.0568 20.1764 14.021 20.0267C14.006 19.9584 13.9993 19.8484 13.9993 19.3334V15.3334C13.9993 14.82 14.0043 14.71 14.0227 14.6384C14.0585 14.4886 14.1351 14.3518 14.2439 14.2429C14.3528 14.1341 14.4896 14.0575 14.6393 14.0217" fill="white"/>
</svg>
