<svg width="42" height="42" viewBox="0 0 42 42" fill="none" xmlns="http://www.w3.org/2000/svg">
<rect x="0.5" y="0.5" width="41" height="41" rx="4.5" stroke="#656565"/>
<path d="M34.5975 12.6525L34.615 12.635L28.105 6.125L26.25 7.98L29.9425 11.6725C28.2975 12.3025 27.125 13.8775 27.125 15.75C27.125 16.3245 27.2382 16.8934 27.458 17.4242C27.6779 17.955 28.0002 18.4373 28.4064 18.8436C29.2269 19.6641 30.3397 20.125 31.5 20.125C32.13 20.125 32.7075 19.985 33.25 19.7575V32.375C33.25 32.8391 33.0656 33.2843 32.7374 33.6124C32.4093 33.9406 31.9641 34.125 31.5 34.125C31.0359 34.125 30.5907 33.9406 30.2626 33.6124C29.9344 33.2843 29.75 32.8391 29.75 32.375V24.5C29.75 23.5717 29.3813 22.6815 28.7249 22.0251C28.0685 21.3687 27.1783 21 26.25 21H24.5V8.75C24.5 7.82174 24.1313 6.9315 23.4749 6.27513C22.8185 5.61875 21.9283 5.25 21 5.25H10.5C9.57174 5.25 8.6815 5.61875 8.02513 6.27513C7.36875 6.9315 7 7.82174 7 8.75V36.75H24.5V23.625H27.125V32.375C27.125 33.5353 27.5859 34.6481 28.4064 35.4686C29.2269 36.2891 30.3397 36.75 31.5 36.75C32.0745 36.75 32.6434 36.6368 33.1742 36.417C33.705 36.1971 34.1873 35.8748 34.5936 35.4686C34.9998 35.0623 35.3221 34.58 35.542 34.0492C35.7618 33.5184 35.875 32.9495 35.875 32.375V15.75C35.875 14.5425 35.385 13.44 34.5975 12.6525ZM21 23.625V33.25H10.5V21H21V23.625ZM21 17.5H10.5V8.75H21V17.5ZM31.5 17.5C31.0359 17.5 30.5907 17.3156 30.2626 16.9874C29.9344 16.6592 29.75 16.2141 29.75 15.75C29.75 15.2859 29.9344 14.8408 30.2626 14.5126C30.5907 14.1844 31.0359 14 31.5 14C31.9641 14 32.4093 14.1844 32.7374 14.5126C33.0656 14.8408 33.25 15.2859 33.25 15.75C33.25 16.2141 33.0656 16.6592 32.7374 16.9874C32.4093 17.3156 31.9641 17.5 31.5 17.5Z" fill="#545454"/>
</svg>
