<svg width="42" height="42" viewBox="0 0 42 42" fill="none" xmlns="http://www.w3.org/2000/svg">
<rect x="0.5" y="0.5" width="41" height="41" rx="4.5" stroke="#656565"/>
<path d="M15.75 33.25H26.25V36.75H15.75C10.92 36.75 7 32.83 7 28V12.25H10.5V28C10.5 30.905 12.845 33.25 15.75 33.25ZM18.235 9.46752C19.6 8.10252 19.6 5.88002 18.235 4.51502C16.87 3.15002 14.6475 3.15002 13.2825 4.51502C11.9175 5.88002 11.9175 8.10252 13.2825 9.46752C14.6475 10.85 16.8525 10.85 18.235 9.46752ZM20.125 15.75C20.125 13.825 18.55 12.25 16.625 12.25H15.75C13.825 12.25 12.25 13.825 12.25 15.75V26.25C12.25 29.155 14.595 31.5 17.5 31.5H26.3725L32.4975 37.625L35 35.1225L26.1275 26.25H20.125V15.75Z" fill="#656565"/>
</svg>
