<svg width="42" height="42" viewBox="0 0 42 42" fill="none" xmlns="http://www.w3.org/2000/svg">
<path d="M38.15 24.5018C37.4251 28.0417 35.6232 31.2708 32.9912 33.7464C30.3592 36.2221 27.0259 37.8232 23.4483 38.3302V34.7865C26.0904 34.3153 28.5417 33.0955 30.511 31.2721C32.4802 29.4486 33.8846 27.0982 34.5573 24.5L38.15 24.5018ZM7.44102 24.5018C8.10611 27.0702 9.48648 29.3972 11.4217 31.2122C13.3569 33.0272 15.7675 34.2558 18.3733 34.755V38.304C14.8313 37.7649 11.5398 36.1526 8.94256 33.6846C6.34535 31.2167 4.56734 28.0116 3.84827 24.5018H7.44102ZM31.4983 19.25V22.75H29.7483C27.9524 22.75 26.2251 23.4403 24.9239 24.678C23.6226 25.9158 22.8468 27.6063 22.757 29.4L22.75 29.75V31.5H19.25V29.75C19.25 27.9541 18.5598 26.2269 17.322 24.9256C16.0843 23.6243 14.3937 22.8485 12.6 22.7588L12.25 22.75H10.5V19.25H31.4983ZM20.9983 3.5C30.0738 3.5 37.5358 10.4072 38.4125 19.25H34.8915C34.4676 15.8642 32.8218 12.7498 30.2635 10.4919C27.7052 8.23398 24.4105 6.98796 20.9983 6.98796C17.5861 6.98796 14.2913 8.23398 11.733 10.4919C9.17472 12.7498 7.52899 15.8642 7.10502 19.25H3.58752C4.46602 10.4072 11.9263 3.5 21 3.5" fill="#545454"/>
</svg>
