<svg width="42" height="42" viewBox="0 0 42 42" fill="none" xmlns="http://www.w3.org/2000/svg">
<g clip-path="url(#clip0_116_328)">
<path d="M15.75 13.125C16.0981 13.125 16.4319 13.2633 16.6781 13.5094C16.9242 13.7556 17.0625 14.0894 17.0625 14.4375V32.8125C17.0625 33.1606 16.9242 33.4944 16.6781 33.7406C16.4319 33.9867 16.0981 34.125 15.75 34.125C15.4019 34.125 15.0681 33.9867 14.8219 33.7406C14.5758 33.4944 14.4375 33.1606 14.4375 32.8125V14.4375C14.4375 14.0894 14.5758 13.7556 14.8219 13.5094C15.0681 13.2633 15.4019 13.125 15.75 13.125ZM21 13.125C21.3481 13.125 21.6819 13.2633 21.9281 13.5094C22.1742 13.7556 22.3125 14.0894 22.3125 14.4375V32.8125C22.3125 33.1606 22.1742 33.4944 21.9281 33.7406C21.6819 33.9867 21.3481 34.125 21 34.125C20.6519 34.125 20.3181 33.9867 20.0719 33.7406C19.8258 33.4944 19.6875 33.1606 19.6875 32.8125V14.4375C19.6875 14.0894 19.8258 13.7556 20.0719 13.5094C20.3181 13.2633 20.6519 13.125 21 13.125ZM26.25 13.125C26.5981 13.125 26.9319 13.2633 27.1781 13.5094C27.4242 13.7556 27.5625 14.0894 27.5625 14.4375V32.8125C27.5625 33.1606 27.4242 33.4944 27.1781 33.7406C26.9319 33.9867 26.5981 34.125 26.25 34.125C25.9019 34.125 25.5681 33.9867 25.3219 33.7406C25.0758 33.4944 24.9375 33.1606 24.9375 32.8125V14.4375C24.9375 14.0894 25.0758 13.7556 25.3219 13.5094C25.5681 13.2633 25.9019 13.125 26.25 13.125Z" fill="#545454"/>
<path d="M17.0625 0C16.7144 0 16.3806 0.138281 16.1344 0.384422C15.8883 0.630564 15.75 0.964403 15.75 1.3125V7.875H13.125C11.7326 7.875 10.3973 8.42812 9.41269 9.41269C8.42812 10.3973 7.875 11.7326 7.875 13.125V34.125C7.8748 35.0626 8.12571 35.9832 8.60164 36.791C9.07757 37.5988 9.76116 38.2645 10.5814 38.7188C10.4828 39.1067 10.474 39.512 10.5556 39.9039C10.6372 40.2958 10.8071 40.6639 11.0523 40.9802C11.2975 41.2966 11.6117 41.5528 11.9708 41.7296C12.33 41.9063 12.7247 41.9988 13.125 42C13.8212 42 14.4889 41.7234 14.9812 41.2312C15.4734 40.7389 15.75 40.0712 15.75 39.375H26.25C26.2511 39.747 26.3312 40.1145 26.4851 40.4531C26.639 40.7918 26.8631 41.0939 27.1426 41.3394C27.422 41.5849 27.7505 41.7682 28.1062 41.8771C28.4618 41.9861 28.8366 42.0182 29.2056 41.9713C29.5746 41.9245 29.9295 41.7997 30.2467 41.6054C30.5638 41.411 30.836 41.1514 31.0453 40.8439C31.2545 40.5363 31.396 40.1878 31.4604 39.8214C31.5248 39.4551 31.5105 39.0792 31.4186 38.7188C32.2388 38.2645 32.9224 37.5988 33.3984 36.791C33.8743 35.9832 34.1252 35.0626 34.125 34.125V13.125C34.125 11.7326 33.5719 10.3973 32.5873 9.41269C31.6027 8.42812 30.2674 7.875 28.875 7.875H26.25V1.3125C26.25 0.964403 26.1117 0.630564 25.8656 0.384422C25.6194 0.138281 25.2856 0 24.9375 0L17.0625 0ZM23.625 7.875H18.375V2.625H23.625V7.875ZM31.5 34.125C31.5 34.8212 31.2234 35.4889 30.7312 35.9812C30.2389 36.4734 29.5712 36.75 28.875 36.75H13.125C12.4288 36.75 11.7611 36.4734 11.2688 35.9812C10.7766 35.4889 10.5 34.8212 10.5 34.125V13.125C10.5 12.4288 10.7766 11.7611 11.2688 11.2688C11.7611 10.7766 12.4288 10.5 13.125 10.5H28.875C29.5712 10.5 30.2389 10.7766 30.7312 11.2688C31.2234 11.7611 31.5 12.4288 31.5 13.125V34.125Z" fill="#545454"/>
</g>
<defs>
<clipPath id="clip0_116_328">
<rect width="42" height="42" fill="white"/>
</clipPath>
</defs>
</svg>
