<svg width="30" height="31" viewBox="0 0 30 31" fill="none" xmlns="http://www.w3.org/2000/svg">
<path d="M23.75 14.1988H8.925L13.4625 8.74883C13.6747 8.49356 13.7768 8.16446 13.7463 7.83393C13.7158 7.50339 13.5553 7.1985 13.3 6.98633C13.0447 6.77416 12.7156 6.67208 12.3851 6.70256C12.0546 6.73303 11.7497 6.89356 11.5375 7.14883L5.2875 14.6488C5.24545 14.7085 5.20785 14.7712 5.175 14.8363C5.175 14.8988 5.175 14.9363 5.0875 14.9988C5.03084 15.1422 5.00118 15.2947 5 15.4488C5.00118 15.6029 5.03084 15.7555 5.0875 15.8988C5.0875 15.9613 5.0875 15.9988 5.175 16.0613C5.20785 16.1265 5.24545 16.1892 5.2875 16.2488L11.5375 23.7488C11.655 23.8899 11.8022 24.0034 11.9686 24.0812C12.1349 24.159 12.3164 24.1991 12.5 24.1988C12.7921 24.1994 13.0751 24.0977 13.3 23.9113C13.4266 23.8064 13.5312 23.6775 13.6079 23.5321C13.6846 23.3867 13.7318 23.2275 13.7469 23.0638C13.762 22.9001 13.7447 22.735 13.6959 22.578C13.6471 22.421 13.5678 22.2751 13.4625 22.1488L8.925 16.6988H23.75C24.0815 16.6988 24.3995 16.5671 24.6339 16.3327C24.8683 16.0983 25 15.7804 25 15.4488C25 15.1173 24.8683 14.7994 24.6339 14.5649C24.3995 14.3305 24.0815 14.1988 23.75 14.1988Z" fill="#1A202C"/>
</svg>
