<svg width="154" height="153" viewBox="0 0 154 153" fill="none" xmlns="http://www.w3.org/2000/svg">
<g filter="url(#filter0_d_423_2092)">
<circle cx="77" cy="72.5" r="72.5" fill="#FB977F"/>
</g>
<path fill-rule="evenodd" clip-rule="evenodd" d="M58.1175 49.8275L53.625 67.4412C51.9303 67.7863 50.4069 68.7064 49.3128 70.0459C48.2187 71.3853 47.6211 73.0617 47.6213 74.7913V85.625C47.6213 87.6141 48.4115 89.5218 49.818 90.9283C51.2245 92.3348 53.1322 93.125 55.1213 93.125H103.871C105.86 93.125 107.768 92.3348 109.175 90.9283C110.581 89.5218 111.371 87.6141 111.371 85.625V74.7913C111.371 73.0617 110.774 71.3853 109.68 70.0459C108.586 68.7064 107.062 67.7863 105.368 67.4412L100.879 49.8275C100.541 48.5017 99.8472 47.2936 98.8723 46.3338C97.8973 45.3741 96.6784 44.6993 95.3475 44.3825C90.1568 43.1378 84.8379 42.506 79.5 42.5C74.2125 42.5 68.925 43.13 63.645 44.3825C62.3141 44.6993 61.0952 45.3741 60.1203 46.3338C59.1453 47.2936 58.4552 48.5017 58.1175 49.8275ZM55.125 71.0413C55.5418 71.0418 55.9468 70.9034 56.2762 70.6481C56.6055 70.3928 56.8404 70.035 56.9438 69.6312L61.7513 50.75C61.9203 50.0869 62.2675 49.4827 62.7553 49.0028C63.2431 48.5229 63.853 48.1856 64.5188 48.0275C69.4259 46.8518 74.454 46.2553 79.5 46.25C84.4875 46.25 89.4825 46.8425 94.4813 48.0312C95.1464 48.1899 95.7554 48.5275 96.2426 49.0073C96.7297 49.4872 97.0763 50.0911 97.245 50.7538L102.053 69.6312C102.156 70.035 102.391 70.3928 102.72 70.6481C103.049 70.9034 103.455 71.0418 103.871 71.0413C104.866 71.0413 105.82 71.4363 106.523 72.1396C107.226 72.8429 107.621 73.7967 107.621 74.7913V85.625C107.621 86.6196 107.226 87.5734 106.523 88.2766C105.82 88.9799 104.866 89.375 103.871 89.375H55.1213C54.1267 89.375 53.1729 88.9799 52.4696 88.2766C51.7664 87.5734 51.3713 86.6196 51.3713 85.625V74.7913C51.3713 73.7967 51.7664 72.8429 52.4696 72.1396C53.1729 71.4363 54.1305 71.0413 55.125 71.0413Z" fill="white"/>
<path fill-rule="evenodd" clip-rule="evenodd" d="M62.625 95C62.625 93.5082 62.0324 92.0774 60.9775 91.0225C59.9226 89.9676 58.4918 89.375 57 89.375C55.5082 89.375 54.0774 89.9676 53.0225 91.0225C51.9676 92.0774 51.375 93.5082 51.375 95V98.75C51.375 100.242 51.9676 101.673 53.0225 102.727C54.0774 103.782 55.5082 104.375 57 104.375C58.4918 104.375 59.9226 103.782 60.9775 102.727C62.0324 101.673 62.625 100.242 62.625 98.75V95ZM55.125 95C55.125 94.5027 55.3225 94.0258 55.6742 93.6742C56.0258 93.3225 56.5027 93.125 57 93.125C57.4973 93.125 57.9742 93.3225 58.3258 93.6742C58.6775 94.0258 58.875 94.5027 58.875 95V98.75C58.875 99.2473 58.6775 99.7242 58.3258 100.076C57.9742 100.427 57.4973 100.625 57 100.625C56.5027 100.625 56.0258 100.427 55.6742 100.076C55.3225 99.7242 55.125 99.2473 55.125 98.75V95ZM107.625 95C107.625 93.5082 107.032 92.0774 105.977 91.0225C104.923 89.9676 103.492 89.375 102 89.375C100.508 89.375 99.0774 89.9676 98.0225 91.0225C96.9676 92.0774 96.375 93.5082 96.375 95V98.75C96.375 100.242 96.9676 101.673 98.0225 102.727C99.0774 103.782 100.508 104.375 102 104.375C103.492 104.375 104.923 103.782 105.977 102.727C107.032 101.673 107.625 100.242 107.625 98.75V95ZM100.125 95C100.125 94.5027 100.323 94.0258 100.674 93.6742C101.026 93.3225 101.503 93.125 102 93.125C102.497 93.125 102.974 93.3225 103.326 93.6742C103.677 94.0258 103.875 94.5027 103.875 95V98.75C103.875 99.2473 103.677 99.7242 103.326 100.076C102.974 100.427 102.497 100.625 102 100.625C101.503 100.625 101.026 100.427 100.674 100.076C100.323 99.7242 100.125 99.2473 100.125 98.75V95ZM98.25 85.625C99.7418 85.625 101.173 85.0324 102.227 83.9775C103.282 82.9226 103.875 81.4918 103.875 80C103.875 78.5082 103.282 77.0774 102.227 76.0225C101.173 74.9676 99.7418 74.375 98.25 74.375C96.7582 74.375 95.3274 74.9676 94.2725 76.0225C93.2176 77.0774 92.625 78.5082 92.625 80C92.625 81.4918 93.2176 82.9226 94.2725 83.9775C95.3274 85.0324 96.7582 85.625 98.25 85.625ZM98.25 78.125C98.7473 78.125 99.2242 78.3225 99.5758 78.6742C99.9275 79.0258 100.125 79.5027 100.125 80C100.125 80.4973 99.9275 80.9742 99.5758 81.3258C99.2242 81.6775 98.7473 81.875 98.25 81.875C97.7527 81.875 97.2758 81.6775 96.9242 81.3258C96.5725 80.9742 96.375 80.4973 96.375 80C96.375 79.5027 96.5725 79.0258 96.9242 78.6742C97.2758 78.3225 97.7527 78.125 98.25 78.125ZM60.75 85.625C62.2418 85.625 63.6726 85.0324 64.7275 83.9775C65.7824 82.9226 66.375 81.4918 66.375 80C66.375 78.5082 65.7824 77.0774 64.7275 76.0225C63.6726 74.9676 62.2418 74.375 60.75 74.375C59.2582 74.375 57.8274 74.9676 56.7725 76.0225C55.7176 77.0774 55.125 78.5082 55.125 80C55.125 81.4918 55.7176 82.9226 56.7725 83.9775C57.8274 85.0324 59.2582 85.625 60.75 85.625ZM60.75 78.125C61.2473 78.125 61.7242 78.3225 62.0758 78.6742C62.4275 79.0258 62.625 79.5027 62.625 80C62.625 80.4973 62.4275 80.9742 62.0758 81.3258C61.7242 81.6775 61.2473 81.875 60.75 81.875C60.2527 81.875 59.7758 81.6775 59.4242 81.3258C59.0725 80.9742 58.875 80.4973 58.875 80C58.875 79.5027 59.0725 79.0258 59.4242 78.6742C59.7758 78.3225 60.2527 78.125 60.75 78.125ZM89.43 51.875H69.57C68.311 51.8749 67.0883 52.2972 66.0977 53.0743C65.1071 53.8514 64.4059 54.9384 64.1062 56.1613L62.2688 63.6613C62.0658 64.4894 62.0538 65.3528 62.2336 66.1863C62.4134 67.0197 62.7804 67.8014 63.3067 68.4722C63.833 69.143 64.5049 69.6854 65.2716 70.0583C66.0384 70.4313 66.8799 70.6251 67.7325 70.625H91.2675C92.1201 70.6251 92.9616 70.4313 93.7284 70.0583C94.4951 69.6854 95.167 69.143 95.6933 68.4722C96.2196 67.8014 96.5866 67.0197 96.7664 66.1863C96.9462 65.3528 96.9342 64.4894 96.7313 63.6613L94.8937 56.1613C94.5939 54.9378 93.8922 53.8503 92.9008 53.0732C91.9094 52.296 90.6897 51.8741 89.43 51.875ZM67.7475 57.0538C67.8474 56.6459 68.0814 56.2834 68.4118 56.0244C68.7423 55.7653 69.1501 55.6247 69.57 55.625H89.43C89.8492 55.6255 90.2562 55.7666 90.5859 56.0255C90.9156 56.2845 91.149 56.6466 91.2488 57.0538L93.0863 64.5538C93.1538 64.8296 93.1579 65.1172 93.0981 65.3948C93.0383 65.6724 92.9162 65.9329 92.741 66.1564C92.5659 66.38 92.3422 66.5608 92.087 66.6853C91.8317 66.8098 91.5515 66.8746 91.2675 66.875H67.7325C67.4482 66.8752 67.1675 66.8108 66.9118 66.6865C66.6561 66.5623 66.4319 66.3815 66.2564 66.1579C66.0808 65.9343 65.9584 65.6736 65.8984 65.3957C65.8384 65.1178 65.8423 64.8299 65.91 64.5538L67.7475 57.0538Z" fill="white"/>
<defs>
<filter id="filter0_d_423_2092" x="0.5" y="0" width="153" height="153" filterUnits="userSpaceOnUse" color-interpolation-filters="sRGB">
<feFlood flood-opacity="0" result="BackgroundImageFix"/>
<feColorMatrix in="SourceAlpha" type="matrix" values="0 0 0 0 0 0 0 0 0 0 0 0 0 0 0 0 0 0 127 0" result="hardAlpha"/>
<feOffset dy="4"/>
<feGaussianBlur stdDeviation="2"/>
<feComposite in2="hardAlpha" operator="out"/>
<feColorMatrix type="matrix" values="0 0 0 0 0 0 0 0 0 0 0 0 0 0 0 0 0 0 0.25 0"/>
<feBlend mode="normal" in2="BackgroundImageFix" result="effect1_dropShadow_423_2092"/>
<feBlend mode="normal" in="SourceGraphic" in2="effect1_dropShadow_423_2092" result="shape"/>
</filter>
</defs>
</svg>
