<svg width="146" height="145" viewBox="0 0 146 145" fill="none" xmlns="http://www.w3.org/2000/svg">
<circle cx="73" cy="72.5" r="72.5" fill="#FB977F"/>
<path d="M75.5 104.607V115.321M88.8929 99.2498V109.964M62.1071 99.2498V109.964M81.2 61.1552C80.8928 60.2839 80.3228 59.5295 79.5685 58.996C78.8143 58.4624 77.9131 58.1762 76.9893 58.1766H73.5339C72.554 58.1801 71.6096 58.5445 70.8813 59.2001C70.153 59.8558 69.6918 60.7568 69.5858 61.731C69.4797 62.7052 69.7363 63.6844 70.3065 64.4814C70.8767 65.2784 71.7205 65.8374 72.6768 66.0516L77.9429 67.2088C79.0152 67.4479 79.9618 68.0737 80.6018 68.9666C81.2418 69.8596 81.5305 70.957 81.4125 72.0493C81.2945 73.1416 80.7782 74.1521 79.9623 74.8878C79.1463 75.6234 78.0879 76.0327 76.9893 76.0373H74.0107C73.0871 76.037 72.1862 75.7504 71.4322 75.217C70.6781 74.6836 70.1079 73.9296 69.8 73.0588M75.5 58.1766V53.7141M75.5 80.4998V76.0373M52.7321 68.4463C52.3769 68.4463 52.0363 68.3052 51.7851 68.054C51.534 67.8028 51.3929 67.4622 51.3929 67.107C51.3929 66.7518 51.534 66.4111 51.7851 66.1599C52.0363 65.9088 52.3769 65.7677 52.7321 65.7677C53.0873 65.7677 53.428 65.9088 53.6792 66.1599C53.9303 66.4111 54.0714 66.7518 54.0714 67.107C54.0714 67.4622 53.9303 67.8028 53.6792 68.054C53.428 68.3052 53.0873 68.4463 52.7321 68.4463ZM98.2679 68.4463C97.9127 68.4463 97.572 68.3052 97.3208 68.054C97.0697 67.8028 96.9286 67.4622 96.9286 67.107C96.9286 66.7518 97.0697 66.4111 97.3208 66.1599C97.572 65.9088 97.9127 65.7677 98.2679 65.7677C98.6231 65.7677 98.9637 65.9088 99.2149 66.1599C99.466 66.4111 99.6071 66.7518 99.6071 67.107C99.6071 67.4622 99.466 67.8028 99.2149 68.054C98.9637 68.3052 98.6231 68.4463 98.2679 68.4463Z" stroke="white" stroke-width="3.21429" stroke-linecap="round" stroke-linejoin="round"/>
<path d="M104.964 45.6785H46.0357C44.6149 45.6785 43.2523 46.2429 42.2476 47.2475C41.243 48.2522 40.6786 49.6148 40.6786 51.0356V83.1785C40.6786 84.5993 41.243 85.9619 42.2476 86.9665C43.2523 87.9712 44.6149 88.5356 46.0357 88.5356H104.964C106.385 88.5356 107.748 87.9712 108.752 86.9665C109.757 85.9619 110.321 84.5993 110.321 83.1785V51.0356C110.321 49.6148 109.757 48.2522 108.752 47.2475C107.748 46.2429 106.385 45.6785 104.964 45.6785Z" stroke="white" stroke-width="3.21429" stroke-linecap="round" stroke-linejoin="round"/>
</svg>
