<svg width="146" height="145" viewBox="0 0 146 145" fill="none" xmlns="http://www.w3.org/2000/svg">
<circle cx="73" cy="72.5" r="72.5" fill="#FB977F"/>
<path d="M72.5 41.25C65.8696 41.25 59.5107 43.8839 54.8223 48.5723C50.1339 53.2607 47.5 59.6196 47.5 66.25C47.5 83.125 69.5313 102.188 70.4688 103C71.0348 103.484 71.7551 103.75 72.5 103.75C73.2449 103.75 73.9652 103.484 74.5312 103C75.625 102.188 97.5 83.125 97.5 66.25C97.5 59.6196 94.8661 53.2607 90.1777 48.5723C85.4893 43.8839 79.1304 41.25 72.5 41.25ZM72.5 96.4063C65.8438 90.1563 53.75 76.6875 53.75 66.25C53.75 61.2772 55.7254 56.5081 59.2417 52.9917C62.7581 49.4754 67.5272 47.5 72.5 47.5C77.4728 47.5 82.2419 49.4754 85.7583 52.9917C89.2746 56.5081 91.25 61.2772 91.25 66.25C91.25 76.6875 79.1562 90.1875 72.5 96.4063ZM72.5 53.75C70.0277 53.75 67.611 54.4831 65.5554 55.8566C63.4998 57.2301 61.8976 59.1824 60.9515 61.4665C60.0054 63.7505 59.7579 66.2639 60.2402 68.6886C60.7225 71.1134 61.913 73.3407 63.6612 75.0888C65.4093 76.837 67.6366 78.0275 70.0614 78.5098C72.4861 78.9921 74.9995 78.7446 77.2835 77.7985C79.5676 76.8524 81.5199 75.2502 82.8934 73.1946C84.2669 71.139 85 68.7223 85 66.25C85 62.9348 83.683 59.7554 81.3388 57.4112C78.9946 55.067 75.8152 53.75 72.5 53.75ZM72.5 72.5C71.2639 72.5 70.0555 72.1334 69.0277 71.4467C67.9999 70.7599 67.1988 69.7838 66.7258 68.6418C66.2527 67.4997 66.1289 66.2431 66.3701 65.0307C66.6112 63.8183 67.2065 62.7047 68.0806 61.8306C68.9547 60.9565 70.0683 60.3612 71.2807 60.1201C72.4931 59.8789 73.7497 60.0027 74.8918 60.4758C76.0338 60.9488 77.0099 61.7499 77.6967 62.7777C78.3834 63.8055 78.75 65.0139 78.75 66.25C78.75 67.9076 78.0915 69.4973 76.9194 70.6694C75.7473 71.8415 74.1576 72.5 72.5 72.5Z" fill="white"/>
</svg>
