<svg width="75" height="75" viewBox="0 0 75 75" fill="none" xmlns="http://www.w3.org/2000/svg">
<path d="M41.8401 6.22192C36.039 6.22192 31.1467 10.3986 31.1467 15.7434C31.1467 18.4431 32.3959 20.844 34.379 22.5598L35.6202 20.1179C34.4665 18.9164 33.7833 17.3834 33.7833 15.7434C33.7833 12.0271 37.2857 8.85864 41.8399 8.85864C46.3941 8.85864 49.8965 12.0271 49.8965 15.7434C49.8965 18.2927 48.2482 20.5841 45.7428 21.7718L44.6468 24.9294C44.9237 24.8624 45.1979 24.7852 45.4691 24.698L46.8106 27.0437C45.298 28.1076 43.834 29.4264 42.2646 31.0679L54.1811 57.346C61.5441 57.6855 68.6485 53.7813 72.3091 47.3836L56.5137 23.2375C53.5597 23.8274 51.1831 24.5638 49.0613 25.6689L47.8762 23.597C50.6678 21.8956 52.5334 19.0428 52.5334 15.7436C52.5334 10.3988 47.6411 6.22207 41.8401 6.22207V6.22192ZM23.8714 7.09307C23.4818 7.09746 23.0725 7.16191 22.6773 7.29053C21.7735 7.58408 21.0088 8.18906 20.6763 8.8418L20.6341 8.92529L11.1267 22.4454C10.8139 23.0975 10.7777 24.0489 11.0597 24.9312C11.3483 25.8331 11.9452 26.5872 12.5542 26.8973L33.6013 37.6141C34.1978 37.9181 35.1526 37.9664 36.04 37.6767C36.9109 37.3925 37.6507 36.8146 38.0033 36.1397L41.7182 25.2618L41.7402 25.2624L42.667 22.592C42.6544 22.5932 42.6413 22.5935 42.6289 22.5946L43.3474 20.4904L43.3899 20.4072C43.7224 19.7544 43.7619 18.7783 43.4704 17.8756C43.1789 16.973 42.5769 16.2123 41.942 15.889L37.2431 13.4965C36.2846 14.6944 35.9906 16.4068 37.1924 18.0185L37.5015 18.5358L39.0085 19.3269L37.7991 21.702L37.7778 21.6917L36.5886 24.0311L36.6084 24.0406L35.6851 25.8535L20.8037 18.2761L23.5292 12.9239L24.1272 11.7491L28.6468 14.0506C28.8747 12.6136 29.3678 11.2311 30.1607 9.88989L25.2104 7.36963C24.8422 7.18213 24.3724 7.08765 23.8714 7.09307ZM55.7945 26.3382L59.3221 32.7571L48.7951 38.5418L45.9024 33.2786L45.2675 32.1233L55.7945 26.3382ZM54.7535 29.9188L48.8484 33.1641L49.836 34.9614L55.7411 31.7162L54.7535 29.9188ZM16.7725 32.0042L13.7153 38.009L23.8972 43.1934L26.9548 37.1887L16.7725 32.0042ZM60.3097 34.5545L63.837 40.973L53.3102 46.7577L50.4179 41.4945L49.783 40.3392L60.31 34.5542L60.3097 34.5545ZM59.2688 38.1349L53.3634 41.3801L54.3513 43.1774L60.2565 39.9322L59.2688 38.1349ZM14.6074 41.422H14.6071L2.69122 64.8237L3.58815 67.582L14.9061 45.3549L17.2554 46.5514L5.93776 68.7782L9.21535 67.7125L11.115 67.0948L10.0916 63.9372L13.2404 62.9162L12.2156 59.7656L15.368 58.7405L14.5814 56.3229L20.6121 44.4794L14.6074 41.422Z" fill="#F24E1E"/>
</svg>
