<svg width="75" height="75" viewBox="0 0 75 75" fill="none" xmlns="http://www.w3.org/2000/svg">
<g clip-path="url(#clip0_342_2887)">
<path d="M14.0625 42.1875C14.7217 42.1875 15.332 42.3096 15.8936 42.5537C16.4551 42.7979 16.9434 43.1274 17.3584 43.5425C17.7734 43.9575 18.1152 44.458 18.3838 45.0439C18.6523 45.6299 18.7744 46.2402 18.75 46.875C18.75 47.5342 18.6279 48.1445 18.3838 48.7061C18.1396 49.2676 17.8101 49.7559 17.395 50.1709C16.98 50.5859 16.4795 50.9277 15.8936 51.1963C15.3076 51.4648 14.6973 51.5869 14.0625 51.5625C13.4033 51.5625 12.793 51.4404 12.2314 51.1963C11.6699 50.9521 11.1816 50.6226 10.7666 50.2075C10.3516 49.7925 10.0098 49.292 9.74121 48.7061C9.47266 48.1201 9.35059 47.5098 9.375 46.875C9.375 46.2158 9.49707 45.6055 9.74121 45.0439C9.98535 44.4824 10.3149 43.9941 10.73 43.5791C11.145 43.1641 11.6455 42.8223 12.2314 42.5537C12.8174 42.2852 13.4277 42.1631 14.0625 42.1875ZM60.9375 42.1875C61.5967 42.1875 62.207 42.3096 62.7686 42.5537C63.3301 42.7979 63.8184 43.1274 64.2334 43.5425C64.6484 43.9575 64.9902 44.458 65.2588 45.0439C65.5273 45.6299 65.6494 46.2402 65.625 46.875C65.625 47.5342 65.5029 48.1445 65.2588 48.7061C65.0146 49.2676 64.6851 49.7559 64.27 50.1709C63.855 50.5859 63.3545 50.9277 62.7686 51.1963C62.1826 51.4648 61.5723 51.5869 60.9375 51.5625C60.2783 51.5625 59.668 51.4404 59.1064 51.1963C58.5449 50.9521 58.0566 50.6226 57.6416 50.2075C57.2266 49.7925 56.8848 49.292 56.6162 48.7061C56.3477 48.1201 56.2256 47.5098 56.25 46.875C56.25 46.2158 56.3721 45.6055 56.6162 45.0439C56.8604 44.4824 57.1899 43.9941 57.605 43.5791C58.02 43.1641 58.5205 42.8223 59.1064 42.5537C59.6924 42.2852 60.3027 42.1631 60.9375 42.1875ZM73.645 32.8125L71.228 35.1929C71.2769 35.3149 71.3989 35.6812 71.5942 36.2915C71.7896 36.9019 72.0215 37.6221 72.29 38.4521C72.5586 39.2822 72.8638 40.1733 73.2056 41.1255C73.5474 42.0776 73.8403 42.9443 74.0845 43.7256C74.3286 44.5068 74.5483 45.166 74.7437 45.7031C74.939 46.2402 75.0244 46.5088 75 46.5088V70.3125C75 70.9717 74.8779 71.582 74.6338 72.1436C74.3896 72.7051 74.0601 73.1934 73.645 73.6084C73.23 74.0234 72.7295 74.3652 72.1436 74.6338C71.5576 74.9023 70.9473 75.0244 70.3125 75H65.625C64.9658 75 64.3555 74.8779 63.7939 74.6338C63.2324 74.3896 62.7441 74.0601 62.3291 73.645C61.9141 73.23 61.5723 72.7295 61.3037 72.1436C61.0352 71.5576 60.9131 70.9473 60.9375 70.3125H14.0625C14.0625 70.9717 13.9404 71.582 13.6963 72.1436C13.4521 72.7051 13.1226 73.1934 12.7075 73.6084C12.2925 74.0234 11.792 74.3652 11.2061 74.6338C10.6201 74.9023 10.0098 75.0244 9.375 75H4.6875C4.02832 75 3.41797 74.8779 2.85645 74.6338C2.29492 74.3896 1.80664 74.0601 1.3916 73.645C0.976562 73.23 0.634766 72.7295 0.366211 72.1436C0.0976562 71.5576 -0.0244141 70.9473 4.65661e-10 70.3125V46.5088L0.256348 45.7397L0.915527 43.7622L1.79443 41.1255C2.11182 40.1733 2.40479 39.2822 2.67334 38.4521C2.94189 37.6221 3.18604 36.9019 3.40576 36.2915C3.62549 35.6812 3.74756 35.3149 3.77197 35.1929L1.35498 32.8125H4.65661e-10V28.125H3.33252L5.41992 30.249L8.12988 22.0825C8.52051 20.8862 9.08203 19.7998 9.81445 18.8232C10.5469 17.8467 11.4136 17.0044 12.4146 16.2964C13.4155 15.5884 14.4775 15.0391 15.6006 14.6484C16.7236 14.2578 17.9443 14.0625 19.2627 14.0625H55.7373C57.0068 14.0625 58.2153 14.2578 59.3628 14.6484C60.5103 15.0391 61.5845 15.5762 62.5854 16.2598C63.5864 16.9434 64.4409 17.7856 65.1489 18.7866C65.8569 19.7876 66.4307 20.8862 66.8701 22.0825L69.5801 30.249L71.6675 28.125H75V32.8125H73.645ZM19.2627 18.75C17.7246 18.75 16.3574 19.1895 15.1611 20.0684C13.9648 20.9473 13.1104 22.1069 12.5977 23.5474L9.48486 32.8125H65.5151L62.4023 23.5474C61.9141 22.1069 61.0718 20.9473 59.8755 20.0684C58.6792 19.1895 57.2998 18.75 55.7373 18.75H19.2627ZM51.5625 63.8306L47.7539 56.25H27.2461L23.4375 63.8306V65.625H51.5625V63.8306ZM70.3125 65.625V47.2412L70.0928 46.582C69.9463 46.1426 69.7632 45.5688 69.5435 44.8608C69.3237 44.1528 69.0674 43.4082 68.7744 42.627C68.4814 41.8457 68.2251 41.0767 68.0054 40.3198C67.7856 39.563 67.5781 38.9404 67.3828 38.4521C67.1875 37.9639 67.0776 37.6465 67.0532 37.5H7.94678C7.89795 37.6221 7.78809 37.9395 7.61719 38.4521C7.44629 38.9648 7.23877 39.5752 6.99463 40.2832C6.75049 40.9912 6.49414 41.7603 6.22559 42.5903C5.95703 43.4204 5.71289 44.1772 5.49316 44.8608C5.27344 45.5444 5.07812 46.106 4.90723 46.5454C4.73633 46.9849 4.66309 47.2168 4.6875 47.2412V65.625H18.75V62.7319L24.3164 51.5625H50.6836L56.25 62.7319V65.625H70.3125Z" fill="#F24E1E"/>
</g>
<defs>
<clipPath id="clip0_342_2887">
<rect width="75" height="75" fill="white"/>
</clipPath>
</defs>
</svg>
