<svg width="75" height="75" viewBox="0 0 75 75" fill="none" xmlns="http://www.w3.org/2000/svg">
<path d="M32.8125 17.1875C32.8125 16.7731 32.9771 16.3757 33.2701 16.0826C33.5632 15.7896 33.9606 15.625 34.375 15.625H40.625C41.0394 15.625 41.4368 15.7896 41.7299 16.0826C42.0229 16.3757 42.1875 16.7731 42.1875 17.1875C42.1875 17.6019 42.0229 17.9993 41.7299 18.2924C41.4368 18.5854 41.0394 18.75 40.625 18.75H34.375C33.9606 18.75 33.5632 18.5854 33.2701 18.2924C32.9771 17.9993 32.8125 17.6019 32.8125 17.1875Z" fill="#F24E1E"/>
<path fill-rule="evenodd" clip-rule="evenodd" d="M52.1313 28.9375C51.5641 29.3828 50.8281 29.7391 49.9406 30.0281C49.9802 30.4302 50 30.8375 50 31.25C49.9993 32.9426 49.6549 34.6174 48.9876 36.173C48.3203 37.7285 47.3441 39.1323 46.1181 40.2992C44.8921 41.4662 43.4418 42.372 41.8553 42.9617C40.2687 43.5515 38.5789 43.8129 36.8884 43.73C35.1978 43.6472 33.5416 43.2219 32.0203 42.4799C30.499 41.7379 29.1443 40.6947 28.0382 39.4135C26.9321 38.1323 26.0978 36.6398 25.5857 35.0265C25.0737 33.4132 24.8946 31.7127 25.0594 30.0281C24.1719 29.7391 23.436 29.3828 22.8703 28.9375C22.136 28.3594 21.6438 27.5875 21.586 26.6594C21.5313 25.7984 21.8719 25.0672 22.2125 24.5516C22.5486 24.0631 22.9479 23.6212 23.4 23.2375C23.6208 23.0458 23.8323 22.8755 24.0344 22.7266C23.974 22.4047 23.9104 22.0193 23.8438 21.5703C23.5684 19.6006 23.4326 17.6139 23.4375 15.625C23.4375 15.1344 23.6469 14.7687 23.7438 14.6141C23.8656 14.4187 24.0094 14.2516 24.1406 14.1172C24.4016 13.8437 24.7391 13.5656 25.1094 13.2984C25.8594 12.7547 26.8906 12.1437 28.1156 11.5719C30.5578 10.4313 33.9125 9.375 37.5 9.375C41.0875 9.375 44.4422 10.4328 46.8844 11.5719C47.9376 12.0533 48.944 12.6313 49.8906 13.2984C50.261 13.5656 50.5985 13.8453 50.8594 14.1172C50.9906 14.2516 51.1344 14.4187 51.2563 14.6141C51.3531 14.7687 51.5625 15.1344 51.5625 15.625C51.5625 18.1281 51.3594 20.1562 51.1563 21.5703C51.0896 22.0203 51.0261 22.4057 50.9656 22.7266C51.1656 22.875 51.3828 23.0453 51.6016 23.2375C51.9922 23.5797 52.4391 24.025 52.7875 24.5516C53.1297 25.0672 53.4688 25.7984 53.4156 26.6609C53.3578 27.5875 52.8656 28.3594 52.1313 28.9375ZM26.5656 16.1219C26.5891 18.2281 26.7641 19.9312 26.9375 21.1219C26.9792 21.4031 27.0188 21.6542 27.0563 21.875H47.9438C47.9823 21.6531 48.0219 21.4021 48.0625 21.1219C48.2344 19.9312 48.411 18.2281 48.4344 16.1219C48.3127 16.0192 48.187 15.9212 48.0578 15.8281C47.4938 15.4203 46.6375 14.9062 45.5625 14.4047C43.4016 13.3953 40.5063 12.5 37.5 12.5C34.4938 12.5 31.5985 13.3953 29.4375 14.4047C28.3625 14.9062 27.5063 15.4203 26.9438 15.8266C26.814 15.9206 26.6878 16.0197 26.5656 16.1234M26.2313 25L26.2266 25.0031C25.9568 25.1827 25.6985 25.3789 25.4531 25.5906C25.175 25.8344 24.9531 26.0719 24.8188 26.2781C24.7875 26.325 24.7588 26.3735 24.7328 26.4234L24.8016 26.4812C25.036 26.6656 25.5391 26.9359 26.5203 27.2031C26.7141 27.2552 26.9219 27.3062 27.1438 27.3562L27.1578 27.3594C27.9422 27.5328 28.9078 27.6875 30.0844 27.8094C31.7516 27.9828 33.85 28.0969 36.4719 28.1219L37.5 28.125C42.5422 28.125 45.8031 27.8109 47.8438 27.3594L47.8563 27.3562C48.0792 27.3073 48.2875 27.2562 48.4813 27.2031C49.461 26.9375 49.9656 26.6656 50.1985 26.4812L50.2672 26.4234C50.2417 26.3735 50.2135 26.325 50.1828 26.2781C50.0004 26.0233 49.7868 25.7923 49.5469 25.5906C49.302 25.379 49.0442 25.1828 48.775 25.0031L48.7688 25H26.2313ZM37.075 31.25C41.2031 31.25 44.4031 31.0312 46.8563 30.65C46.8688 30.8479 46.875 31.0479 46.875 31.25C46.8739 32.5012 46.6224 33.7394 46.1352 34.8919C45.6481 36.0443 44.9352 37.0876 44.0386 37.9602C43.1419 38.8328 42.0797 39.5171 40.9145 39.9728C39.7492 40.4285 38.5046 40.6463 37.2538 40.6135C36.0031 40.5806 34.7716 40.2977 33.6319 39.7815C32.4922 39.2653 31.4674 38.5261 30.6178 37.6077C29.7682 36.6892 29.1111 35.6099 28.6851 34.4335C28.2591 33.2571 28.0729 32.0073 28.1375 30.7578C30.4235 31.0734 33.3531 31.25 37.075 31.25ZM25.1219 60.7453C25.0401 61.3266 24.9994 61.913 25 62.5V64.0625C25.0002 64.406 24.8872 64.74 24.6785 65.0128C24.4697 65.2856 24.1769 65.482 23.8453 65.5716C23.5138 65.6613 23.1619 65.6392 22.8441 65.5087C22.5264 65.3783 22.2605 65.1468 22.0875 64.85C21.034 65.4197 19.8023 65.5645 18.6453 65.2547L15.6266 64.4453C14.4262 64.1231 13.4029 63.3373 12.7817 62.2608C12.1606 61.1843 11.9924 59.9052 12.3141 58.7047L13.5266 54.1766C13.8485 52.9759 14.6341 51.9522 15.7106 51.3307C16.7872 50.7093 18.0665 50.5408 19.2672 50.8625L22.286 51.6703C23.336 51.9516 24.2078 52.5687 24.8141 53.375C26.2608 51.3619 28.1662 49.7224 30.3725 48.592C32.5788 47.4617 35.0226 46.8731 37.5016 46.875C39.9793 46.8737 42.4216 47.4623 44.6268 48.5921C46.8319 49.7218 48.7364 51.3602 50.1828 53.3719C50.8119 52.5401 51.7005 51.9419 52.7078 51.6719L55.7266 50.8641C56.9271 50.5423 58.2062 50.7106 59.2827 51.3317C60.3592 51.9529 61.145 52.9762 61.4672 54.1766L62.6813 58.7062C62.8405 59.3009 62.8811 59.9211 62.8006 60.5314C62.7202 61.1417 62.5203 61.7302 62.2124 62.2633C61.9045 62.7963 61.4947 63.2636 61.0062 63.6382C60.5178 64.0129 59.9603 64.2877 59.3656 64.4469L56.3485 65.2547C55.1935 65.5647 53.9638 65.4216 52.9109 64.8547C52.7375 65.151 52.4712 65.382 52.1533 65.5118C51.8354 65.6417 51.4836 65.6631 51.1522 65.573C50.8209 65.4828 50.5285 65.286 50.3202 65.013C50.1119 64.7399 49.9994 64.4059 50 64.0625V62.5C50.0006 61.913 49.9599 61.3266 49.8781 60.7453L41.7469 62.925C41.3695 63.7329 40.7694 64.4164 40.0172 64.8952C39.2649 65.374 38.3917 65.6284 37.5 65.6284C36.6083 65.6284 35.7351 65.374 34.9829 64.8952C34.2306 64.4164 33.6306 63.7329 33.2531 62.925L25.1219 60.7453ZM33 59.6203C33.2089 58.9076 33.5842 58.2547 34.0949 57.7155C34.6056 57.1762 35.2372 56.766 35.9375 56.5187V50.0969C33.7459 50.3741 31.6668 51.2264 29.9112 52.5673C28.1557 53.9082 26.7863 55.6898 25.9422 57.7313L33 59.6203ZM49.0578 57.7297C48.2135 55.6886 46.844 53.9072 45.0885 52.5666C43.333 51.226 41.2539 50.3739 39.0625 50.0969V56.5172C40.475 57.0172 41.5781 58.1734 42 59.6219L49.0578 57.7297ZM52.4125 56.6047C52.3593 56.4065 52.3457 56.1997 52.3725 55.9963C52.3992 55.7928 52.4658 55.5966 52.5684 55.4188C52.671 55.2411 52.8076 55.0853 52.9704 54.9603C53.1332 54.8354 53.319 54.7437 53.5172 54.6906L56.5359 53.8812C56.936 53.7743 57.3622 53.8306 57.7208 54.0378C58.0794 54.2449 58.3412 54.5859 58.4485 54.9859L59.6625 59.5141C59.7157 59.7123 59.7293 59.919 59.7025 60.1225C59.6758 60.326 59.6092 60.5222 59.5067 60.6999C59.4041 60.8777 59.2675 61.0335 59.1047 61.1584C58.9419 61.2833 58.7561 61.375 58.5578 61.4281L55.5391 62.2375C55.3408 62.2906 55.1339 62.3042 54.9304 62.2773C54.7268 62.2505 54.5305 62.1838 54.3528 62.0811C54.175 61.9783 54.0192 61.8415 53.8944 61.6786C53.7695 61.5156 53.678 61.3296 53.625 61.1312L52.4125 56.6047ZM18.4594 53.8812C18.2611 53.8278 18.0542 53.8141 17.8505 53.8407C17.6469 53.8673 17.4505 53.9338 17.2726 54.0364C17.0946 54.139 16.9387 54.2757 16.8136 54.4386C16.6886 54.6016 16.5969 54.7875 16.5438 54.9859L15.3313 59.5125C15.2781 59.7107 15.2645 59.9175 15.2912 60.1209C15.318 60.3244 15.3845 60.5206 15.4871 60.6984C15.5897 60.8761 15.7263 61.0319 15.8891 61.1568C16.0519 61.2818 16.2377 61.3734 16.436 61.4266L19.4547 62.2359C19.6529 62.2891 19.8597 62.3027 20.0631 62.276C20.2666 62.2492 20.4628 62.1827 20.6406 62.0801C20.8183 61.9775 20.9741 61.8409 21.099 61.6781C21.224 61.5153 21.3156 61.3295 21.3688 61.1312L22.5813 56.6031C22.6347 56.4048 22.6484 56.1979 22.6218 55.9943C22.5952 55.7906 22.5287 55.5942 22.4261 55.4163C22.3235 55.2384 22.1868 55.0824 22.0239 54.9574C21.861 54.8323 21.675 54.7406 21.4766 54.6875L18.4594 53.8812ZM39.0625 60.9375C39.0625 61.3519 38.8979 61.7493 38.6049 62.0424C38.3118 62.3354 37.9144 62.5 37.5 62.5C37.0856 62.5 36.6882 62.3354 36.3952 62.0424C36.1021 61.7493 35.9375 61.3519 35.9375 60.9375C35.9375 60.5231 36.1021 60.1257 36.3952 59.8326C36.6882 59.5396 37.0856 59.375 37.5 59.375C37.9144 59.375 38.3118 59.5396 38.6049 59.8326C38.8979 60.1257 39.0625 60.5231 39.0625 60.9375Z" fill="#F24E1E"/>
</svg>
