<svg width="180" height="113" viewBox="0 0 180 113" fill="none" xmlns="http://www.w3.org/2000/svg">
<path d="M162.73 17.0992C152.816 7.41645 139.609 1.64664 125.627 0.890714C111.646 0.134789 97.8702 4.44567 86.9281 13.0008H46.6081C45.8442 13.0008 45.1117 13.2979 44.5716 13.8267C44.0315 14.3556 43.7281 15.0729 43.7281 15.8208C43.7281 16.5687 44.0315 17.286 44.5716 17.8148C45.1117 18.3437 45.8442 18.6408 46.6081 18.6408H80.7841C77.5935 21.9989 74.8397 25.7309 72.5857 29.7516H27.2929C26.529 29.7516 25.7965 30.0487 25.2564 30.5775C24.7163 31.1064 24.4129 31.8237 24.4129 32.5716C24.4129 33.3195 24.7163 34.0368 25.2564 34.5656C25.7965 35.0945 26.529 35.3916 27.2929 35.3916H69.8209C66.3345 43.7719 64.9708 52.8538 65.8465 61.862H46.6465C45.8827 61.862 45.1501 62.1591 44.61 62.6879C44.0699 63.2168 43.7665 63.9341 43.7665 64.682C43.7665 65.4299 44.0699 66.1472 44.61 66.676C45.1501 67.2049 45.8827 67.502 46.6465 67.502H66.7105C67.4507 71.1429 68.5635 74.7015 70.0321 78.124H27.2929C26.529 78.124 25.7965 78.4211 25.2564 78.9499C24.7163 79.4788 24.4129 80.1961 24.4129 80.944C24.4129 81.6919 24.7163 82.4092 25.2564 82.938C25.7965 83.4669 26.529 83.764 27.2929 83.764H72.8545C75.0375 87.637 77.6938 91.2355 80.7649 94.48H20.3041C19.5402 94.48 18.8077 94.7771 18.2676 95.3059C17.7275 95.8348 17.4241 96.5521 17.4241 97.3C17.4241 98.0479 17.7275 98.7652 18.2676 99.294C18.8077 99.8229 19.5402 100.12 20.3041 100.12H85.0273C85.5317 100.114 86.0267 99.9846 86.4673 99.744C97.7674 108.92 112.251 113.466 126.893 112.434C141.535 111.402 155.204 104.872 165.046 94.2065C174.888 83.5411 180.141 69.5652 179.71 55.1971C179.278 40.8291 173.195 27.1798 162.73 17.0992ZM158.659 91.942C151.504 98.9422 142.39 103.708 132.47 105.637C122.549 107.566 112.267 106.572 102.923 102.78C93.5791 98.9884 85.5932 92.5691 79.9748 84.3339C74.3563 76.0986 71.3576 66.4172 71.3576 56.5134C71.3576 46.6096 74.3563 36.9282 79.9748 28.6929C85.5932 20.4576 93.5791 14.0383 102.923 10.2465C112.267 6.45457 122.549 5.46038 132.47 7.38954C142.39 9.3187 151.504 14.0846 158.659 21.0848C168.237 30.4906 173.615 43.231 173.615 56.5134C173.615 69.7957 168.237 82.5362 158.659 91.942Z" fill="#F9CB14"/>
<path d="M122.487 14.5612C114.015 14.5612 105.733 17.0211 98.6886 21.6298C91.6444 26.2385 86.1541 32.7891 82.912 40.4531C79.6699 48.1172 78.8216 56.5505 80.4745 64.6866C82.1273 72.8227 86.2069 80.2962 92.1975 86.162C98.1881 92.0278 105.821 96.0225 114.13 97.6408C122.439 99.2592 131.052 98.4286 138.879 95.2541C146.706 92.0795 153.396 86.7036 158.103 79.8061C162.81 72.9087 165.322 64.7995 165.322 56.504C165.307 45.3846 160.789 34.725 152.759 26.8624C144.729 18.9998 133.843 14.5761 122.487 14.5612ZM125.367 92.6V89.31C125.367 88.562 125.063 87.8448 124.523 87.3159C123.983 86.7871 123.25 86.49 122.487 86.49C121.723 86.49 120.99 86.7871 120.45 87.3159C119.91 87.8448 119.607 88.562 119.607 89.31V92.6C110.82 91.9179 102.569 88.1945 96.3309 82.097C90.0931 75.9995 86.2765 67.9263 85.565 59.324H88.9826C89.7464 59.324 90.4789 59.0269 91.0191 58.498C91.5592 57.9691 91.8626 57.2519 91.8626 56.504C91.8626 55.756 91.5592 55.0388 91.0191 54.5099C90.4789 53.9811 89.7464 53.684 88.9826 53.684H85.565C86.2596 45.0702 90.0692 36.9815 96.309 30.8717C102.549 24.762 110.81 21.0317 119.607 20.3516V23.698C119.607 24.4459 119.91 25.1631 120.45 25.692C120.99 26.2209 121.723 26.518 122.487 26.518C123.25 26.518 123.983 26.2209 124.523 25.692C125.063 25.1631 125.367 24.4459 125.367 23.698V20.3516C134.164 21.0317 142.424 24.762 148.664 30.8717C154.904 36.9815 158.714 45.0702 159.408 53.684H155.991C155.227 53.684 154.494 53.9811 153.954 54.5099C153.414 55.0388 153.111 55.756 153.111 56.504C153.111 57.2519 153.414 57.9691 153.954 58.498C154.494 59.0269 155.227 59.324 155.991 59.324H159.408C158.697 67.9263 154.88 75.9995 148.642 82.097C142.405 88.1945 134.153 91.9179 125.367 92.6Z" fill="#F9CB14"/>
<path d="M138.307 63.084L126.23 55.564L138.768 31.124C138.998 30.472 138.976 29.7601 138.706 29.123C138.436 28.486 137.936 27.9679 137.303 27.6669C136.669 27.3658 135.944 27.3027 135.266 27.4894C134.588 27.6761 134.003 28.0997 133.622 28.68L119.914 55.2444C119.592 55.8678 119.518 56.5859 119.706 57.2597C119.894 57.9335 120.33 58.515 120.931 58.8916L135.197 67.8404C135.656 68.1255 136.189 68.2755 136.733 68.2728C137.356 68.2753 137.962 68.0801 138.462 67.7165C138.962 67.3529 139.328 66.8404 139.505 66.2559C139.683 65.6715 139.662 65.0465 139.446 64.4746C139.23 63.9027 138.83 63.4148 138.307 63.084ZM37.1617 64.6632C37.1617 63.9153 36.8583 63.198 36.3182 62.6692C35.7781 62.1403 35.0455 61.8432 34.2817 61.8432H3.73449C2.97067 61.8432 2.23813 62.1403 1.69802 62.6692C1.15792 63.198 0.854492 63.9153 0.854492 64.6632C0.854492 65.4111 1.15792 66.1284 1.69802 66.6572C2.23813 67.1861 2.97067 67.4832 3.73449 67.4832H34.3201C35.0772 67.4733 35.8 67.1718 36.3318 66.6441C36.8636 66.1163 37.1618 65.4046 37.1617 64.6632ZM17.8465 18.622H34.3201C35.0839 18.622 35.8165 18.3249 36.3566 17.796C36.8967 17.2672 37.2001 16.5499 37.2001 15.802C37.2001 15.0541 36.8967 14.3368 36.3566 13.808C35.8165 13.2791 35.0839 12.982 34.3201 12.982H17.8465C17.0827 12.982 16.3501 13.2791 15.81 13.808C15.2699 14.3368 14.9665 15.0541 14.9665 15.802C14.9665 16.5499 15.2699 17.2672 15.81 17.796C16.3501 18.3249 17.0827 18.622 17.8465 18.622ZM14.7169 51.24H52.6753C53.4391 51.24 54.1717 50.9429 54.7118 50.414C55.2519 49.8852 55.5553 49.1679 55.5553 48.42C55.5553 47.6721 55.2519 46.9548 54.7118 46.426C54.1717 45.8971 53.4391 45.6 52.6753 45.6H14.7169C13.9531 45.6 13.2205 45.8971 12.6804 46.426C12.1403 46.9548 11.8369 47.6721 11.8369 48.42C11.8369 49.1679 12.1403 49.8852 12.6804 50.414C13.2205 50.9429 13.9531 51.24 14.7169 51.24Z" fill="#F9CB14"/>
</svg>
